<svg width="322" height="210" viewBox="0 0 322 210" fill="none" xmlns="http://www.w3.org/2000/svg">
<path d="M0.5 83.5H321.5V160C321.5 161.933 319.933 163.5 318 163.5H4.00001C2.06701 163.5 0.5 161.933 0.5 160V83.5Z" stroke="#4E4E4E"/>
<path d="M4 39.5H318C319.933 39.5 321.5 41.067 321.5 43V83.5H0.5V43C0.5 41.067 2.067 39.5 4 39.5Z" stroke="#494242"/>
<rect x="9.5" y="51.5" width="304" height="22" stroke="#969393"/>
<path d="M20.3652 153.014H17.0605L16.3691 155H14.8281L18.0508 146.469H19.3809L22.6094 155H21.0625L20.3652 153.014ZM17.4766 151.818H19.9492L18.7129 148.279L17.4766 151.818ZM29.7168 146.469V152.17C29.7168 153.076 29.4258 153.795 28.8438 154.326C28.2656 154.854 27.4941 155.117 26.5293 155.117C25.5527 155.117 24.7773 154.857 24.2031 154.338C23.6289 153.814 23.3418 153.09 23.3418 152.164V146.469H24.8184V152.176C24.8184 152.746 24.9629 153.182 25.252 153.482C25.541 153.783 25.9668 153.934 26.5293 153.934C27.6699 153.934 28.2402 153.332 28.2402 152.129V146.469H29.7168ZM31.3047 155V146.469H33.8242C34.5781 146.469 35.2461 146.637 35.8281 146.973C36.4141 147.309 36.8672 147.785 37.1875 148.402C37.5078 149.02 37.668 149.727 37.668 150.523V150.951C37.668 151.76 37.5059 152.471 37.1816 153.084C36.8613 153.697 36.4023 154.17 35.8047 154.502C35.2109 154.834 34.5293 155 33.7598 155H31.3047ZM32.7871 147.664V153.816H33.7539C34.5312 153.816 35.127 153.574 35.541 153.09C35.959 152.602 36.1719 151.902 36.1797 150.992V150.518C36.1797 149.592 35.9785 148.885 35.5762 148.396C35.1738 147.908 34.5898 147.664 33.8242 147.664H32.7871Z" fill="#4E4E4E"/>
<path d="M21.1523 93.4688V99.1699C21.1523 100.076 20.8613 100.795 20.2793 101.326C19.7012 101.854 18.9297 102.117 17.9648 102.117C16.9883 102.117 16.2129 101.857 15.6387 101.338C15.0645 100.814 14.7773 100.09 14.7773 99.1641V93.4688H16.2539V99.1758C16.2539 99.7461 16.3984 100.182 16.6875 100.482C16.9766 100.783 17.4023 100.934 17.9648 100.934C19.1055 100.934 19.6758 100.332 19.6758 99.1289V93.4688H21.1523ZM27.1992 99.8027C27.1992 99.4277 27.0664 99.1387 26.8008 98.9355C26.5391 98.7324 26.0645 98.5273 25.377 98.3203C24.6895 98.1133 24.1426 97.8828 23.7363 97.6289C22.959 97.1406 22.5703 96.5039 22.5703 95.7188C22.5703 95.0312 22.8496 94.4648 23.4082 94.0195C23.9707 93.5742 24.6992 93.3516 25.5938 93.3516C26.1875 93.3516 26.7168 93.4609 27.1816 93.6797C27.6465 93.8984 28.0117 94.2109 28.2773 94.6172C28.543 95.0195 28.6758 95.4668 28.6758 95.959H27.1992C27.1992 95.5137 27.0586 95.166 26.7773 94.916C26.5 94.6621 26.1016 94.5352 25.582 94.5352C25.0977 94.5352 24.7207 94.6387 24.4512 94.8457C24.1855 95.0527 24.0527 95.3418 24.0527 95.7129C24.0527 96.0254 24.1973 96.2871 24.4863 96.498C24.7754 96.7051 25.252 96.9082 25.916 97.1074C26.5801 97.3027 27.1133 97.5273 27.5156 97.7812C27.918 98.0312 28.2129 98.3203 28.4004 98.6484C28.5879 98.9727 28.6816 99.3535 28.6816 99.791C28.6816 100.502 28.4082 101.068 27.8613 101.49C27.3184 101.908 26.5801 102.117 25.6465 102.117C25.0293 102.117 24.4609 102.004 23.9414 101.777C23.4258 101.547 23.0234 101.23 22.7344 100.828C22.4492 100.426 22.3066 99.957 22.3066 99.4219H23.7891C23.7891 99.9062 23.9492 100.281 24.2695 100.547C24.5898 100.812 25.0488 100.945 25.6465 100.945C26.1621 100.945 26.5488 100.842 26.8066 100.635C27.0684 100.424 27.1992 100.146 27.1992 99.8027ZM29.9824 102V93.4688H32.502C33.2559 93.4688 33.9238 93.6367 34.5059 93.9727C35.0918 94.3086 35.5449 94.7852 35.8652 95.4023C36.1855 96.0195 36.3457 96.7266 36.3457 97.5234V97.9512C36.3457 98.7598 36.1836 99.4707 35.8594 100.084C35.5391 100.697 35.0801 101.17 34.4824 101.502C33.8887 101.834 33.207 102 32.4375 102H29.9824ZM31.4648 94.6641V100.816H32.4316C33.209 100.816 33.8047 100.574 34.2188 100.09C34.6367 99.6016 34.8496 98.9023 34.8574 97.9922V97.5176C34.8574 96.5918 34.6562 95.8848 34.2539 95.3965C33.8516 94.9082 33.2676 94.6641 32.502 94.6641H31.4648Z" fill="#4E4E4E"/>
<path d="M20.3027 124.191H16.7988V126.816H20.8945V128H15.3164V119.469H20.8535V120.664H16.7988V123.02H20.3027V124.191ZM28.3418 119.469V125.17C28.3418 126.076 28.0508 126.795 27.4688 127.326C26.8906 127.854 26.1191 128.117 25.1543 128.117C24.1777 128.117 23.4023 127.857 22.8281 127.338C22.2539 126.814 21.9668 126.09 21.9668 125.164V119.469H23.4434V125.176C23.4434 125.746 23.5879 126.182 23.877 126.482C24.166 126.783 24.5918 126.934 25.1543 126.934C26.2949 126.934 26.8652 126.332 26.8652 125.129V119.469H28.3418ZM33.0645 124.713H31.4121V128H29.9297V119.469H32.9297C33.9141 119.469 34.6738 119.689 35.209 120.131C35.7441 120.572 36.0117 121.211 36.0117 122.047C36.0117 122.617 35.873 123.096 35.5957 123.482C35.3223 123.865 34.9395 124.16 34.4473 124.367L36.3633 127.924V128H34.7754L33.0645 124.713ZM31.4121 123.523H32.9355C33.4355 123.523 33.8262 123.398 34.1074 123.148C34.3887 122.895 34.5293 122.549 34.5293 122.111C34.5293 121.654 34.3984 121.301 34.1367 121.051C33.8789 120.801 33.4922 120.672 32.9766 120.664H31.4121V123.523Z" fill="#5C85EE"/>
<line x1="1" y1="110.5" x2="322" y2="110.5" stroke="#518BE2"/>
<path d="M23.1875 58.4688V64.1699C23.1875 65.0762 22.8965 65.7949 22.3145 66.3262C21.7363 66.8535 20.9648 67.1172 20 67.1172C19.0234 67.1172 18.248 66.8574 17.6738 66.3379C17.0996 65.8145 16.8125 65.0898 16.8125 64.1641V58.4688H18.2891V64.1758C18.2891 64.7461 18.4336 65.1816 18.7227 65.4824C19.0117 65.7832 19.4375 65.9336 20 65.9336C21.1406 65.9336 21.7109 65.332 21.7109 64.1289V58.4688H23.1875ZM25.9062 68.582H24.9277V58.4688H25.9062V68.582Z" fill="#4E4E4E"/>
<line x1="1" y1="136.5" x2="322" y2="136.5" stroke="#5C85EE"/>
<path d="M218 19.5C218 20.8807 216.881 22 215.5 22C214.119 22 213 20.8807 213 19.5C213 18.1193 214.119 17 215.5 17C216.881 17 218 18.1193 218 19.5Z" fill="#EC156F"/>
<path d="M268 177.5C268 178.881 266.881 180 265.5 180C264.119 180 263 178.881 263 177.5C263 176.119 264.119 175 265.5 175C266.881 175 268 176.119 268 177.5Z" fill="#EC156F"/>
<path d="M71 152.5C71 153.881 69.8807 155 68.5 155C67.1193 155 66 153.881 66 152.5C66 151.119 67.1193 150 68.5 150C69.8807 150 71 151.119 71 152.5Z" fill="#EC156F"/>
<path d="M71 183.5C71 184.881 69.8807 186 68.5 186C67.1193 186 66 184.881 66 183.5C66 182.119 67.1193 181 68.5 181C69.8807 181 71 182.119 71 183.5Z" fill="#EC156F"/>
<path d="M138 190.5C138 191.881 136.881 193 135.5 193C134.119 193 133 191.881 133 190.5C133 189.119 134.119 188 135.5 188C136.881 188 138 189.119 138 190.5Z" fill="#EC156F"/>
<path d="M138 125.5C138 126.881 136.881 128 135.5 128C134.119 128 133 126.881 133 125.5C133 124.119 134.119 123 135.5 123C136.881 123 138 124.119 138 125.5Z" fill="#EC156F"/>
<path d="M322 161.5C322 162.881 320.881 164 319.5 164C318.119 164 317 162.881 317 161.5C317 160.119 318.119 159 319.5 159C320.881 159 322 160.119 322 161.5Z" fill="#EC156F"/>
<path d="M215.5 18V47" stroke="#EC156F"/>
<path d="M218 46.5C218 47.8807 216.881 49 215.5 49C214.119 49 213 47.8807 213 46.5C213 45.1193 214.119 44 215.5 44C216.881 44 218 45.1193 218 46.5Z" fill="#EC156F"/>
<path d="M204.656 13H203.232V6.66016H204.656V13ZM203.145 5.01367C203.145 4.79492 203.213 4.61328 203.35 4.46875C203.49 4.32422 203.689 4.25195 203.947 4.25195C204.205 4.25195 204.404 4.32422 204.545 4.46875C204.686 4.61328 204.756 4.79492 204.756 5.01367C204.756 5.22852 204.686 5.4082 204.545 5.55273C204.404 5.69336 204.205 5.76367 203.947 5.76367C203.689 5.76367 203.49 5.69336 203.35 5.55273C203.213 5.4082 203.145 5.22852 203.145 5.01367ZM207.533 6.66016L207.574 7.39258C208.043 6.82617 208.658 6.54297 209.42 6.54297C210.74 6.54297 211.412 7.29883 211.436 8.81055V13H210.012V8.89258C210.012 8.49023 209.924 8.19336 209.748 8.00195C209.576 7.80664 209.293 7.70898 208.898 7.70898C208.324 7.70898 207.896 7.96875 207.615 8.48828V13H206.191V6.66016H207.533ZM218.443 9.89453C218.443 10.875 218.221 11.6582 217.775 12.2441C217.33 12.8262 216.732 13.1172 215.982 13.1172C215.287 13.1172 214.73 12.8887 214.312 12.4316V15.4375H212.889V6.66016H214.201L214.26 7.30469C214.678 6.79688 215.246 6.54297 215.965 6.54297C216.738 6.54297 217.344 6.83203 217.781 7.41016C218.223 7.98438 218.443 8.7832 218.443 9.80664V9.89453ZM217.025 9.77148C217.025 9.13867 216.898 8.63672 216.645 8.26562C216.395 7.89453 216.035 7.70898 215.566 7.70898C214.984 7.70898 214.566 7.94922 214.312 8.42969V11.2422C214.57 11.7344 214.992 11.9805 215.578 11.9805C216.031 11.9805 216.385 11.7988 216.639 11.4355C216.896 11.0684 217.025 10.5137 217.025 9.77148ZM223.494 12.3789C223.076 12.8711 222.482 13.1172 221.713 13.1172C221.025 13.1172 220.504 12.916 220.148 12.5137C219.797 12.1113 219.621 11.5293 219.621 10.7676V6.66016H221.045V10.75C221.045 11.5547 221.379 11.957 222.047 11.957C222.738 11.957 223.205 11.709 223.447 11.2129V6.66016H224.871V13H223.529L223.494 12.3789ZM228.105 5.11914V6.66016H229.225V7.71484H228.105V11.2539C228.105 11.4961 228.152 11.6719 228.246 11.7812C228.344 11.8867 228.516 11.9395 228.762 11.9395C228.926 11.9395 229.092 11.9199 229.26 11.8809V12.9824C228.936 13.0723 228.623 13.1172 228.322 13.1172C227.229 13.1172 226.682 12.5137 226.682 11.3066V7.71484H225.639V6.66016H226.682V5.11914H228.105Z" fill="black"/>
<path d="M212.854 189H211.43V182.66H212.854V189ZM211.342 181.014C211.342 180.795 211.41 180.613 211.547 180.469C211.688 180.324 211.887 180.252 212.145 180.252C212.402 180.252 212.602 180.324 212.742 180.469C212.883 180.613 212.953 180.795 212.953 181.014C212.953 181.229 212.883 181.408 212.742 181.553C212.602 181.693 212.402 181.764 212.145 181.764C211.887 181.764 211.688 181.693 211.547 181.553C211.41 181.408 211.342 181.229 211.342 181.014ZM216.193 181.119V182.66H217.312V183.715H216.193V187.254C216.193 187.496 216.24 187.672 216.334 187.781C216.432 187.887 216.604 187.939 216.85 187.939C217.014 187.939 217.18 187.92 217.348 187.881V188.982C217.023 189.072 216.711 189.117 216.41 189.117C215.316 189.117 214.77 188.514 214.77 187.307V183.715H213.727V182.66H214.77V181.119H216.193ZM221.197 189.117C220.295 189.117 219.562 188.834 219 188.268C218.441 187.697 218.162 186.939 218.162 185.994V185.818C218.162 185.186 218.283 184.621 218.525 184.125C218.771 183.625 219.115 183.236 219.557 182.959C219.998 182.682 220.49 182.543 221.033 182.543C221.896 182.543 222.562 182.818 223.031 183.369C223.504 183.92 223.74 184.699 223.74 185.707V186.281H219.598C219.641 186.805 219.814 187.219 220.119 187.523C220.428 187.828 220.814 187.98 221.279 187.98C221.932 187.98 222.463 187.717 222.873 187.189L223.641 187.922C223.387 188.301 223.047 188.596 222.621 188.807C222.199 189.014 221.725 189.117 221.197 189.117ZM221.027 183.686C220.637 183.686 220.32 183.822 220.078 184.096C219.84 184.369 219.688 184.75 219.621 185.238H222.334V185.133C222.303 184.656 222.176 184.297 221.953 184.055C221.73 183.809 221.422 183.686 221.027 183.686ZM226.189 182.66L226.23 183.322C226.676 182.803 227.285 182.543 228.059 182.543C228.906 182.543 229.486 182.867 229.799 183.516C230.26 182.867 230.908 182.543 231.744 182.543C232.443 182.543 232.963 182.736 233.303 183.123C233.646 183.51 233.822 184.08 233.83 184.834V189H232.406V184.875C232.406 184.473 232.318 184.178 232.143 183.99C231.967 183.803 231.676 183.709 231.27 183.709C230.945 183.709 230.68 183.797 230.473 183.973C230.27 184.145 230.127 184.371 230.045 184.652L230.051 189H228.627V184.828C228.607 184.082 228.227 183.709 227.484 183.709C226.914 183.709 226.51 183.941 226.271 184.406V189H224.848V182.66H226.189ZM238.846 187.277C238.846 187.023 238.74 186.83 238.529 186.697C238.322 186.564 237.977 186.447 237.492 186.346C237.008 186.244 236.604 186.115 236.279 185.959C235.568 185.615 235.213 185.117 235.213 184.465C235.213 183.918 235.443 183.461 235.904 183.094C236.365 182.727 236.951 182.543 237.662 182.543C238.42 182.543 239.031 182.73 239.496 183.105C239.965 183.48 240.199 183.967 240.199 184.564H238.775C238.775 184.291 238.674 184.064 238.471 183.885C238.268 183.701 237.998 183.609 237.662 183.609C237.35 183.609 237.094 183.682 236.895 183.826C236.699 183.971 236.602 184.164 236.602 184.406C236.602 184.625 236.693 184.795 236.877 184.916C237.061 185.037 237.432 185.16 237.99 185.285C238.549 185.406 238.986 185.553 239.303 185.725C239.623 185.893 239.859 186.096 240.012 186.334C240.168 186.572 240.246 186.861 240.246 187.201C240.246 187.771 240.01 188.234 239.537 188.59C239.064 188.941 238.445 189.117 237.68 189.117C237.16 189.117 236.697 189.023 236.291 188.836C235.885 188.648 235.568 188.391 235.342 188.062C235.115 187.734 235.002 187.381 235.002 187.002H236.385C236.404 187.338 236.531 187.598 236.766 187.781C237 187.961 237.311 188.051 237.697 188.051C238.072 188.051 238.357 187.98 238.553 187.84C238.748 187.695 238.846 187.508 238.846 187.277ZM250.049 187.037L251.057 182.66H252.445L250.717 189H249.545L248.186 184.646L246.85 189H245.678L243.943 182.66H245.332L246.357 186.99L247.658 182.66H248.73L250.049 187.037ZM256.717 183.961C256.529 183.93 256.336 183.914 256.137 183.914C255.484 183.914 255.045 184.164 254.818 184.664V189H253.395V182.66H254.754L254.789 183.369C255.133 182.818 255.609 182.543 256.219 182.543C256.422 182.543 256.59 182.57 256.723 182.625L256.717 183.961ZM261.229 189C261.166 188.879 261.111 188.682 261.064 188.408C260.611 188.881 260.057 189.117 259.4 189.117C258.764 189.117 258.244 188.936 257.842 188.572C257.439 188.209 257.238 187.76 257.238 187.225C257.238 186.549 257.488 186.031 257.988 185.672C258.492 185.309 259.211 185.127 260.145 185.127H261.018V184.711C261.018 184.383 260.926 184.121 260.742 183.926C260.559 183.727 260.279 183.627 259.904 183.627C259.58 183.627 259.314 183.709 259.107 183.873C258.9 184.033 258.797 184.238 258.797 184.488H257.373C257.373 184.141 257.488 183.816 257.719 183.516C257.949 183.211 258.262 182.973 258.656 182.801C259.055 182.629 259.498 182.543 259.986 182.543C260.729 182.543 261.32 182.73 261.762 183.105C262.203 183.477 262.43 184 262.441 184.676V187.535C262.441 188.105 262.521 188.561 262.682 188.9V189H261.229ZM259.664 187.975C259.945 187.975 260.209 187.906 260.455 187.77C260.705 187.633 260.893 187.449 261.018 187.219V186.023H260.25C259.723 186.023 259.326 186.115 259.061 186.299C258.795 186.482 258.662 186.742 258.662 187.078C258.662 187.352 258.752 187.57 258.932 187.734C259.115 187.895 259.359 187.975 259.664 187.975ZM269.484 185.895C269.484 186.875 269.262 187.658 268.816 188.244C268.371 188.826 267.773 189.117 267.023 189.117C266.328 189.117 265.771 188.889 265.354 188.432V191.438H263.93V182.66H265.242L265.301 183.305C265.719 182.797 266.287 182.543 267.006 182.543C267.779 182.543 268.385 182.832 268.822 183.41C269.264 183.984 269.484 184.783 269.484 185.807V185.895ZM268.066 185.771C268.066 185.139 267.939 184.637 267.686 184.266C267.436 183.895 267.076 183.709 266.607 183.709C266.025 183.709 265.607 183.949 265.354 184.43V187.242C265.611 187.734 266.033 187.98 266.619 187.98C267.072 187.98 267.426 187.799 267.68 187.436C267.938 187.068 268.066 186.514 268.066 185.771ZM276.246 185.895C276.246 186.875 276.023 187.658 275.578 188.244C275.133 188.826 274.535 189.117 273.785 189.117C273.09 189.117 272.533 188.889 272.115 188.432V191.438H270.691V182.66H272.004L272.062 183.305C272.48 182.797 273.049 182.543 273.768 182.543C274.541 182.543 275.146 182.832 275.584 183.41C276.025 183.984 276.246 184.783 276.246 185.807V185.895ZM274.828 185.771C274.828 185.139 274.701 184.637 274.447 184.266C274.197 183.895 273.838 183.709 273.369 183.709C272.787 183.709 272.369 183.949 272.115 184.43V187.242C272.373 187.734 272.795 187.98 273.381 187.98C273.834 187.98 274.188 187.799 274.441 187.436C274.699 187.068 274.828 186.514 274.828 185.771ZM280.248 189.117C279.346 189.117 278.613 188.834 278.051 188.268C277.492 187.697 277.213 186.939 277.213 185.994V185.818C277.213 185.186 277.334 184.621 277.576 184.125C277.822 183.625 278.166 183.236 278.607 182.959C279.049 182.682 279.541 182.543 280.084 182.543C280.947 182.543 281.613 182.818 282.082 183.369C282.555 183.92 282.791 184.699 282.791 185.707V186.281H278.648C278.691 186.805 278.865 187.219 279.17 187.523C279.479 187.828 279.865 187.98 280.33 187.98C280.982 187.98 281.514 187.717 281.924 187.189L282.691 187.922C282.438 188.301 282.098 188.596 281.672 188.807C281.25 189.014 280.775 189.117 280.248 189.117ZM280.078 183.686C279.688 183.686 279.371 183.822 279.129 184.096C278.891 184.369 278.738 184.75 278.672 185.238H281.385V185.133C281.354 184.656 281.227 184.297 281.004 184.055C280.781 183.809 280.473 183.686 280.078 183.686ZM287.221 183.961C287.033 183.93 286.84 183.914 286.641 183.914C285.988 183.914 285.549 184.164 285.322 184.664V189H283.898V182.66H285.258L285.293 183.369C285.637 182.818 286.113 182.543 286.723 182.543C286.926 182.543 287.094 182.57 287.227 182.625L287.221 183.961Z" fill="black"/>
<path d="M215.5 18V47" stroke="#EC156F"/>
<path d="M110.984 204.277C110.984 204.023 110.879 203.83 110.668 203.697C110.461 203.564 110.115 203.447 109.631 203.346C109.146 203.244 108.742 203.115 108.418 202.959C107.707 202.615 107.352 202.117 107.352 201.465C107.352 200.918 107.582 200.461 108.043 200.094C108.504 199.727 109.09 199.543 109.801 199.543C110.559 199.543 111.17 199.73 111.635 200.105C112.104 200.48 112.338 200.967 112.338 201.564H110.914C110.914 201.291 110.812 201.064 110.609 200.885C110.406 200.701 110.137 200.609 109.801 200.609C109.488 200.609 109.232 200.682 109.033 200.826C108.838 200.971 108.74 201.164 108.74 201.406C108.74 201.625 108.832 201.795 109.016 201.916C109.199 202.037 109.57 202.16 110.129 202.285C110.688 202.406 111.125 202.553 111.441 202.725C111.762 202.893 111.998 203.096 112.15 203.334C112.307 203.572 112.385 203.861 112.385 204.201C112.385 204.771 112.148 205.234 111.676 205.59C111.203 205.941 110.584 206.117 109.818 206.117C109.299 206.117 108.836 206.023 108.43 205.836C108.023 205.648 107.707 205.391 107.48 205.062C107.254 204.734 107.141 204.381 107.141 204.002H108.523C108.543 204.338 108.67 204.598 108.904 204.781C109.139 204.961 109.449 205.051 109.836 205.051C110.211 205.051 110.496 204.98 110.691 204.84C110.887 204.695 110.984 204.508 110.984 204.277ZM116.422 206.117C115.52 206.117 114.787 205.834 114.225 205.268C113.666 204.697 113.387 203.939 113.387 202.994V202.818C113.387 202.186 113.508 201.621 113.75 201.125C113.996 200.625 114.34 200.236 114.781 199.959C115.223 199.682 115.715 199.543 116.258 199.543C117.121 199.543 117.787 199.818 118.256 200.369C118.729 200.92 118.965 201.699 118.965 202.707V203.281H114.822C114.865 203.805 115.039 204.219 115.344 204.523C115.652 204.828 116.039 204.98 116.504 204.98C117.156 204.98 117.688 204.717 118.098 204.189L118.865 204.922C118.611 205.301 118.271 205.596 117.846 205.807C117.424 206.014 116.949 206.117 116.422 206.117ZM116.252 200.686C115.861 200.686 115.545 200.822 115.303 201.096C115.064 201.369 114.912 201.75 114.846 202.238H117.559V202.133C117.527 201.656 117.4 201.297 117.178 201.055C116.955 200.809 116.646 200.686 116.252 200.686ZM121.59 206H120.166V197H121.59V206ZM125.938 206.117C125.035 206.117 124.303 205.834 123.74 205.268C123.182 204.697 122.902 203.939 122.902 202.994V202.818C122.902 202.186 123.023 201.621 123.266 201.125C123.512 200.625 123.855 200.236 124.297 199.959C124.738 199.682 125.23 199.543 125.773 199.543C126.637 199.543 127.303 199.818 127.771 200.369C128.244 200.92 128.48 201.699 128.48 202.707V203.281H124.338C124.381 203.805 124.555 204.219 124.859 204.523C125.168 204.828 125.555 204.98 126.02 204.98C126.672 204.98 127.203 204.717 127.613 204.189L128.381 204.922C128.127 205.301 127.787 205.596 127.361 205.807C126.939 206.014 126.465 206.117 125.938 206.117ZM125.768 200.686C125.377 200.686 125.061 200.822 124.818 201.096C124.58 201.369 124.428 201.75 124.361 202.238H127.074V202.133C127.043 201.656 126.916 201.297 126.693 201.055C126.471 200.809 126.162 200.686 125.768 200.686ZM132.195 204.98C132.551 204.98 132.846 204.877 133.08 204.67C133.314 204.463 133.439 204.207 133.455 203.902H134.797C134.781 204.297 134.658 204.666 134.428 205.01C134.197 205.35 133.885 205.619 133.49 205.818C133.096 206.018 132.67 206.117 132.213 206.117C131.326 206.117 130.623 205.83 130.104 205.256C129.584 204.682 129.324 203.889 129.324 202.877V202.73C129.324 201.766 129.582 200.994 130.098 200.416C130.613 199.834 131.316 199.543 132.207 199.543C132.961 199.543 133.574 199.764 134.047 200.205C134.523 200.643 134.773 201.219 134.797 201.934H133.455C133.439 201.57 133.314 201.271 133.08 201.037C132.85 200.803 132.555 200.686 132.195 200.686C131.734 200.686 131.379 200.854 131.129 201.189C130.879 201.521 130.752 202.027 130.748 202.707V202.936C130.748 203.623 130.871 204.137 131.117 204.477C131.367 204.812 131.727 204.98 132.195 204.98ZM137.656 198.119V199.66H138.775V200.715H137.656V204.254C137.656 204.496 137.703 204.672 137.797 204.781C137.895 204.887 138.066 204.939 138.312 204.939C138.477 204.939 138.643 204.92 138.811 204.881V205.982C138.486 206.072 138.174 206.117 137.873 206.117C136.779 206.117 136.232 205.514 136.232 204.307V200.715H135.189V199.66H136.232V198.119H137.656ZM142.66 206.117C141.758 206.117 141.025 205.834 140.463 205.268C139.904 204.697 139.625 203.939 139.625 202.994V202.818C139.625 202.186 139.746 201.621 139.988 201.125C140.234 200.625 140.578 200.236 141.02 199.959C141.461 199.682 141.953 199.543 142.496 199.543C143.359 199.543 144.025 199.818 144.494 200.369C144.967 200.92 145.203 201.699 145.203 202.707V203.281H141.061C141.104 203.805 141.277 204.219 141.582 204.523C141.891 204.828 142.277 204.98 142.742 204.98C143.395 204.98 143.926 204.717 144.336 204.189L145.104 204.922C144.85 205.301 144.51 205.596 144.084 205.807C143.662 206.014 143.188 206.117 142.66 206.117ZM142.49 200.686C142.1 200.686 141.783 200.822 141.541 201.096C141.303 201.369 141.15 201.75 141.084 202.238H143.797V202.133C143.766 201.656 143.639 201.297 143.416 201.055C143.193 200.809 142.885 200.686 142.49 200.686ZM146.047 202.783C146.047 201.807 146.273 201.023 146.727 200.434C147.18 199.84 147.787 199.543 148.549 199.543C149.221 199.543 149.764 199.777 150.178 200.246V197H151.602V206H150.312L150.242 205.344C149.816 205.859 149.248 206.117 148.537 206.117C147.795 206.117 147.193 205.818 146.732 205.221C146.275 204.623 146.047 203.811 146.047 202.783ZM147.471 202.906C147.471 203.551 147.594 204.055 147.84 204.418C148.09 204.777 148.443 204.957 148.9 204.957C149.482 204.957 149.908 204.697 150.178 204.178V201.471C149.916 200.963 149.494 200.709 148.912 200.709C148.451 200.709 148.096 200.893 147.846 201.26C147.596 201.623 147.471 202.172 147.471 202.906ZM157.59 206H156.166V199.66H157.59V206ZM156.078 198.014C156.078 197.795 156.146 197.613 156.283 197.469C156.424 197.324 156.623 197.252 156.881 197.252C157.139 197.252 157.338 197.324 157.479 197.469C157.619 197.613 157.689 197.795 157.689 198.014C157.689 198.229 157.619 198.408 157.479 198.553C157.338 198.693 157.139 198.764 156.881 198.764C156.623 198.764 156.424 198.693 156.283 198.553C156.146 198.408 156.078 198.229 156.078 198.014ZM160.93 198.119V199.66H162.049V200.715H160.93V204.254C160.93 204.496 160.977 204.672 161.07 204.781C161.168 204.887 161.34 204.939 161.586 204.939C161.75 204.939 161.916 204.92 162.084 204.881V205.982C161.76 206.072 161.447 206.117 161.146 206.117C160.053 206.117 159.506 205.514 159.506 204.307V200.715H158.463V199.66H159.506V198.119H160.93ZM165.934 206.117C165.031 206.117 164.299 205.834 163.736 205.268C163.178 204.697 162.898 203.939 162.898 202.994V202.818C162.898 202.186 163.02 201.621 163.262 201.125C163.508 200.625 163.852 200.236 164.293 199.959C164.734 199.682 165.227 199.543 165.77 199.543C166.633 199.543 167.299 199.818 167.768 200.369C168.24 200.92 168.477 201.699 168.477 202.707V203.281H164.334C164.377 203.805 164.551 204.219 164.855 204.523C165.164 204.828 165.551 204.98 166.016 204.98C166.668 204.98 167.199 204.717 167.609 204.189L168.377 204.922C168.123 205.301 167.783 205.596 167.357 205.807C166.936 206.014 166.461 206.117 165.934 206.117ZM165.764 200.686C165.373 200.686 165.057 200.822 164.814 201.096C164.576 201.369 164.424 201.75 164.357 202.238H167.07V202.133C167.039 201.656 166.912 201.297 166.689 201.055C166.467 200.809 166.158 200.686 165.764 200.686ZM170.926 199.66L170.967 200.322C171.412 199.803 172.021 199.543 172.795 199.543C173.643 199.543 174.223 199.867 174.535 200.516C174.996 199.867 175.645 199.543 176.48 199.543C177.18 199.543 177.699 199.736 178.039 200.123C178.383 200.51 178.559 201.08 178.566 201.834V206H177.143V201.875C177.143 201.473 177.055 201.178 176.879 200.99C176.703 200.803 176.412 200.709 176.006 200.709C175.682 200.709 175.416 200.797 175.209 200.973C175.006 201.145 174.863 201.371 174.781 201.652L174.787 206H173.363V201.828C173.344 201.082 172.963 200.709 172.221 200.709C171.65 200.709 171.246 200.941 171.008 201.406V206H169.584V199.66H170.926Z" fill="black"/>
<line x1="320.125" y1="162.484" x2="266.125" y2="176.484" stroke="#EC156F"/>
<path d="M63.2676 197H61.8438V190.66H63.2676V197ZM61.7559 189.014C61.7559 188.795 61.8242 188.613 61.9609 188.469C62.1016 188.324 62.3008 188.252 62.5586 188.252C62.8164 188.252 63.0156 188.324 63.1562 188.469C63.2969 188.613 63.3672 188.795 63.3672 189.014C63.3672 189.229 63.2969 189.408 63.1562 189.553C63.0156 189.693 62.8164 189.764 62.5586 189.764C62.3008 189.764 62.1016 189.693 61.9609 189.553C61.8242 189.408 61.7559 189.229 61.7559 189.014ZM66.6074 189.119V190.66H67.7266V191.715H66.6074V195.254C66.6074 195.496 66.6543 195.672 66.748 195.781C66.8457 195.887 67.0176 195.939 67.2637 195.939C67.4277 195.939 67.5938 195.92 67.7617 195.881V196.982C67.4375 197.072 67.125 197.117 66.8242 197.117C65.7305 197.117 65.1836 196.514 65.1836 195.307V191.715H64.1406V190.66H65.1836V189.119H66.6074ZM71.6113 197.117C70.709 197.117 69.9766 196.834 69.4141 196.268C68.8555 195.697 68.5762 194.939 68.5762 193.994V193.818C68.5762 193.186 68.6973 192.621 68.9395 192.125C69.1855 191.625 69.5293 191.236 69.9707 190.959C70.4121 190.682 70.9043 190.543 71.4473 190.543C72.3105 190.543 72.9766 190.818 73.4453 191.369C73.918 191.92 74.1543 192.699 74.1543 193.707V194.281H70.0117C70.0547 194.805 70.2285 195.219 70.5332 195.523C70.8418 195.828 71.2285 195.98 71.6934 195.98C72.3457 195.98 72.877 195.717 73.2871 195.189L74.0547 195.922C73.8008 196.301 73.4609 196.596 73.0352 196.807C72.6133 197.014 72.1387 197.117 71.6113 197.117ZM71.4414 191.686C71.0508 191.686 70.7344 191.822 70.4922 192.096C70.2539 192.369 70.1016 192.75 70.0352 193.238H72.748V193.133C72.7168 192.656 72.5898 192.297 72.3672 192.055C72.1445 191.809 71.8359 191.686 71.4414 191.686ZM76.6035 190.66L76.6445 191.322C77.0898 190.803 77.6992 190.543 78.4727 190.543C79.3203 190.543 79.9004 190.867 80.2129 191.516C80.6738 190.867 81.3223 190.543 82.1582 190.543C82.8574 190.543 83.377 190.736 83.7168 191.123C84.0605 191.51 84.2363 192.08 84.2441 192.834V197H82.8203V192.875C82.8203 192.473 82.7324 192.178 82.5566 191.99C82.3809 191.803 82.0898 191.709 81.6836 191.709C81.3594 191.709 81.0938 191.797 80.8867 191.973C80.6836 192.145 80.541 192.371 80.459 192.652L80.4648 197H79.041V192.828C79.0215 192.082 78.6406 191.709 77.8984 191.709C77.3281 191.709 76.9238 191.941 76.6855 192.406V197H75.2617V190.66H76.6035Z" fill="black"/>
<line x1="135.259" y1="189.001" x2="135.259" y2="123.996" stroke="#EC156F"/>
<line x1="68.5" y1="151" x2="68.5" y2="181" stroke="#EC156F"/>
</svg>
