<svg width="266" height="110" viewBox="0 0 266 110" fill="none" xmlns="http://www.w3.org/2000/svg">
<rect x="35" y="38" width="100" height="39.5294" rx="4" fill="#3366FF"/>
<path d="M62.1562 61.6471V50.2721H66.0547C67.3411 50.2721 68.3203 50.5299 68.9922 51.0455C69.6641 51.5611 70 52.3294 70 53.3502C70 53.871 69.8594 54.3398 69.5781 54.7564C69.2969 55.1731 68.8854 55.496 68.3438 55.7252C68.9583 55.8919 69.4323 56.207 69.7656 56.6705C70.1042 57.1288 70.2734 57.6809 70.2734 58.3268C70.2734 59.3945 69.9297 60.2148 69.2422 60.7877C68.5599 61.3606 67.5807 61.6471 66.3047 61.6471H62.1562ZM64.1328 56.5143V60.0689H66.3281C66.9479 60.0689 67.4323 59.9153 67.7812 59.608C68.1302 59.3007 68.3047 58.8736 68.3047 58.3268C68.3047 57.1445 67.7005 56.5403 66.4922 56.5143H64.1328ZM64.1328 55.0611H66.0703C66.6849 55.0611 67.1641 54.9231 67.5078 54.6471C67.8568 54.3658 68.0312 53.97 68.0312 53.4596C68.0312 52.8971 67.8698 52.4908 67.5469 52.2408C67.2292 51.9908 66.7318 51.8658 66.0547 51.8658H64.1328V55.0611ZM77.1875 60.8189C76.6302 61.4752 75.8385 61.8033 74.8125 61.8033C73.8958 61.8033 73.2005 61.5351 72.7266 60.9986C72.2578 60.4622 72.0234 59.6861 72.0234 58.6705V53.1939H73.9219V58.6471C73.9219 59.72 74.3672 60.2564 75.2578 60.2564C76.1797 60.2564 76.8021 59.9257 77.125 59.2643V53.1939H79.0234V61.6471H77.2344L77.1875 60.8189ZM83.3359 51.1393V53.1939H84.8281V54.6002H83.3359V59.3189C83.3359 59.6419 83.3984 59.8762 83.5234 60.0221C83.6536 60.1627 83.8828 60.233 84.2109 60.233C84.4297 60.233 84.651 60.207 84.875 60.1549V61.6236C84.4427 61.7434 84.026 61.8033 83.625 61.8033C82.1667 61.8033 81.4375 60.9986 81.4375 59.3893V54.6002H80.0469V53.1939H81.4375V51.1393H83.3359ZM88.6641 51.1393V53.1939H90.1562V54.6002H88.6641V59.3189C88.6641 59.6419 88.7266 59.8762 88.8516 60.0221C88.9818 60.1627 89.2109 60.233 89.5391 60.233C89.7578 60.233 89.9792 60.207 90.2031 60.1549V61.6236C89.7708 61.7434 89.3542 61.8033 88.9531 61.8033C87.4948 61.8033 86.7656 60.9986 86.7656 59.3893V54.6002H85.375V53.1939H86.7656V51.1393H88.6641ZM91.0234 57.3424C91.0234 56.5143 91.1875 55.7695 91.5156 55.108C91.8438 54.4413 92.3047 53.9309 92.8984 53.5768C93.4922 53.2174 94.1745 53.0377 94.9453 53.0377C96.0859 53.0377 97.0104 53.4049 97.7188 54.1393C98.4323 54.8736 98.8177 55.8476 98.875 57.0611L98.8828 57.5064C98.8828 58.3398 98.7214 59.0846 98.3984 59.7408C98.0807 60.3971 97.6224 60.9049 97.0234 61.2643C96.4297 61.6236 95.7422 61.8033 94.9609 61.8033C93.7682 61.8033 92.8125 61.4075 92.0938 60.6158C91.3802 59.8189 91.0234 58.759 91.0234 57.4361V57.3424ZM92.9219 57.5064C92.9219 58.3762 93.1016 59.0585 93.4609 59.5533C93.8203 60.0429 94.3203 60.2877 94.9609 60.2877C95.6016 60.2877 96.099 60.0377 96.4531 59.5377C96.8125 59.0377 96.9922 58.3059 96.9922 57.3424C96.9922 56.4882 96.8073 55.8111 96.4375 55.3111C96.0729 54.8111 95.5755 54.5611 94.9453 54.5611C94.3255 54.5611 93.8333 54.8085 93.4688 55.3033C93.1042 55.7929 92.9219 56.5273 92.9219 57.5064ZM102.25 53.1939L102.305 54.1705C102.93 53.4153 103.75 53.0377 104.766 53.0377C106.526 53.0377 107.422 54.0455 107.453 56.0611V61.6471H105.555V56.1705C105.555 55.634 105.438 55.2382 105.203 54.983C104.974 54.7226 104.596 54.5924 104.07 54.5924C103.305 54.5924 102.734 54.9387 102.359 55.6314V61.6471H100.461V53.1939H102.25Z" fill="white"/>
<path d="M138.5 38C138.5 41.0006 135.852 43.5 132.5 43.5C129.148 43.5 126.5 41.0006 126.5 38C126.5 34.9994 129.148 32.5 132.5 32.5C135.852 32.5 138.5 34.9994 138.5 38Z" stroke="#EC156F"/>
<path d="M42.5 38.5C42.5 41.7489 39.4356 44.5 35.5 44.5C31.5644 44.5 28.5 41.7489 28.5 38.5C28.5 35.2511 31.5644 32.5 35.5 32.5C39.4356 32.5 42.5 35.2511 42.5 38.5Z" stroke="#EC156F"/>
<path d="M153 24C153 25.3807 151.881 26.5 150.5 26.5C149.119 26.5 148 25.3807 148 24C148 22.6193 149.119 21.5 150.5 21.5C151.881 21.5 153 22.6193 153 24Z" fill="#EC156F"/>
<path d="M108 95.5C108 96.8807 106.881 98 105.5 98C104.119 98 103 96.8807 103 95.5C103 94.1193 104.119 93 105.5 93C106.881 93 108 94.1193 108 95.5Z" fill="#EC156F"/>
<path d="M108 64.5C108 65.8807 106.881 67 105.5 67C104.119 67 103 65.8807 103 64.5C103 63.1193 104.119 62 105.5 62C106.881 62 108 63.1193 108 64.5Z" fill="#EC156F"/>
<path d="M25 20.5C25 21.8807 23.8807 23 22.5 23C21.1193 23 20 21.8807 20 20.5C20 19.1193 21.1193 18 22.5 18C23.8807 18 25 19.1193 25 20.5Z" fill="#EC156F"/>
<path d="M90 21.5C90 22.8807 88.8807 24 87.5 24C86.1193 24 85 22.8807 85 21.5C85 20.1193 86.1193 19 87.5 19C88.8807 19 90 20.1193 90 21.5Z" fill="#EC156F"/>
<path d="M90 38.5C90 39.8807 88.8807 41 87.5 41C86.1193 41 85 39.8807 85 38.5C85 37.1193 86.1193 36 87.5 36C88.8807 36 90 37.1193 90 38.5Z" fill="#EC156F"/>
<path d="M163.25 24.8672C163.25 26.1589 162.953 27.1979 162.359 27.9844C161.766 28.7656 160.969 29.1562 159.969 29.1562C158.901 29.1562 158.076 28.7786 157.492 28.0234L157.422 29H156.094V17H157.539V21.4766C158.122 20.7526 158.927 20.3906 159.953 20.3906C160.979 20.3906 161.784 20.7786 162.367 21.5547C162.956 22.3307 163.25 23.3932 163.25 24.7422V24.8672ZM161.805 24.7031C161.805 23.7188 161.615 22.9583 161.234 22.4219C160.854 21.8854 160.307 21.6172 159.594 21.6172C158.641 21.6172 157.956 22.0599 157.539 22.9453V26.6016C157.982 27.487 158.672 27.9297 159.609 27.9297C160.302 27.9297 160.841 27.6615 161.227 27.125C161.612 26.5885 161.805 25.7812 161.805 24.7031ZM164.695 24.6953C164.695 23.8672 164.857 23.1224 165.18 22.4609C165.508 21.7995 165.961 21.2891 166.539 20.9297C167.122 20.5703 167.786 20.3906 168.531 20.3906C169.682 20.3906 170.612 20.7891 171.32 21.5859C172.034 22.3828 172.391 23.4427 172.391 24.7656V24.8672C172.391 25.6901 172.232 26.4297 171.914 27.0859C171.602 27.737 171.151 28.2448 170.562 28.6094C169.979 28.974 169.307 29.1562 168.547 29.1562C167.401 29.1562 166.471 28.7578 165.758 27.9609C165.049 27.1641 164.695 26.1094 164.695 24.7969V24.6953ZM166.148 24.8672C166.148 25.8047 166.365 26.5573 166.797 27.125C167.234 27.6927 167.818 27.9766 168.547 27.9766C169.281 27.9766 169.865 27.6901 170.297 27.1172C170.729 26.5391 170.945 25.7318 170.945 24.6953C170.945 23.7682 170.724 23.0182 170.281 22.4453C169.844 21.8672 169.26 21.5781 168.531 21.5781C167.818 21.5781 167.242 21.862 166.805 22.4297C166.367 22.9974 166.148 23.8099 166.148 24.8672ZM178.289 21.8438C178.07 21.8073 177.833 21.7891 177.578 21.7891C176.63 21.7891 175.987 22.1927 175.648 23V29H174.203V20.5469H175.609L175.633 21.5234C176.107 20.7682 176.779 20.3906 177.648 20.3906C177.93 20.3906 178.143 20.4271 178.289 20.5V21.8438ZM179.117 24.7031C179.117 23.4062 179.424 22.3646 180.039 21.5781C180.654 20.7865 181.458 20.3906 182.453 20.3906C183.443 20.3906 184.227 20.7292 184.805 21.4062V17H186.25V29H184.922L184.852 28.0938C184.273 28.8021 183.469 29.1562 182.438 29.1562C181.458 29.1562 180.659 28.7552 180.039 27.9531C179.424 27.151 179.117 26.1042 179.117 24.8125V24.7031ZM180.562 24.8672C180.562 25.8255 180.76 26.5755 181.156 27.1172C181.552 27.6589 182.099 27.9297 182.797 27.9297C183.714 27.9297 184.383 27.5182 184.805 26.6953V22.8125C184.372 22.0156 183.708 21.6172 182.812 21.6172C182.104 21.6172 181.552 21.8906 181.156 22.4375C180.76 22.9844 180.562 23.7943 180.562 24.8672ZM192.008 29.1562C190.862 29.1562 189.93 28.7812 189.211 28.0312C188.492 27.276 188.133 26.2682 188.133 25.0078V24.7422C188.133 23.9036 188.292 23.1562 188.609 22.5C188.932 21.8385 189.38 21.3229 189.953 20.9531C190.531 20.5781 191.156 20.3906 191.828 20.3906C192.927 20.3906 193.781 20.7526 194.391 21.4766C195 22.2005 195.305 23.237 195.305 24.5859V25.1875H189.578C189.599 26.0208 189.841 26.6953 190.305 27.2109C190.773 27.7214 191.367 27.9766 192.086 27.9766C192.596 27.9766 193.029 27.8724 193.383 27.6641C193.737 27.4557 194.047 27.1797 194.312 26.8359L195.195 27.5234C194.487 28.612 193.424 29.1562 192.008 29.1562ZM191.828 21.5781C191.245 21.5781 190.755 21.7917 190.359 22.2188C189.964 22.6406 189.719 23.2344 189.625 24H193.859V23.8906C193.818 23.1562 193.62 22.5885 193.266 22.1875C192.911 21.7812 192.432 21.5781 191.828 21.5781ZM201.07 21.8438C200.852 21.8073 200.615 21.7891 200.359 21.7891C199.411 21.7891 198.768 22.1927 198.43 23V29H196.984V20.5469H198.391L198.414 21.5234C198.888 20.7682 199.56 20.3906 200.43 20.3906C200.711 20.3906 200.924 20.4271 201.07 20.5V21.8438ZM210.461 21.8438C210.242 21.8073 210.005 21.7891 209.75 21.7891C208.802 21.7891 208.159 22.1927 207.82 23V29H206.375V20.5469H207.781L207.805 21.5234C208.279 20.7682 208.951 20.3906 209.82 20.3906C210.102 20.3906 210.315 20.4271 210.461 20.5V21.8438ZM216.703 29C216.62 28.8333 216.552 28.5365 216.5 28.1094C215.828 28.8073 215.026 29.1562 214.094 29.1562C213.26 29.1562 212.576 28.9219 212.039 28.4531C211.508 27.9792 211.242 27.3802 211.242 26.6562C211.242 25.776 211.576 25.0938 212.242 24.6094C212.914 24.1198 213.857 23.875 215.07 23.875H216.477V23.2109C216.477 22.7057 216.326 22.3047 216.023 22.0078C215.721 21.7057 215.276 21.5547 214.688 21.5547C214.172 21.5547 213.74 21.6849 213.391 21.9453C213.042 22.2057 212.867 22.5208 212.867 22.8906H211.414C211.414 22.4688 211.562 22.0625 211.859 21.6719C212.161 21.276 212.568 20.9635 213.078 20.7344C213.594 20.5052 214.159 20.3906 214.773 20.3906C215.747 20.3906 216.51 20.6354 217.062 21.125C217.615 21.6094 217.901 22.2786 217.922 23.1328V27.0234C217.922 27.7995 218.021 28.4167 218.219 28.875V29H216.703ZM214.305 27.8984C214.758 27.8984 215.188 27.7812 215.594 27.5469C216 27.3125 216.294 27.0078 216.477 26.6328V24.8984H215.344C213.573 24.8984 212.688 25.4167 212.688 26.4531C212.688 26.9062 212.839 27.2604 213.141 27.5156C213.443 27.7708 213.831 27.8984 214.305 27.8984ZM219.836 24.7031C219.836 23.4062 220.143 22.3646 220.758 21.5781C221.372 20.7865 222.177 20.3906 223.172 20.3906C224.161 20.3906 224.945 20.7292 225.523 21.4062V17H226.969V29H225.641L225.57 28.0938C224.992 28.8021 224.188 29.1562 223.156 29.1562C222.177 29.1562 221.378 28.7552 220.758 27.9531C220.143 27.151 219.836 26.1042 219.836 24.8125V24.7031ZM221.281 24.8672C221.281 25.8255 221.479 26.5755 221.875 27.1172C222.271 27.6589 222.818 27.9297 223.516 27.9297C224.432 27.9297 225.102 27.5182 225.523 26.6953V22.8125C225.091 22.0156 224.427 21.6172 223.531 21.6172C222.823 21.6172 222.271 21.8906 221.875 22.4375C221.479 22.9844 221.281 23.7943 221.281 24.8672ZM230.789 29H229.344V20.5469H230.789V29ZM229.227 18.3047C229.227 18.0703 229.297 17.8724 229.438 17.7109C229.583 17.5495 229.797 17.4688 230.078 17.4688C230.359 17.4688 230.573 17.5495 230.719 17.7109C230.865 17.8724 230.938 18.0703 230.938 18.3047C230.938 18.5391 230.865 18.7344 230.719 18.8906C230.573 19.0469 230.359 19.125 230.078 19.125C229.797 19.125 229.583 19.0469 229.438 18.8906C229.297 18.7344 229.227 18.5391 229.227 18.3047ZM238.328 28.1641C237.766 28.8255 236.94 29.1562 235.852 29.1562C234.951 29.1562 234.263 28.8958 233.789 28.375C233.32 27.849 233.083 27.0729 233.078 26.0469V20.5469H234.523V26.0078C234.523 27.2891 235.044 27.9297 236.086 27.9297C237.19 27.9297 237.924 27.5182 238.289 26.6953V20.5469H239.734V29H238.359L238.328 28.1641ZM246.859 26.7578C246.859 26.3672 246.711 26.0651 246.414 25.8516C246.122 25.6328 245.609 25.4453 244.875 25.2891C244.146 25.1328 243.565 24.9453 243.133 24.7266C242.706 24.5078 242.388 24.2474 242.18 23.9453C241.977 23.6432 241.875 23.2839 241.875 22.8672C241.875 22.1745 242.167 21.5885 242.75 21.1094C243.339 20.6302 244.089 20.3906 245 20.3906C245.958 20.3906 246.734 20.638 247.328 21.1328C247.927 21.6276 248.227 22.2604 248.227 23.0312H246.773C246.773 22.6354 246.604 22.2943 246.266 22.0078C245.932 21.7214 245.51 21.5781 245 21.5781C244.474 21.5781 244.062 21.6927 243.766 21.9219C243.469 22.151 243.32 22.4505 243.32 22.8203C243.32 23.1693 243.458 23.4323 243.734 23.6094C244.01 23.7865 244.508 23.9557 245.227 24.1172C245.951 24.2786 246.536 24.4714 246.984 24.6953C247.432 24.9193 247.763 25.1901 247.977 25.5078C248.195 25.8203 248.305 26.2031 248.305 26.6562C248.305 27.4115 248.003 28.0182 247.398 28.4766C246.794 28.9297 246.01 29.1562 245.047 29.1562C244.37 29.1562 243.771 29.0365 243.25 28.7969C242.729 28.5573 242.32 28.224 242.023 27.7969C241.732 27.3646 241.586 26.8984 241.586 26.3984H243.031C243.057 26.8828 243.25 27.2682 243.609 27.5547C243.974 27.8359 244.453 27.9766 245.047 27.9766C245.594 27.9766 246.031 27.8672 246.359 27.6484C246.693 27.4245 246.859 27.1276 246.859 26.7578Z" fill="#615353"/>
<path d="M115.055 90.5V92.5469H116.633V93.6641H115.055V98.9062C115.055 99.2448 115.125 99.5 115.266 99.6719C115.406 99.8385 115.646 99.9219 115.984 99.9219C116.151 99.9219 116.38 99.8906 116.672 99.8281V101C116.292 101.104 115.922 101.156 115.562 101.156C114.917 101.156 114.43 100.961 114.102 100.57C113.773 100.18 113.609 99.625 113.609 98.9062V93.6641H112.07V92.5469H113.609V90.5H115.055ZM121.836 101.156C120.69 101.156 119.758 100.781 119.039 100.031C118.32 99.276 117.961 98.2682 117.961 97.0078V96.7422C117.961 95.9036 118.12 95.1562 118.438 94.5C118.76 93.8385 119.208 93.3229 119.781 92.9531C120.359 92.5781 120.984 92.3906 121.656 92.3906C122.755 92.3906 123.609 92.7526 124.219 93.4766C124.828 94.2005 125.133 95.237 125.133 96.5859V97.1875H119.406C119.427 98.0208 119.669 98.6953 120.133 99.2109C120.602 99.7214 121.195 99.9766 121.914 99.9766C122.424 99.9766 122.857 99.8724 123.211 99.6641C123.565 99.4557 123.875 99.1797 124.141 98.8359L125.023 99.5234C124.315 100.612 123.253 101.156 121.836 101.156ZM121.656 93.5781C121.073 93.5781 120.583 93.7917 120.188 94.2188C119.792 94.6406 119.547 95.2344 119.453 96H123.688V95.8906C123.646 95.1562 123.448 94.5885 123.094 94.1875C122.74 93.7812 122.26 93.5781 121.656 93.5781ZM129.648 95.6328L131.523 92.5469H133.211L130.445 96.7266L133.297 101H131.625L129.672 97.8359L127.719 101H126.039L128.891 96.7266L126.125 92.5469H127.797L129.648 95.6328ZM136.711 90.5V92.5469H138.289V93.6641H136.711V98.9062C136.711 99.2448 136.781 99.5 136.922 99.6719C137.062 99.8385 137.302 99.9219 137.641 99.9219C137.807 99.9219 138.036 99.8906 138.328 99.8281V101C137.948 101.104 137.578 101.156 137.219 101.156C136.573 101.156 136.086 100.961 135.758 100.57C135.43 100.18 135.266 99.625 135.266 98.9062V93.6641H133.727V92.5469H135.266V90.5H136.711Z" fill="#615353"/>
<path d="M93.25 10.8672C93.25 12.1589 92.9531 13.1979 92.3594 13.9844C91.7656 14.7656 90.9688 15.1562 89.9688 15.1562C88.901 15.1562 88.0755 14.7786 87.4922 14.0234L87.4219 15H86.0938V3H87.5391V7.47656C88.1224 6.7526 88.9271 6.39062 89.9531 6.39062C90.9792 6.39062 91.7839 6.77865 92.3672 7.55469C92.9557 8.33073 93.25 9.39323 93.25 10.7422V10.8672ZM91.8047 10.7031C91.8047 9.71875 91.6146 8.95833 91.2344 8.42188C90.8542 7.88542 90.3073 7.61719 89.5938 7.61719C88.6406 7.61719 87.9557 8.0599 87.5391 8.94531V12.6016C87.9818 13.487 88.6719 13.9297 89.6094 13.9297C90.3021 13.9297 90.8411 13.6615 91.2266 13.125C91.612 12.5885 91.8047 11.7812 91.8047 10.7031ZM94.6953 10.6953C94.6953 9.86719 94.8568 9.1224 95.1797 8.46094C95.5078 7.79948 95.9609 7.28906 96.5391 6.92969C97.1224 6.57031 97.7865 6.39062 98.5312 6.39062C99.6823 6.39062 100.612 6.78906 101.32 7.58594C102.034 8.38281 102.391 9.44271 102.391 10.7656V10.8672C102.391 11.6901 102.232 12.4297 101.914 13.0859C101.602 13.737 101.151 14.2448 100.562 14.6094C99.9792 14.974 99.3073 15.1562 98.5469 15.1562C97.401 15.1562 96.4714 14.7578 95.7578 13.9609C95.0495 13.1641 94.6953 12.1094 94.6953 10.7969V10.6953ZM96.1484 10.8672C96.1484 11.8047 96.3646 12.5573 96.7969 13.125C97.2344 13.6927 97.8177 13.9766 98.5469 13.9766C99.2812 13.9766 99.8646 13.6901 100.297 13.1172C100.729 12.5391 100.945 11.7318 100.945 10.6953C100.945 9.76823 100.724 9.01823 100.281 8.44531C99.8438 7.86719 99.2604 7.57812 98.5312 7.57812C97.8177 7.57812 97.2422 7.86198 96.8047 8.42969C96.3672 8.9974 96.1484 9.8099 96.1484 10.8672ZM108.289 7.84375C108.07 7.80729 107.833 7.78906 107.578 7.78906C106.63 7.78906 105.987 8.19271 105.648 9V15H104.203V6.54688H105.609L105.633 7.52344C106.107 6.76823 106.779 6.39062 107.648 6.39062C107.93 6.39062 108.143 6.42708 108.289 6.5V7.84375ZM109.117 10.7031C109.117 9.40625 109.424 8.36458 110.039 7.57812C110.654 6.78646 111.458 6.39062 112.453 6.39062C113.443 6.39062 114.227 6.72917 114.805 7.40625V3H116.25V15H114.922L114.852 14.0938C114.273 14.8021 113.469 15.1562 112.438 15.1562C111.458 15.1562 110.659 14.7552 110.039 13.9531C109.424 13.151 109.117 12.1042 109.117 10.8125V10.7031ZM110.562 10.8672C110.562 11.8255 110.76 12.5755 111.156 13.1172C111.552 13.6589 112.099 13.9297 112.797 13.9297C113.714 13.9297 114.383 13.5182 114.805 12.6953V8.8125C114.372 8.01562 113.708 7.61719 112.812 7.61719C112.104 7.61719 111.552 7.89062 111.156 8.4375C110.76 8.98438 110.562 9.79427 110.562 10.8672ZM122.008 15.1562C120.862 15.1562 119.93 14.7812 119.211 14.0312C118.492 13.276 118.133 12.2682 118.133 11.0078V10.7422C118.133 9.90365 118.292 9.15625 118.609 8.5C118.932 7.83854 119.38 7.32292 119.953 6.95312C120.531 6.57812 121.156 6.39062 121.828 6.39062C122.927 6.39062 123.781 6.7526 124.391 7.47656C125 8.20052 125.305 9.23698 125.305 10.5859V11.1875H119.578C119.599 12.0208 119.841 12.6953 120.305 13.2109C120.773 13.7214 121.367 13.9766 122.086 13.9766C122.596 13.9766 123.029 13.8724 123.383 13.6641C123.737 13.4557 124.047 13.1797 124.312 12.8359L125.195 13.5234C124.487 14.612 123.424 15.1562 122.008 15.1562ZM121.828 7.57812C121.245 7.57812 120.755 7.79167 120.359 8.21875C119.964 8.64062 119.719 9.23438 119.625 10H123.859V9.89062C123.818 9.15625 123.62 8.58854 123.266 8.1875C122.911 7.78125 122.432 7.57812 121.828 7.57812ZM131.07 7.84375C130.852 7.80729 130.615 7.78906 130.359 7.78906C129.411 7.78906 128.768 8.19271 128.43 9V15H126.984V6.54688H128.391L128.414 7.52344C128.888 6.76823 129.56 6.39062 130.43 6.39062C130.711 6.39062 130.924 6.42708 131.07 6.5V7.84375Z" fill="#615353"/>
<path d="M8.23438 10.8672C8.23438 12.1536 7.9401 13.1901 7.35156 13.9766C6.76302 14.763 5.96615 15.1562 4.96094 15.1562C3.9349 15.1562 3.1276 14.8307 2.53906 14.1797V18.25H1.09375V6.54688H2.41406L2.48438 7.48438C3.07292 6.75521 3.89062 6.39062 4.9375 6.39062C5.95312 6.39062 6.75521 6.77344 7.34375 7.53906C7.9375 8.30469 8.23438 9.36979 8.23438 10.7344V10.8672ZM6.78906 10.7031C6.78906 9.75 6.58594 8.9974 6.17969 8.44531C5.77344 7.89323 5.21615 7.61719 4.50781 7.61719C3.63281 7.61719 2.97656 8.00521 2.53906 8.78125V12.8203C2.97135 13.5911 3.63281 13.9766 4.52344 13.9766C5.21615 13.9766 5.76562 13.7031 6.17188 13.1562C6.58333 12.6042 6.78906 11.7865 6.78906 10.7031ZM15.2969 15C15.2135 14.8333 15.1458 14.5365 15.0938 14.1094C14.4219 14.8073 13.6198 15.1562 12.6875 15.1562C11.8542 15.1562 11.1693 14.9219 10.6328 14.4531C10.1016 13.9792 9.83594 13.3802 9.83594 12.6562C9.83594 11.776 10.1693 11.0938 10.8359 10.6094C11.5078 10.1198 12.4505 9.875 13.6641 9.875H15.0703V9.21094C15.0703 8.70573 14.9193 8.30469 14.6172 8.00781C14.3151 7.70573 13.8698 7.55469 13.2812 7.55469C12.7656 7.55469 12.3333 7.6849 11.9844 7.94531C11.6354 8.20573 11.4609 8.52083 11.4609 8.89062H10.0078C10.0078 8.46875 10.1562 8.0625 10.4531 7.67188C10.7552 7.27604 11.1615 6.96354 11.6719 6.73438C12.1875 6.50521 12.7526 6.39062 13.3672 6.39062C14.3411 6.39062 15.1042 6.63542 15.6562 7.125C16.2083 7.60938 16.4948 8.27865 16.5156 9.13281V13.0234C16.5156 13.7995 16.6146 14.4167 16.8125 14.875V15H15.2969ZM12.8984 13.8984C13.3516 13.8984 13.7812 13.7812 14.1875 13.5469C14.5938 13.3125 14.888 13.0078 15.0703 12.6328V10.8984H13.9375C12.1667 10.8984 11.2812 11.4167 11.2812 12.4531C11.2812 12.9062 11.4323 13.2604 11.7344 13.5156C12.0365 13.7708 12.4245 13.8984 12.8984 13.8984ZM18.4297 10.7031C18.4297 9.40625 18.737 8.36458 19.3516 7.57812C19.9661 6.78646 20.7708 6.39062 21.7656 6.39062C22.7552 6.39062 23.5391 6.72917 24.1172 7.40625V3H25.5625V15H24.2344L24.1641 14.0938C23.5859 14.8021 22.7812 15.1562 21.75 15.1562C20.7708 15.1562 19.9714 14.7552 19.3516 13.9531C18.737 13.151 18.4297 12.1042 18.4297 10.8125V10.7031ZM19.875 10.8672C19.875 11.8255 20.0729 12.5755 20.4688 13.1172C20.8646 13.6589 21.4115 13.9297 22.1094 13.9297C23.026 13.9297 23.6953 13.5182 24.1172 12.6953V8.8125C23.6849 8.01562 23.0208 7.61719 22.125 7.61719C21.4167 7.61719 20.8646 7.89062 20.4688 8.4375C20.0729 8.98438 19.875 9.79427 19.875 10.8672ZM27.4609 10.7031C27.4609 9.40625 27.7682 8.36458 28.3828 7.57812C28.9974 6.78646 29.8021 6.39062 30.7969 6.39062C31.7865 6.39062 32.5703 6.72917 33.1484 7.40625V3H34.5938V15H33.2656L33.1953 14.0938C32.6172 14.8021 31.8125 15.1562 30.7812 15.1562C29.8021 15.1562 29.0026 14.7552 28.3828 13.9531C27.7682 13.151 27.4609 12.1042 27.4609 10.8125V10.7031ZM28.9062 10.8672C28.9062 11.8255 29.1042 12.5755 29.5 13.1172C29.8958 13.6589 30.4427 13.9297 31.1406 13.9297C32.0573 13.9297 32.7266 13.5182 33.1484 12.6953V8.8125C32.7161 8.01562 32.0521 7.61719 31.1562 7.61719C30.4479 7.61719 29.8958 7.89062 29.5 8.4375C29.1042 8.98438 28.9062 9.79427 28.9062 10.8672ZM38.4141 15H36.9688V6.54688H38.4141V15ZM36.8516 4.30469C36.8516 4.07031 36.9219 3.8724 37.0625 3.71094C37.2083 3.54948 37.4219 3.46875 37.7031 3.46875C37.9844 3.46875 38.1979 3.54948 38.3438 3.71094C38.4896 3.8724 38.5625 4.07031 38.5625 4.30469C38.5625 4.53906 38.4896 4.73438 38.3438 4.89062C38.1979 5.04688 37.9844 5.125 37.7031 5.125C37.4219 5.125 37.2083 5.04688 37.0625 4.89062C36.9219 4.73438 36.8516 4.53906 36.8516 4.30469ZM42.1016 6.54688L42.1484 7.60938C42.7943 6.79688 43.638 6.39062 44.6797 6.39062C46.4661 6.39062 47.3672 7.39844 47.3828 9.41406V15H45.9375V9.40625C45.9323 8.79688 45.7917 8.34635 45.5156 8.05469C45.2448 7.76302 44.8203 7.61719 44.2422 7.61719C43.7734 7.61719 43.362 7.74219 43.0078 7.99219C42.6536 8.24219 42.3776 8.57031 42.1797 8.97656V15H40.7344V6.54688H42.1016ZM49.2188 10.7031C49.2188 9.38542 49.5234 8.33854 50.1328 7.5625C50.7422 6.78125 51.5495 6.39062 52.5547 6.39062C53.5859 6.39062 54.3906 6.75521 54.9688 7.48438L55.0391 6.54688H56.3594V14.7969C56.3594 15.8906 56.0339 16.7526 55.3828 17.3828C54.737 18.013 53.8672 18.3281 52.7734 18.3281C52.1641 18.3281 51.5677 18.1979 50.9844 17.9375C50.401 17.6771 49.9557 17.3203 49.6484 16.8672L50.3984 16C51.0182 16.7656 51.776 17.1484 52.6719 17.1484C53.375 17.1484 53.9219 16.9505 54.3125 16.5547C54.7083 16.1589 54.9062 15.6016 54.9062 14.8828V14.1562C54.3281 14.8229 53.5391 15.1562 52.5391 15.1562C51.5495 15.1562 50.7474 14.7578 50.1328 13.9609C49.5234 13.1641 49.2188 12.0781 49.2188 10.7031ZM50.6719 10.8672C50.6719 11.8203 50.8672 12.5703 51.2578 13.1172C51.6484 13.6589 52.1953 13.9297 52.8984 13.9297C53.8099 13.9297 54.4792 13.5156 54.9062 12.6875V8.82812C54.4635 8.02083 53.7995 7.61719 52.9141 7.61719C52.2109 7.61719 51.6615 7.89062 51.2656 8.4375C50.8698 8.98438 50.6719 9.79427 50.6719 10.8672ZM63.4688 12.7578C63.4688 12.3672 63.3203 12.0651 63.0234 11.8516C62.7318 11.6328 62.2188 11.4453 61.4844 11.2891C60.7552 11.1328 60.1745 10.9453 59.7422 10.7266C59.3151 10.5078 58.9974 10.2474 58.7891 9.94531C58.5859 9.64323 58.4844 9.28385 58.4844 8.86719C58.4844 8.17448 58.776 7.58854 59.3594 7.10938C59.9479 6.63021 60.6979 6.39062 61.6094 6.39062C62.5677 6.39062 63.3438 6.63802 63.9375 7.13281C64.5365 7.6276 64.8359 8.26042 64.8359 9.03125H63.3828C63.3828 8.63542 63.2135 8.29427 62.875 8.00781C62.5417 7.72135 62.1198 7.57812 61.6094 7.57812C61.0833 7.57812 60.6719 7.69271 60.375 7.92188C60.0781 8.15104 59.9297 8.45052 59.9297 8.82031C59.9297 9.16927 60.0677 9.43229 60.3438 9.60938C60.6198 9.78646 61.1172 9.95573 61.8359 10.1172C62.5599 10.2786 63.1458 10.4714 63.5938 10.6953C64.0417 10.9193 64.3724 11.1901 64.5859 11.5078C64.8047 11.8203 64.9141 12.2031 64.9141 12.6562C64.9141 13.4115 64.612 14.0182 64.0078 14.4766C63.4036 14.9297 62.6198 15.1562 61.6562 15.1562C60.9792 15.1562 60.3802 15.0365 59.8594 14.7969C59.3385 14.5573 58.9297 14.224 58.6328 13.7969C58.3411 13.3646 58.1953 12.8984 58.1953 12.3984H59.6406C59.6667 12.8828 59.8594 13.2682 60.2188 13.5547C60.5833 13.8359 61.0625 13.9766 61.6562 13.9766C62.2031 13.9766 62.6406 13.8672 62.9688 13.6484C63.3021 13.4245 63.4688 13.1276 63.4688 12.7578Z" fill="#615353"/>
<path d="M134.952 33.6606C137.702 25.3477 141.396 24.0068 149.5 23.5889" stroke="#EC156F"/>
<line x1="87.5" y1="20.9853" x2="87.5" y2="38.0147" stroke="#EC156F"/>
<line x1="58.5" y1="28" x2="58.5" y2="38" stroke="#615353" stroke-dasharray="1.1 1.1"/>
<line x1="35.5" y1="28" x2="35.5" y2="40" stroke="#615353" stroke-dasharray="1.1 1.1"/>
<mask maskUnits="userSpaceOnUse" x="0" y="0" width="0" height="0" fill="black">
<rect fill="white" width="0" height="0"/>
</mask>
<path d="M23.8536 39.1464C23.6583 38.9512 23.3417 38.9512 23.1464 39.1464L19.9645 42.3284C19.7692 42.5237 19.7692 42.8403 19.9645 43.0355C20.1597 43.2308 20.4763 43.2308 20.6716 43.0355L23.5 40.2071L26.3284 43.0355C26.5237 43.2308 26.8403 43.2308 27.0355 43.0355C27.2308 42.8403 27.2308 42.5237 27.0355 42.3284L23.8536 39.1464ZM23.1464 50.8536C23.3417 51.0488 23.6583 51.0488 23.8536 50.8536L27.0355 47.6716C27.2308 47.4763 27.2308 47.1597 27.0355 46.9645C26.8403 46.7692 26.5237 46.7692 26.3284 46.9645L23.5 49.7929L20.6716 46.9645C20.4763 46.7692 20.1597 46.7692 19.9645 46.9645C19.7692 47.1597 19.7692 47.4763 19.9645 47.6716L23.1464 50.8536ZM23 39.5V50.5H24V39.5H23Z" fill="#615353" mask="url(#)"/>
<mask maskUnits="userSpaceOnUse" x="0" y="0" width="0" height="0" fill="black">
<rect fill="white" width="0" height="0"/>
</mask>
<path d="M22.8536 64.1464C22.6583 63.9512 22.3417 63.9512 22.1464 64.1464L18.9645 67.3284C18.7692 67.5237 18.7692 67.8403 18.9645 68.0355C19.1597 68.2308 19.4763 68.2308 19.6716 68.0355L22.5 65.2071L25.3284 68.0355C25.5237 68.2308 25.8403 68.2308 26.0355 68.0355C26.2308 67.8403 26.2308 67.5237 26.0355 67.3284L22.8536 64.1464ZM22.1464 75.8536C22.3417 76.0488 22.6583 76.0488 22.8536 75.8536L26.0355 72.6716C26.2308 72.4763 26.2308 72.1597 26.0355 71.9645C25.8403 71.7692 25.5237 71.7692 25.3284 71.9645L22.5 74.7929L19.6716 71.9645C19.4763 71.7692 19.1597 71.7692 18.9645 71.9645C18.7692 72.1597 18.7692 72.4763 18.9645 72.6716L22.1464 75.8536ZM22 64.5V75.5H23V64.5H22Z" fill="#615353" mask="url(#)"/>
<mask maskUnits="userSpaceOnUse" x="0" y="0" width="0" height="0" fill="black">
<rect fill="white" width="0" height="0"/>
</mask>
<path d="M35.1464 27.1464C34.9512 27.3417 34.9512 27.6583 35.1464 27.8536L38.3284 31.0355C38.5237 31.2308 38.8403 31.2308 39.0355 31.0355C39.2308 30.8403 39.2308 30.5237 39.0355 30.3284L36.2071 27.5L39.0355 24.6716C39.2308 24.4763 39.2308 24.1597 39.0355 23.9645C38.8403 23.7692 38.5237 23.7692 38.3284 23.9645L35.1464 27.1464ZM58.8536 27.8536C59.0488 27.6583 59.0488 27.3417 58.8536 27.1464L55.6716 23.9645C55.4763 23.7692 55.1597 23.7692 54.9645 23.9645C54.7692 24.1597 54.7692 24.4763 54.9645 24.6716L57.7929 27.5L54.9645 30.3284C54.7692 30.5237 54.7692 30.8403 54.9645 31.0355C55.1597 31.2308 55.4763 31.2308 55.6716 31.0355L58.8536 27.8536ZM35.5 28H58.5V27H35.5V28Z" fill="#615353" mask="url(#)"/>
<line x1="23" y1="51.5" x2="35" y2="51.5" stroke="#615353" stroke-dasharray="1.1 1.1"/>
<line x1="23" y1="38.5" x2="35" y2="38.5" stroke="#615353" stroke-dasharray="1.1 1.1"/>
<line x1="22" y1="76.5" x2="36" y2="76.5" stroke="#615353" stroke-dasharray="1.1 1.1"/>
<line x1="22" y1="63.5" x2="34" y2="63.5" stroke="#615353" stroke-dasharray="1.1 1.1"/>
<line x1="23.4218" y1="21.7316" x2="30.9596" y2="33.5766" stroke="#EC156F"/>
<line x1="105.5" y1="95.0294" x2="105.5" y2="63.9694" stroke="#EC156F"/>
</svg>
