<svg width="543" height="419" viewBox="0 0 543 419" fill="none" xmlns="http://www.w3.org/2000/svg">
<rect y="32" width="419" height="350" fill="white"/>
<rect x="0.5" y="32.5" width="418" height="349" stroke="black" stroke-opacity="0.15"/>
<line x1="187.5" y1="406" x2="187.5" y2="352" stroke="#EC156F"/>
<path d="M190 353.5C190 354.881 188.881 356 187.5 356C186.119 356 185 354.881 185 353.5C185 352.119 186.119 351 187.5 351C188.881 351 190 352.119 190 353.5Z" fill="#EC156F"/>
<path d="M190 407.5C190 408.881 188.881 410 187.5 410C186.119 410 185 408.881 185 407.5C185 406.119 186.119 405 187.5 405C188.881 405 190 406.119 190 407.5Z" fill="#EC156F"/>
<line x1="432" y1="158.5" x2="337" y2="158.5" stroke="#EC156F"/>
<path d="M437 158.5C437 159.881 435.881 161 434.5 161C433.119 161 432 159.881 432 158.5C432 157.119 433.119 156 434.5 156C435.881 156 437 157.119 437 158.5Z" fill="#EC156F"/>
<path d="M339 158.5C339 159.881 337.881 161 336.5 161C335.119 161 334 159.881 334 158.5C334 157.119 335.119 156 336.5 156C337.881 156 339 157.119 339 158.5Z" fill="#EC156F"/>
<path d="M71 66.5C71 67.8807 69.8807 69 68.5 69C67.1193 69 66 67.8807 66 66.5C66 65.1193 67.1193 64 68.5 64C69.8807 64 71 65.1193 71 66.5Z" fill="#EC156F"/>
<line x1="68.5" y1="65" x2="68.5" y2="11" stroke="#EC156F"/>
<path d="M71 9.5C71 10.8807 69.8807 12 68.5 12C67.1193 12 66 10.8807 66 9.5C66 8.11929 67.1193 7 68.5 7C69.8807 7 71 8.11929 71 9.5Z" fill="#EC156F"/>
<path d="M42.2734 176.891H40.8906V182H39.3906V170.625H40.8906V175.641H42.0625L46.0391 170.625H47.9062L43.5625 176.141L48.2266 182H46.3906L42.2734 176.891ZM54.5938 182C54.5104 181.833 54.4427 181.536 54.3906 181.109C53.7188 181.807 52.9167 182.156 51.9844 182.156C51.151 182.156 50.4661 181.922 49.9297 181.453C49.3984 180.979 49.1328 180.38 49.1328 179.656C49.1328 178.776 49.4661 178.094 50.1328 177.609C50.8047 177.12 51.7474 176.875 52.9609 176.875H54.3672V176.211C54.3672 175.706 54.2161 175.305 53.9141 175.008C53.612 174.706 53.1667 174.555 52.5781 174.555C52.0625 174.555 51.6302 174.685 51.2812 174.945C50.9323 175.206 50.7578 175.521 50.7578 175.891H49.3047C49.3047 175.469 49.4531 175.062 49.75 174.672C50.0521 174.276 50.4583 173.964 50.9688 173.734C51.4844 173.505 52.0495 173.391 52.6641 173.391C53.638 173.391 54.401 173.635 54.9531 174.125C55.5052 174.609 55.7917 175.279 55.8125 176.133V180.023C55.8125 180.799 55.9115 181.417 56.1094 181.875V182H54.5938ZM52.1953 180.898C52.6484 180.898 53.0781 180.781 53.4844 180.547C53.8906 180.312 54.1849 180.008 54.3672 179.633V177.898H53.2344C51.4635 177.898 50.5781 178.417 50.5781 179.453C50.5781 179.906 50.7292 180.26 51.0312 180.516C51.3333 180.771 51.7214 180.898 52.1953 180.898ZM64.2344 174.719H61.3984V182H59.9531V174.719H57.1719V173.547H64.2344V174.719ZM70.7344 182C70.651 181.833 70.5833 181.536 70.5312 181.109C69.8594 181.807 69.0573 182.156 68.125 182.156C67.2917 182.156 66.6068 181.922 66.0703 181.453C65.5391 180.979 65.2734 180.38 65.2734 179.656C65.2734 178.776 65.6068 178.094 66.2734 177.609C66.9453 177.12 67.888 176.875 69.1016 176.875H70.5078V176.211C70.5078 175.706 70.3568 175.305 70.0547 175.008C69.7526 174.706 69.3073 174.555 68.7188 174.555C68.2031 174.555 67.7708 174.685 67.4219 174.945C67.0729 175.206 66.8984 175.521 66.8984 175.891H65.4453C65.4453 175.469 65.5938 175.062 65.8906 174.672C66.1927 174.276 66.599 173.964 67.1094 173.734C67.625 173.505 68.1901 173.391 68.8047 173.391C69.7786 173.391 70.5417 173.635 71.0938 174.125C71.6458 174.609 71.9323 175.279 71.9531 176.133V180.023C71.9531 180.799 72.0521 181.417 72.25 181.875V182H70.7344ZM68.3359 180.898C68.7891 180.898 69.2188 180.781 69.625 180.547C70.0312 180.312 70.3255 180.008 70.5078 179.633V177.898H69.375C67.6042 177.898 66.7188 178.417 66.7188 179.453C66.7188 179.906 66.8698 180.26 67.1719 180.516C67.474 180.771 67.862 180.898 68.3359 180.898ZM81.1484 173.547V182H79.6953V174.742H76.8203L76.6484 177.906C76.5547 179.359 76.3099 180.398 75.9141 181.023C75.5234 181.648 74.901 181.974 74.0469 182H73.4688V180.727L73.8828 180.695C74.3516 180.643 74.6875 180.372 74.8906 179.883C75.0938 179.393 75.224 178.487 75.2812 177.164L75.4375 173.547H81.1484ZM83.0859 177.695C83.0859 176.867 83.2474 176.122 83.5703 175.461C83.8984 174.799 84.3516 174.289 84.9297 173.93C85.513 173.57 86.1771 173.391 86.9219 173.391C88.0729 173.391 89.0026 173.789 89.7109 174.586C90.4245 175.383 90.7812 176.443 90.7812 177.766V177.867C90.7812 178.69 90.6224 179.43 90.3047 180.086C89.9922 180.737 89.5417 181.245 88.9531 181.609C88.3698 181.974 87.6979 182.156 86.9375 182.156C85.7917 182.156 84.862 181.758 84.1484 180.961C83.4401 180.164 83.0859 179.109 83.0859 177.797V177.695ZM84.5391 177.867C84.5391 178.805 84.7552 179.557 85.1875 180.125C85.625 180.693 86.2083 180.977 86.9375 180.977C87.6719 180.977 88.2552 180.69 88.6875 180.117C89.1198 179.539 89.3359 178.732 89.3359 177.695C89.3359 176.768 89.1146 176.018 88.6719 175.445C88.2344 174.867 87.651 174.578 86.9219 174.578C86.2083 174.578 85.6328 174.862 85.1953 175.43C84.7578 175.997 84.5391 176.81 84.5391 177.867ZM98.0547 174.742H94.1562V182H92.7031V173.547H98.0547V174.742ZM102.898 177.695C102.898 176.867 103.06 176.122 103.383 175.461C103.711 174.799 104.164 174.289 104.742 173.93C105.326 173.57 105.99 173.391 106.734 173.391C107.885 173.391 108.815 173.789 109.523 174.586C110.237 175.383 110.594 176.443 110.594 177.766V177.867C110.594 178.69 110.435 179.43 110.117 180.086C109.805 180.737 109.354 181.245 108.766 181.609C108.182 181.974 107.51 182.156 106.75 182.156C105.604 182.156 104.674 181.758 103.961 180.961C103.253 180.164 102.898 179.109 102.898 177.797V177.695ZM104.352 177.867C104.352 178.805 104.568 179.557 105 180.125C105.438 180.693 106.021 180.977 106.75 180.977C107.484 180.977 108.068 180.69 108.5 180.117C108.932 179.539 109.148 178.732 109.148 177.695C109.148 176.768 108.927 176.018 108.484 175.445C108.047 174.867 107.464 174.578 106.734 174.578C106.021 174.578 105.445 174.862 105.008 175.43C104.57 175.997 104.352 176.81 104.352 177.867ZM118.516 174.719H115.68V182H114.234V174.719H111.453V173.547H118.516V174.719ZM122.805 182.156C121.659 182.156 120.727 181.781 120.008 181.031C119.289 180.276 118.93 179.268 118.93 178.008V177.742C118.93 176.904 119.089 176.156 119.406 175.5C119.729 174.839 120.177 174.323 120.75 173.953C121.328 173.578 121.953 173.391 122.625 173.391C123.724 173.391 124.578 173.753 125.188 174.477C125.797 175.201 126.102 176.237 126.102 177.586V178.188H120.375C120.396 179.021 120.638 179.695 121.102 180.211C121.57 180.721 122.164 180.977 122.883 180.977C123.393 180.977 123.826 180.872 124.18 180.664C124.534 180.456 124.844 180.18 125.109 179.836L125.992 180.523C125.284 181.612 124.221 182.156 122.805 182.156ZM122.625 174.578C122.042 174.578 121.552 174.792 121.156 175.219C120.76 175.641 120.516 176.234 120.422 177H124.656V176.891C124.615 176.156 124.417 175.589 124.062 175.188C123.708 174.781 123.229 174.578 122.625 174.578ZM134.164 182H132.711V178.938C132.076 179.104 131.424 179.188 130.758 179.188C129.701 179.188 128.893 178.917 128.336 178.375C127.784 177.833 127.503 177.062 127.492 176.062V173.539H128.938V176.109C128.964 177.37 129.57 178 130.758 178C131.424 178 132.076 177.917 132.711 177.75V173.547H134.164V182ZM139.992 182.156C138.846 182.156 137.914 181.781 137.195 181.031C136.477 180.276 136.117 179.268 136.117 178.008V177.742C136.117 176.904 136.276 176.156 136.594 175.5C136.917 174.839 137.365 174.323 137.938 173.953C138.516 173.578 139.141 173.391 139.812 173.391C140.911 173.391 141.766 173.753 142.375 174.477C142.984 175.201 143.289 176.237 143.289 177.586V178.188H137.562C137.583 179.021 137.826 179.695 138.289 180.211C138.758 180.721 139.352 180.977 140.07 180.977C140.581 180.977 141.013 180.872 141.367 180.664C141.721 180.456 142.031 180.18 142.297 179.836L143.18 180.523C142.471 181.612 141.409 182.156 139.992 182.156ZM139.812 174.578C139.229 174.578 138.74 174.792 138.344 175.219C137.948 175.641 137.703 176.234 137.609 177H141.844V176.891C141.802 176.156 141.604 175.589 141.25 175.188C140.896 174.781 140.417 174.578 139.812 174.578ZM148.359 180.977C148.875 180.977 149.326 180.82 149.711 180.508C150.096 180.195 150.31 179.805 150.352 179.336H151.719C151.693 179.82 151.526 180.281 151.219 180.719C150.911 181.156 150.5 181.505 149.984 181.766C149.474 182.026 148.932 182.156 148.359 182.156C147.208 182.156 146.292 181.773 145.609 181.008C144.932 180.237 144.594 179.185 144.594 177.852V177.609C144.594 176.786 144.745 176.055 145.047 175.414C145.349 174.773 145.781 174.276 146.344 173.922C146.911 173.568 147.581 173.391 148.352 173.391C149.299 173.391 150.086 173.674 150.711 174.242C151.341 174.81 151.677 175.547 151.719 176.453H150.352C150.31 175.906 150.102 175.458 149.727 175.109C149.357 174.755 148.898 174.578 148.352 174.578C147.617 174.578 147.047 174.844 146.641 175.375C146.24 175.901 146.039 176.664 146.039 177.664V177.938C146.039 178.911 146.24 179.661 146.641 180.188C147.042 180.714 147.615 180.977 148.359 180.977ZM159.625 174.719H156.789V182H155.344V174.719H152.562V173.547H159.625V174.719ZM161.164 182V173.547H164.461C165.586 173.547 166.448 173.745 167.047 174.141C167.651 174.531 167.953 175.107 167.953 175.867C167.953 176.258 167.836 176.612 167.602 176.93C167.367 177.242 167.021 177.482 166.562 177.648C167.073 177.768 167.482 178.003 167.789 178.352C168.102 178.701 168.258 179.117 168.258 179.602C168.258 180.378 167.971 180.971 167.398 181.383C166.831 181.794 166.026 182 164.984 182H161.164ZM162.609 178.289V180.836H165C165.604 180.836 166.055 180.724 166.352 180.5C166.654 180.276 166.805 179.961 166.805 179.555C166.805 178.711 166.185 178.289 164.945 178.289H162.609ZM162.609 177.133H164.477C165.831 177.133 166.508 176.737 166.508 175.945C166.508 175.154 165.867 174.745 164.586 174.719H162.609V177.133ZM173.68 182.156C172.534 182.156 171.602 181.781 170.883 181.031C170.164 180.276 169.805 179.268 169.805 178.008V177.742C169.805 176.904 169.964 176.156 170.281 175.5C170.604 174.839 171.052 174.323 171.625 173.953C172.203 173.578 172.828 173.391 173.5 173.391C174.599 173.391 175.453 173.753 176.062 174.477C176.672 175.201 176.977 176.237 176.977 177.586V178.188H171.25C171.271 179.021 171.513 179.695 171.977 180.211C172.445 180.721 173.039 180.977 173.758 180.977C174.268 180.977 174.701 180.872 175.055 180.664C175.409 180.456 175.719 180.18 175.984 179.836L176.867 180.523C176.159 181.612 175.096 182.156 173.68 182.156ZM173.5 174.578C172.917 174.578 172.427 174.792 172.031 175.219C171.635 175.641 171.391 176.234 171.297 177H175.531V176.891C175.49 176.156 175.292 175.589 174.938 175.188C174.583 174.781 174.104 174.578 173.5 174.578ZM185.562 182H184.117V178.391H180.234V182H178.781V173.547H180.234V177.211H184.117V173.547H185.562V182ZM194.797 182H193.352V178.391H189.469V182H188.016V173.547H189.469V177.211H193.352V173.547H194.797V182ZM198.703 176.461H200.898C201.857 176.471 202.615 176.721 203.172 177.211C203.729 177.701 204.008 178.365 204.008 179.203C204.008 180.047 203.721 180.724 203.148 181.234C202.576 181.745 201.805 182 200.836 182H197.258V173.547H198.703V176.461ZM207.023 182H205.57V173.547H207.023V182ZM198.703 177.641V180.82H200.852C201.393 180.82 201.812 180.682 202.109 180.406C202.406 180.125 202.555 179.742 202.555 179.258C202.555 178.789 202.409 178.406 202.117 178.109C201.831 177.807 201.427 177.651 200.906 177.641H198.703ZM212.383 176.633L214.258 173.547H215.945L213.18 177.727L216.031 182H214.359L212.406 178.836L210.453 182H208.773L211.625 177.727L208.859 173.547H210.531L212.383 176.633ZM224.086 178.398H223.031V182H221.578V173.547H223.031V177.125H223.977L226.82 173.547H228.57L225.227 177.609L228.852 182H227.016L224.086 178.398ZM229.539 177.695C229.539 176.867 229.701 176.122 230.023 175.461C230.352 174.799 230.805 174.289 231.383 173.93C231.966 173.57 232.63 173.391 233.375 173.391C234.526 173.391 235.456 173.789 236.164 174.586C236.878 175.383 237.234 176.443 237.234 177.766V177.867C237.234 178.69 237.076 179.43 236.758 180.086C236.445 180.737 235.995 181.245 235.406 181.609C234.823 181.974 234.151 182.156 233.391 182.156C232.245 182.156 231.315 181.758 230.602 180.961C229.893 180.164 229.539 179.109 229.539 177.797V177.695ZM230.992 177.867C230.992 178.805 231.208 179.557 231.641 180.125C232.078 180.693 232.661 180.977 233.391 180.977C234.125 180.977 234.708 180.69 235.141 180.117C235.573 179.539 235.789 178.732 235.789 177.695C235.789 176.768 235.568 176.018 235.125 175.445C234.688 174.867 234.104 174.578 233.375 174.578C232.661 174.578 232.086 174.862 231.648 175.43C231.211 175.997 230.992 176.81 230.992 177.867ZM243.914 180.086L246.789 173.547H248.594V182H247.148V175.852L244.414 182H243.414L240.625 175.719V182H239.18V173.547H241.055L243.914 180.086ZM257.836 182H256.391V174.742H252.5V182H251.047V173.547H257.836V182ZM259.773 177.695C259.773 176.867 259.935 176.122 260.258 175.461C260.586 174.799 261.039 174.289 261.617 173.93C262.201 173.57 262.865 173.391 263.609 173.391C264.76 173.391 265.69 173.789 266.398 174.586C267.112 175.383 267.469 176.443 267.469 177.766V177.867C267.469 178.69 267.31 179.43 266.992 180.086C266.68 180.737 266.229 181.245 265.641 181.609C265.057 181.974 264.385 182.156 263.625 182.156C262.479 182.156 261.549 181.758 260.836 180.961C260.128 180.164 259.773 179.109 259.773 177.797V177.695ZM261.227 177.867C261.227 178.805 261.443 179.557 261.875 180.125C262.312 180.693 262.896 180.977 263.625 180.977C264.359 180.977 264.943 180.69 265.375 180.117C265.807 179.539 266.023 178.732 266.023 177.695C266.023 176.768 265.802 176.018 265.359 175.445C264.922 174.867 264.339 174.578 263.609 174.578C262.896 174.578 262.32 174.862 261.883 175.43C261.445 175.997 261.227 176.81 261.227 177.867ZM276.188 182H274.742V178.391H270.859V182H269.406V173.547H270.859V177.211H274.742V173.547H276.188V182ZM282.023 182.156C280.878 182.156 279.945 181.781 279.227 181.031C278.508 180.276 278.148 179.268 278.148 178.008V177.742C278.148 176.904 278.307 176.156 278.625 175.5C278.948 174.839 279.396 174.323 279.969 173.953C280.547 173.578 281.172 173.391 281.844 173.391C282.943 173.391 283.797 173.753 284.406 174.477C285.016 175.201 285.32 176.237 285.32 177.586V178.188H279.594C279.615 179.021 279.857 179.695 280.32 180.211C280.789 180.721 281.383 180.977 282.102 180.977C282.612 180.977 283.044 180.872 283.398 180.664C283.753 180.456 284.062 180.18 284.328 179.836L285.211 180.523C284.503 181.612 283.44 182.156 282.023 182.156ZM281.844 174.578C281.26 174.578 280.771 174.792 280.375 175.219C279.979 175.641 279.734 176.234 279.641 177H283.875V176.891C283.833 176.156 283.635 175.589 283.281 175.188C282.927 174.781 282.448 174.578 281.844 174.578ZM293.906 182H292.461V178.391H288.578V182H287.125V173.547H288.578V177.211H292.461V173.547H293.906V182ZM302.516 174.719H299.68V182H298.234V174.719H295.453V173.547H302.516V174.719ZM310.828 182H309.383V178.391H305.5V182H304.047V173.547H305.5V177.211H309.383V173.547H310.828V182ZM314.734 176.461H316.93C317.888 176.471 318.646 176.721 319.203 177.211C319.76 177.701 320.039 178.365 320.039 179.203C320.039 180.047 319.753 180.724 319.18 181.234C318.607 181.745 317.836 182 316.867 182H313.289V173.547H314.734V176.461ZM323.055 182H321.602V173.547H323.055V182ZM314.734 177.641V180.82H316.883C317.424 180.82 317.844 180.682 318.141 180.406C318.438 180.125 318.586 179.742 318.586 179.258C318.586 178.789 318.44 178.406 318.148 178.109C317.862 177.807 317.458 177.651 316.938 177.641H314.734ZM328.414 176.633L330.289 173.547H331.977L329.211 177.727L332.062 182H330.391L328.438 178.836L326.484 182H324.805L327.656 177.727L324.891 173.547H326.562L328.414 176.633ZM39.0234 199.82L39.5234 199.203C40.0859 198.474 40.4062 197.38 40.4844 195.922L40.6172 192.547H46.0625V199.82H47.1484V203.484H45.7031V201H39.8047V203.484H38.3594L38.3672 199.82H39.0234ZM40.7344 199.82H44.6172V193.883H42.0156L41.9297 195.898C41.8411 197.581 41.4427 198.888 40.7344 199.82ZM54.2188 192.547H55.6641V201H54.2188V194.836L50.3203 201H48.875V192.547H50.3203V198.719L54.2188 192.547ZM62.6328 194.859C62.6328 194.464 62.4818 194.151 62.1797 193.922C61.8776 193.688 61.4635 193.57 60.9375 193.57C60.4271 193.57 60 193.703 59.6562 193.969C59.3177 194.234 59.1484 194.547 59.1484 194.906H57.7109C57.7109 194.172 58.0182 193.57 58.6328 193.102C59.2474 192.633 60.0156 192.398 60.9375 192.398C61.9271 192.398 62.6979 192.612 63.25 193.039C63.8021 193.461 64.0781 194.065 64.0781 194.852C64.0781 195.232 63.9635 195.581 63.7344 195.898C63.5052 196.216 63.1797 196.469 62.7578 196.656C63.7422 196.99 64.2344 197.646 64.2344 198.625C64.2344 199.401 63.9349 200.016 63.3359 200.469C62.737 200.922 61.9375 201.148 60.9375 201.148C59.9635 201.148 59.1589 200.911 58.5234 200.438C57.8932 199.958 57.5781 199.312 57.5781 198.5H59.0156C59.0156 198.911 59.1979 199.266 59.5625 199.562C59.9323 199.854 60.3906 200 60.9375 200C61.4896 200 61.9349 199.872 62.2734 199.617C62.612 199.362 62.7812 199.031 62.7812 198.625C62.7812 198.151 62.638 197.812 62.3516 197.609C62.0703 197.401 61.6302 197.297 61.0312 197.297H59.5859V196.078H61.1562C62.1406 196.052 62.6328 195.646 62.6328 194.859ZM71.3281 201C71.2448 200.833 71.1771 200.536 71.125 200.109C70.4531 200.807 69.651 201.156 68.7188 201.156C67.8854 201.156 67.2005 200.922 66.6641 200.453C66.1328 199.979 65.8672 199.38 65.8672 198.656C65.8672 197.776 66.2005 197.094 66.8672 196.609C67.5391 196.12 68.4818 195.875 69.6953 195.875H71.1016V195.211C71.1016 194.706 70.9505 194.305 70.6484 194.008C70.3464 193.706 69.901 193.555 69.3125 193.555C68.7969 193.555 68.3646 193.685 68.0156 193.945C67.6667 194.206 67.4922 194.521 67.4922 194.891H66.0391C66.0391 194.469 66.1875 194.062 66.4844 193.672C66.7865 193.276 67.1927 192.964 67.7031 192.734C68.2188 192.505 68.7839 192.391 69.3984 192.391C70.3724 192.391 71.1354 192.635 71.6875 193.125C72.2396 193.609 72.526 194.279 72.5469 195.133V199.023C72.5469 199.799 72.6458 200.417 72.8438 200.875V201H71.3281ZM68.9297 199.898C69.3828 199.898 69.8125 199.781 70.2188 199.547C70.625 199.312 70.9193 199.008 71.1016 198.633V196.898H69.9688C68.1979 196.898 67.3125 197.417 67.3125 198.453C67.3125 198.906 67.4635 199.26 67.7656 199.516C68.0677 199.771 68.4557 199.898 68.9297 199.898ZM80.2812 192.547H81.7266V201H80.2812V194.836L76.3828 201H74.9375V192.547H76.3828V198.719L80.2812 192.547ZM80.6719 189.469C80.6719 190.099 80.4557 190.607 80.0234 190.992C79.5964 191.372 79.0339 191.562 78.3359 191.562C77.638 191.562 77.0729 191.37 76.6406 190.984C76.2083 190.599 75.9922 190.094 75.9922 189.469H77.1719C77.1719 189.833 77.2708 190.12 77.4688 190.328C77.6667 190.531 77.9557 190.633 78.3359 190.633C78.7005 190.633 78.9844 190.531 79.1875 190.328C79.3958 190.125 79.5 189.839 79.5 189.469H80.6719ZM90.9531 201H89.5078V197.391H85.625V201H84.1719V192.547H85.625V196.211H89.5078V192.547H90.9531V201ZM96.2891 196.758H92.4766V195.578H96.2891V196.758ZM101.094 199.977C101.609 199.977 102.06 199.82 102.445 199.508C102.831 199.195 103.044 198.805 103.086 198.336H104.453C104.427 198.82 104.26 199.281 103.953 199.719C103.646 200.156 103.234 200.505 102.719 200.766C102.208 201.026 101.667 201.156 101.094 201.156C99.9427 201.156 99.026 200.773 98.3438 200.008C97.6667 199.237 97.3281 198.185 97.3281 196.852V196.609C97.3281 195.786 97.4792 195.055 97.7812 194.414C98.0833 193.773 98.5156 193.276 99.0781 192.922C99.6458 192.568 100.315 192.391 101.086 192.391C102.034 192.391 102.82 192.674 103.445 193.242C104.076 193.81 104.411 194.547 104.453 195.453H103.086C103.044 194.906 102.836 194.458 102.461 194.109C102.091 193.755 101.633 193.578 101.086 193.578C100.352 193.578 99.7812 193.844 99.375 194.375C98.974 194.901 98.7734 195.664 98.7734 196.664V196.938C98.7734 197.911 98.974 198.661 99.375 199.188C99.776 199.714 100.349 199.977 101.094 199.977ZM111.547 192.547H112.992V201H111.547V194.836L107.648 201H106.203V192.547H107.648V198.719L111.547 192.547ZM118.703 199.977C119.219 199.977 119.669 199.82 120.055 199.508C120.44 199.195 120.654 198.805 120.695 198.336H122.062C122.036 198.82 121.87 199.281 121.562 199.719C121.255 200.156 120.844 200.505 120.328 200.766C119.818 201.026 119.276 201.156 118.703 201.156C117.552 201.156 116.635 200.773 115.953 200.008C115.276 199.237 114.938 198.185 114.938 196.852V196.609C114.938 195.786 115.089 195.055 115.391 194.414C115.693 193.773 116.125 193.276 116.688 192.922C117.255 192.568 117.924 192.391 118.695 192.391C119.643 192.391 120.43 192.674 121.055 193.242C121.685 193.81 122.021 194.547 122.062 195.453H120.695C120.654 194.906 120.445 194.458 120.07 194.109C119.701 193.755 119.242 193.578 118.695 193.578C117.961 193.578 117.391 193.844 116.984 194.375C116.583 194.901 116.383 195.664 116.383 196.664V196.938C116.383 197.911 116.583 198.661 116.984 199.188C117.385 199.714 117.958 199.977 118.703 199.977ZM129.969 193.719H127.133V201H125.688V193.719H122.906V192.547H129.969V193.719ZM134.258 201.156C133.112 201.156 132.18 200.781 131.461 200.031C130.742 199.276 130.383 198.268 130.383 197.008V196.742C130.383 195.904 130.542 195.156 130.859 194.5C131.182 193.839 131.63 193.323 132.203 192.953C132.781 192.578 133.406 192.391 134.078 192.391C135.177 192.391 136.031 192.753 136.641 193.477C137.25 194.201 137.555 195.237 137.555 196.586V197.188H131.828C131.849 198.021 132.091 198.695 132.555 199.211C133.023 199.721 133.617 199.977 134.336 199.977C134.846 199.977 135.279 199.872 135.633 199.664C135.987 199.456 136.297 199.18 136.562 198.836L137.445 199.523C136.737 200.612 135.674 201.156 134.258 201.156ZM134.078 193.578C133.495 193.578 133.005 193.792 132.609 194.219C132.214 194.641 131.969 195.234 131.875 196H136.109V195.891C136.068 195.156 135.87 194.589 135.516 194.188C135.161 193.781 134.682 193.578 134.078 193.578ZM144.102 199.086L146.977 192.547H148.781V201H147.336V194.852L144.602 201H143.602L140.812 194.719V201H139.367V192.547H141.242L144.102 199.086ZM151.062 203.266L150.242 202.703C150.732 202.021 150.987 201.318 151.008 200.594V199.289H152.422V200.422C152.422 200.948 152.292 201.474 152.031 202C151.776 202.526 151.453 202.948 151.062 203.266ZM165.359 196.867C165.359 198.154 165.065 199.19 164.477 199.977C163.888 200.763 163.091 201.156 162.086 201.156C161.06 201.156 160.253 200.831 159.664 200.18V204.25H158.219V192.547H159.539L159.609 193.484C160.198 192.755 161.016 192.391 162.062 192.391C163.078 192.391 163.88 192.773 164.469 193.539C165.062 194.305 165.359 195.37 165.359 196.734V196.867ZM163.914 196.703C163.914 195.75 163.711 194.997 163.305 194.445C162.898 193.893 162.341 193.617 161.633 193.617C160.758 193.617 160.102 194.005 159.664 194.781V198.82C160.096 199.591 160.758 199.977 161.648 199.977C162.341 199.977 162.891 199.703 163.297 199.156C163.708 198.604 163.914 197.786 163.914 196.703ZM170.711 201.156C169.565 201.156 168.633 200.781 167.914 200.031C167.195 199.276 166.836 198.268 166.836 197.008V196.742C166.836 195.904 166.995 195.156 167.312 194.5C167.635 193.839 168.083 193.323 168.656 192.953C169.234 192.578 169.859 192.391 170.531 192.391C171.63 192.391 172.484 192.753 173.094 193.477C173.703 194.201 174.008 195.237 174.008 196.586V197.188H168.281C168.302 198.021 168.544 198.695 169.008 199.211C169.477 199.721 170.07 199.977 170.789 199.977C171.299 199.977 171.732 199.872 172.086 199.664C172.44 199.456 172.75 199.18 173.016 198.836L173.898 199.523C173.19 200.612 172.128 201.156 170.711 201.156ZM170.531 193.578C169.948 193.578 169.458 193.792 169.062 194.219C168.667 194.641 168.422 195.234 168.328 196H172.562V195.891C172.521 195.156 172.323 194.589 171.969 194.188C171.615 193.781 171.135 193.578 170.531 193.578ZM180.906 201C180.823 200.833 180.755 200.536 180.703 200.109C180.031 200.807 179.229 201.156 178.297 201.156C177.464 201.156 176.779 200.922 176.242 200.453C175.711 199.979 175.445 199.38 175.445 198.656C175.445 197.776 175.779 197.094 176.445 196.609C177.117 196.12 178.06 195.875 179.273 195.875H180.68V195.211C180.68 194.706 180.529 194.305 180.227 194.008C179.924 193.706 179.479 193.555 178.891 193.555C178.375 193.555 177.943 193.685 177.594 193.945C177.245 194.206 177.07 194.521 177.07 194.891H175.617C175.617 194.469 175.766 194.062 176.062 193.672C176.365 193.276 176.771 192.964 177.281 192.734C177.797 192.505 178.362 192.391 178.977 192.391C179.951 192.391 180.714 192.635 181.266 193.125C181.818 193.609 182.104 194.279 182.125 195.133V199.023C182.125 199.799 182.224 200.417 182.422 200.875V201H180.906ZM178.508 199.898C178.961 199.898 179.391 199.781 179.797 199.547C180.203 199.312 180.497 199.008 180.68 198.633V196.898H179.547C177.776 196.898 176.891 197.417 176.891 198.453C176.891 198.906 177.042 199.26 177.344 199.516C177.646 199.771 178.034 199.898 178.508 199.898ZM191.32 192.547V201H189.867V193.742H186.992L186.82 196.906C186.727 198.359 186.482 199.398 186.086 200.023C185.695 200.648 185.073 200.974 184.219 201H183.641V199.727L184.055 199.695C184.523 199.643 184.859 199.372 185.062 198.883C185.266 198.393 185.396 197.487 185.453 196.164L185.609 192.547H191.32ZM199.109 192.547H200.555V201H199.109V194.836L195.211 201H193.766V192.547H195.211V198.719L199.109 192.547ZM207.523 194.859C207.523 194.464 207.372 194.151 207.07 193.922C206.768 193.688 206.354 193.57 205.828 193.57C205.318 193.57 204.891 193.703 204.547 193.969C204.208 194.234 204.039 194.547 204.039 194.906H202.602C202.602 194.172 202.909 193.57 203.523 193.102C204.138 192.633 204.906 192.398 205.828 192.398C206.818 192.398 207.589 192.612 208.141 193.039C208.693 193.461 208.969 194.065 208.969 194.852C208.969 195.232 208.854 195.581 208.625 195.898C208.396 196.216 208.07 196.469 207.648 196.656C208.633 196.99 209.125 197.646 209.125 198.625C209.125 199.401 208.826 200.016 208.227 200.469C207.628 200.922 206.828 201.148 205.828 201.148C204.854 201.148 204.049 200.911 203.414 200.438C202.784 199.958 202.469 199.312 202.469 198.5H203.906C203.906 198.911 204.089 199.266 204.453 199.562C204.823 199.854 205.281 200 205.828 200C206.38 200 206.826 199.872 207.164 199.617C207.503 199.362 207.672 199.031 207.672 198.625C207.672 198.151 207.529 197.812 207.242 197.609C206.961 197.401 206.521 197.297 205.922 197.297H204.477V196.078H206.047C207.031 196.052 207.523 195.646 207.523 194.859ZM210.617 196.695C210.617 195.867 210.779 195.122 211.102 194.461C211.43 193.799 211.883 193.289 212.461 192.93C213.044 192.57 213.708 192.391 214.453 192.391C215.604 192.391 216.534 192.789 217.242 193.586C217.956 194.383 218.312 195.443 218.312 196.766V196.867C218.312 197.69 218.154 198.43 217.836 199.086C217.523 199.737 217.073 200.245 216.484 200.609C215.901 200.974 215.229 201.156 214.469 201.156C213.323 201.156 212.393 200.758 211.68 199.961C210.971 199.164 210.617 198.109 210.617 196.797V196.695ZM212.07 196.867C212.07 197.805 212.286 198.557 212.719 199.125C213.156 199.693 213.74 199.977 214.469 199.977C215.203 199.977 215.786 199.69 216.219 199.117C216.651 198.539 216.867 197.732 216.867 196.695C216.867 195.768 216.646 195.018 216.203 194.445C215.766 193.867 215.182 193.578 214.453 193.578C213.74 193.578 213.164 193.862 212.727 194.43C212.289 194.997 212.07 195.81 212.07 196.867ZM220.258 201V192.547H223.555C224.68 192.547 225.542 192.745 226.141 193.141C226.745 193.531 227.047 194.107 227.047 194.867C227.047 195.258 226.93 195.612 226.695 195.93C226.461 196.242 226.115 196.482 225.656 196.648C226.167 196.768 226.576 197.003 226.883 197.352C227.195 197.701 227.352 198.117 227.352 198.602C227.352 199.378 227.065 199.971 226.492 200.383C225.924 200.794 225.12 201 224.078 201H220.258ZM221.703 197.289V199.836H224.094C224.698 199.836 225.148 199.724 225.445 199.5C225.747 199.276 225.898 198.961 225.898 198.555C225.898 197.711 225.279 197.289 224.039 197.289H221.703ZM221.703 196.133H223.57C224.924 196.133 225.602 195.737 225.602 194.945C225.602 194.154 224.961 193.745 223.68 193.719H221.703V196.133ZM234.484 201C234.401 200.833 234.333 200.536 234.281 200.109C233.609 200.807 232.807 201.156 231.875 201.156C231.042 201.156 230.357 200.922 229.82 200.453C229.289 199.979 229.023 199.38 229.023 198.656C229.023 197.776 229.357 197.094 230.023 196.609C230.695 196.12 231.638 195.875 232.852 195.875H234.258V195.211C234.258 194.706 234.107 194.305 233.805 194.008C233.503 193.706 233.057 193.555 232.469 193.555C231.953 193.555 231.521 193.685 231.172 193.945C230.823 194.206 230.648 194.521 230.648 194.891H229.195C229.195 194.469 229.344 194.062 229.641 193.672C229.943 193.276 230.349 192.964 230.859 192.734C231.375 192.505 231.94 192.391 232.555 192.391C233.529 192.391 234.292 192.635 234.844 193.125C235.396 193.609 235.682 194.279 235.703 195.133V199.023C235.703 199.799 235.802 200.417 236 200.875V201H234.484ZM232.086 199.898C232.539 199.898 232.969 199.781 233.375 199.547C233.781 199.312 234.076 199.008 234.258 198.633V196.898H233.125C231.354 196.898 230.469 197.417 230.469 198.453C230.469 198.906 230.62 199.26 230.922 199.516C231.224 199.771 231.612 199.898 232.086 199.898ZM244.875 201H243.43V197.391H239.547V201H238.094V192.547H239.547V196.211H243.43V192.547H244.875V201ZM254.109 201H252.664V197.391H248.781V201H247.328V192.547H248.781V196.211H252.664V192.547H254.109V201ZM258.016 195.461H260.211C261.169 195.471 261.927 195.721 262.484 196.211C263.042 196.701 263.32 197.365 263.32 198.203C263.32 199.047 263.034 199.724 262.461 200.234C261.888 200.745 261.117 201 260.148 201H256.57V192.547H258.016V195.461ZM266.336 201H264.883V192.547H266.336V201ZM258.016 196.641V199.82H260.164C260.706 199.82 261.125 199.682 261.422 199.406C261.719 199.125 261.867 198.742 261.867 198.258C261.867 197.789 261.721 197.406 261.43 197.109C261.143 196.807 260.74 196.651 260.219 196.641H258.016ZM271.695 195.633L273.57 192.547H275.258L272.492 196.727L275.344 201H273.672L271.719 197.836L269.766 201H268.086L270.938 196.727L268.172 192.547H269.844L271.695 195.633ZM287.672 201H286.227V197.391H282.344V201H280.891V192.547H282.344V196.211H286.227V192.547H287.672V201ZM295.219 201C295.135 200.833 295.068 200.536 295.016 200.109C294.344 200.807 293.542 201.156 292.609 201.156C291.776 201.156 291.091 200.922 290.555 200.453C290.023 199.979 289.758 199.38 289.758 198.656C289.758 197.776 290.091 197.094 290.758 196.609C291.43 196.12 292.372 195.875 293.586 195.875H294.992V195.211C294.992 194.706 294.841 194.305 294.539 194.008C294.237 193.706 293.792 193.555 293.203 193.555C292.688 193.555 292.255 193.685 291.906 193.945C291.557 194.206 291.383 194.521 291.383 194.891H289.93C289.93 194.469 290.078 194.062 290.375 193.672C290.677 193.276 291.083 192.964 291.594 192.734C292.109 192.505 292.674 192.391 293.289 192.391C294.263 192.391 295.026 192.635 295.578 193.125C296.13 193.609 296.417 194.279 296.438 195.133V199.023C296.438 199.799 296.536 200.417 296.734 200.875V201H295.219ZM292.82 199.898C293.273 199.898 293.703 199.781 294.109 199.547C294.516 199.312 294.81 199.008 294.992 198.633V196.898H293.859C292.089 196.898 291.203 197.417 291.203 198.453C291.203 198.906 291.354 199.26 291.656 199.516C291.958 199.771 292.346 199.898 292.82 199.898ZM45.375 212.719H42.5391V220H41.0938V212.719H38.3125V211.547H45.375V212.719ZM49.6641 220.156C48.5182 220.156 47.5859 219.781 46.8672 219.031C46.1484 218.276 45.7891 217.268 45.7891 216.008V215.742C45.7891 214.904 45.9479 214.156 46.2656 213.5C46.5885 212.839 47.0365 212.323 47.6094 211.953C48.1875 211.578 48.8125 211.391 49.4844 211.391C50.5833 211.391 51.4375 211.753 52.0469 212.477C52.6562 213.201 52.9609 214.237 52.9609 215.586V216.188H47.2344C47.2552 217.021 47.4974 217.695 47.9609 218.211C48.4297 218.721 49.0234 218.977 49.7422 218.977C50.2526 218.977 50.6849 218.872 51.0391 218.664C51.3932 218.456 51.7031 218.18 51.9688 217.836L52.8516 218.523C52.1432 219.612 51.0807 220.156 49.6641 220.156ZM49.4844 212.578C48.901 212.578 48.4115 212.792 48.0156 213.219C47.6198 213.641 47.375 214.234 47.2812 215H51.5156V214.891C51.474 214.156 51.276 213.589 50.9219 213.188C50.5677 212.781 50.0885 212.578 49.4844 212.578ZM57.4766 214.633L59.3516 211.547H61.0391L58.2734 215.727L61.125 220H59.4531L57.5 216.836L55.5469 220H53.8672L56.7188 215.727L53.9531 211.547H55.625L57.4766 214.633ZM69.4844 220H68.0391V216.391H64.1562V220H62.7031V211.547H64.1562V215.211H68.0391V211.547H69.4844V220ZM71.4297 215.695C71.4297 214.867 71.5911 214.122 71.9141 213.461C72.2422 212.799 72.6953 212.289 73.2734 211.93C73.8568 211.57 74.5208 211.391 75.2656 211.391C76.4167 211.391 77.3464 211.789 78.0547 212.586C78.7682 213.383 79.125 214.443 79.125 215.766V215.867C79.125 216.69 78.9661 217.43 78.6484 218.086C78.3359 218.737 77.8854 219.245 77.2969 219.609C76.7135 219.974 76.0417 220.156 75.2812 220.156C74.1354 220.156 73.2057 219.758 72.4922 218.961C71.7839 218.164 71.4297 217.109 71.4297 215.797V215.695ZM72.8828 215.867C72.8828 216.805 73.099 217.557 73.5312 218.125C73.9688 218.693 74.5521 218.977 75.2812 218.977C76.0156 218.977 76.599 218.69 77.0312 218.117C77.4635 217.539 77.6797 216.732 77.6797 215.695C77.6797 214.768 77.4583 214.018 77.0156 213.445C76.5781 212.867 75.9948 212.578 75.2656 212.578C74.5521 212.578 73.9766 212.862 73.5391 213.43C73.1016 213.997 72.8828 214.81 72.8828 215.867ZM87.7422 211.547V220H86.2891V212.742H83.4141L83.2422 215.906C83.1484 217.359 82.9036 218.398 82.5078 219.023C82.1172 219.648 81.4948 219.974 80.6406 220H80.0625V218.727L80.4766 218.695C80.9453 218.643 81.2812 218.372 81.4844 217.883C81.6875 217.393 81.8177 216.487 81.875 215.164L82.0312 211.547H87.7422ZM89.6797 215.695C89.6797 214.867 89.8411 214.122 90.1641 213.461C90.4922 212.799 90.9453 212.289 91.5234 211.93C92.1068 211.57 92.7708 211.391 93.5156 211.391C94.6667 211.391 95.5964 211.789 96.3047 212.586C97.0182 213.383 97.375 214.443 97.375 215.766V215.867C97.375 216.69 97.2161 217.43 96.8984 218.086C96.5859 218.737 96.1354 219.245 95.5469 219.609C94.9635 219.974 94.2917 220.156 93.5312 220.156C92.3854 220.156 91.4557 219.758 90.7422 218.961C90.0339 218.164 89.6797 217.109 89.6797 215.797V215.695ZM91.1328 215.867C91.1328 216.805 91.349 217.557 91.7812 218.125C92.2188 218.693 92.8021 218.977 93.5312 218.977C94.2656 218.977 94.849 218.69 95.2812 218.117C95.7135 217.539 95.9297 216.732 95.9297 215.695C95.9297 214.768 95.7083 214.018 95.2656 213.445C94.8281 212.867 94.2448 212.578 93.5156 212.578C92.8021 212.578 92.2266 212.862 91.7891 213.43C91.3516 213.997 91.1328 214.81 91.1328 215.867ZM104.648 212.742H100.75V220H99.2969V211.547H104.648V212.742ZM111.375 211.547H112.82V220H111.375V213.836L107.477 220H106.031V211.547H107.477V217.719L111.375 211.547ZM121.523 220H120.07V216.938C119.435 217.104 118.784 217.188 118.117 217.188C117.06 217.188 116.253 216.917 115.695 216.375C115.143 215.833 114.862 215.062 114.852 214.062V211.539H116.297V214.109C116.323 215.37 116.93 216 118.117 216C118.784 216 119.435 215.917 120.07 215.75V211.547H121.523V220ZM127.352 220.156C126.206 220.156 125.273 219.781 124.555 219.031C123.836 218.276 123.477 217.268 123.477 216.008V215.742C123.477 214.904 123.635 214.156 123.953 213.5C124.276 212.839 124.724 212.323 125.297 211.953C125.875 211.578 126.5 211.391 127.172 211.391C128.271 211.391 129.125 211.753 129.734 212.477C130.344 213.201 130.648 214.237 130.648 215.586V216.188H124.922C124.943 217.021 125.185 217.695 125.648 218.211C126.117 218.721 126.711 218.977 127.43 218.977C127.94 218.977 128.372 218.872 128.727 218.664C129.081 218.456 129.391 218.18 129.656 217.836L130.539 218.523C129.831 219.612 128.768 220.156 127.352 220.156ZM127.172 212.578C126.589 212.578 126.099 212.792 125.703 213.219C125.307 213.641 125.062 214.234 124.969 215H129.203V214.891C129.161 214.156 128.964 213.589 128.609 213.188C128.255 212.781 127.776 212.578 127.172 212.578ZM135.719 218.977C136.234 218.977 136.685 218.82 137.07 218.508C137.456 218.195 137.669 217.805 137.711 217.336H139.078C139.052 217.82 138.885 218.281 138.578 218.719C138.271 219.156 137.859 219.505 137.344 219.766C136.833 220.026 136.292 220.156 135.719 220.156C134.568 220.156 133.651 219.773 132.969 219.008C132.292 218.237 131.953 217.185 131.953 215.852V215.609C131.953 214.786 132.104 214.055 132.406 213.414C132.708 212.773 133.141 212.276 133.703 211.922C134.271 211.568 134.94 211.391 135.711 211.391C136.659 211.391 137.445 211.674 138.07 212.242C138.701 212.81 139.036 213.547 139.078 214.453H137.711C137.669 213.906 137.461 213.458 137.086 213.109C136.716 212.755 136.258 212.578 135.711 212.578C134.977 212.578 134.406 212.844 134 213.375C133.599 213.901 133.398 214.664 133.398 215.664V215.938C133.398 216.911 133.599 217.661 134 218.188C134.401 218.714 134.974 218.977 135.719 218.977ZM143.336 216.398H142.281V220H140.828V211.547H142.281V215.125H143.227L146.07 211.547H147.82L144.477 215.609L148.102 220H146.266L143.336 216.398ZM148.789 215.695C148.789 214.867 148.951 214.122 149.273 213.461C149.602 212.799 150.055 212.289 150.633 211.93C151.216 211.57 151.88 211.391 152.625 211.391C153.776 211.391 154.706 211.789 155.414 212.586C156.128 213.383 156.484 214.443 156.484 215.766V215.867C156.484 216.69 156.326 217.43 156.008 218.086C155.695 218.737 155.245 219.245 154.656 219.609C154.073 219.974 153.401 220.156 152.641 220.156C151.495 220.156 150.565 219.758 149.852 218.961C149.143 218.164 148.789 217.109 148.789 215.797V215.695ZM150.242 215.867C150.242 216.805 150.458 217.557 150.891 218.125C151.328 218.693 151.911 218.977 152.641 218.977C153.375 218.977 153.958 218.69 154.391 218.117C154.823 217.539 155.039 216.732 155.039 215.695C155.039 214.768 154.818 214.018 154.375 213.445C153.938 212.867 153.354 212.578 152.625 212.578C151.911 212.578 151.336 212.862 150.898 213.43C150.461 213.997 150.242 214.81 150.242 215.867ZM163.164 218.086L166.039 211.547H167.844V220H166.398V213.852L163.664 220H162.664L159.875 213.719V220H158.43V211.547H160.305L163.164 218.086ZM176.906 217.883L178.875 211.547H180.422L177.023 221.305C176.497 222.711 175.661 223.414 174.516 223.414L174.242 223.391L173.703 223.289V222.117L174.094 222.148C174.583 222.148 174.964 222.049 175.234 221.852C175.51 221.654 175.737 221.292 175.914 220.766L176.234 219.906L173.219 211.547H174.797L176.906 217.883ZM188.859 215.867C188.859 217.154 188.565 218.19 187.977 218.977C187.388 219.763 186.591 220.156 185.586 220.156C184.56 220.156 183.753 219.831 183.164 219.18V223.25H181.719V211.547H183.039L183.109 212.484C183.698 211.755 184.516 211.391 185.562 211.391C186.578 211.391 187.38 211.773 187.969 212.539C188.562 213.305 188.859 214.37 188.859 215.734V215.867ZM187.414 215.703C187.414 214.75 187.211 213.997 186.805 213.445C186.398 212.893 185.841 212.617 185.133 212.617C184.258 212.617 183.602 213.005 183.164 213.781V217.82C183.596 218.591 184.258 218.977 185.148 218.977C185.841 218.977 186.391 218.703 186.797 218.156C187.208 217.604 187.414 216.786 187.414 215.703ZM190.32 215.695C190.32 214.867 190.482 214.122 190.805 213.461C191.133 212.799 191.586 212.289 192.164 211.93C192.747 211.57 193.411 211.391 194.156 211.391C195.307 211.391 196.237 211.789 196.945 212.586C197.659 213.383 198.016 214.443 198.016 215.766V215.867C198.016 216.69 197.857 217.43 197.539 218.086C197.227 218.737 196.776 219.245 196.188 219.609C195.604 219.974 194.932 220.156 194.172 220.156C193.026 220.156 192.096 219.758 191.383 218.961C190.674 218.164 190.32 217.109 190.32 215.797V215.695ZM191.773 215.867C191.773 216.805 191.99 217.557 192.422 218.125C192.859 218.693 193.443 218.977 194.172 218.977C194.906 218.977 195.49 218.69 195.922 218.117C196.354 217.539 196.57 216.732 196.57 215.695C196.57 214.768 196.349 214.018 195.906 213.445C195.469 212.867 194.885 212.578 194.156 212.578C193.443 212.578 192.867 212.862 192.43 213.43C191.992 213.997 191.773 214.81 191.773 215.867ZM199.961 220V211.547H203.258C204.383 211.547 205.245 211.745 205.844 212.141C206.448 212.531 206.75 213.107 206.75 213.867C206.75 214.258 206.633 214.612 206.398 214.93C206.164 215.242 205.818 215.482 205.359 215.648C205.87 215.768 206.279 216.003 206.586 216.352C206.898 216.701 207.055 217.117 207.055 217.602C207.055 218.378 206.768 218.971 206.195 219.383C205.628 219.794 204.823 220 203.781 220H199.961ZM201.406 216.289V218.836H203.797C204.401 218.836 204.852 218.724 205.148 218.5C205.451 218.276 205.602 217.961 205.602 217.555C205.602 216.711 204.982 216.289 203.742 216.289H201.406ZM201.406 215.133H203.273C204.628 215.133 205.305 214.737 205.305 213.945C205.305 213.154 204.664 212.745 203.383 212.719H201.406V215.133ZM215.875 220H214.43V216.391H210.547V220H209.094V211.547H210.547V215.211H214.43V211.547H215.875V220ZM221.711 220.156C220.565 220.156 219.633 219.781 218.914 219.031C218.195 218.276 217.836 217.268 217.836 216.008V215.742C217.836 214.904 217.995 214.156 218.312 213.5C218.635 212.839 219.083 212.323 219.656 211.953C220.234 211.578 220.859 211.391 221.531 211.391C222.63 211.391 223.484 211.753 224.094 212.477C224.703 213.201 225.008 214.237 225.008 215.586V216.188H219.281C219.302 217.021 219.544 217.695 220.008 218.211C220.477 218.721 221.07 218.977 221.789 218.977C222.299 218.977 222.732 218.872 223.086 218.664C223.44 218.456 223.75 218.18 224.016 217.836L224.898 218.523C224.19 219.612 223.128 220.156 221.711 220.156ZM221.531 212.578C220.948 212.578 220.458 212.792 220.062 213.219C219.667 213.641 219.422 214.234 219.328 215H223.562V214.891C223.521 214.156 223.323 213.589 222.969 213.188C222.615 212.781 222.135 212.578 221.531 212.578ZM226.719 219.242C226.719 218.992 226.792 218.784 226.938 218.617C227.089 218.451 227.312 218.367 227.609 218.367C227.906 218.367 228.13 218.451 228.281 218.617C228.438 218.784 228.516 218.992 228.516 219.242C228.516 219.482 228.438 219.682 228.281 219.844C228.13 220.005 227.906 220.086 227.609 220.086C227.312 220.086 227.089 220.005 226.938 219.844C226.792 219.682 226.719 219.482 226.719 219.242ZM243.094 214.812H241.875V220H240.375V214.812H239.086L235.867 220H233.992L237.82 214L234.289 208.625H236.062L239.086 213.562H240.375V208.625H241.875V213.562H243.109L246.133 208.625H247.898L244.367 213.992L248.195 220H246.328L243.094 214.812ZM254.875 211.547H256.32V220H254.875V213.836L250.977 220H249.531V211.547H250.977V217.719L254.875 211.547ZM258.773 220V211.547H262.07C263.195 211.547 264.057 211.745 264.656 212.141C265.26 212.531 265.562 213.107 265.562 213.867C265.562 214.258 265.445 214.612 265.211 214.93C264.977 215.242 264.63 215.482 264.172 215.648C264.682 215.768 265.091 216.003 265.398 216.352C265.711 216.701 265.867 217.117 265.867 217.602C265.867 218.378 265.581 218.971 265.008 219.383C264.44 219.794 263.635 220 262.594 220H258.773ZM260.219 216.289V218.836H262.609C263.214 218.836 263.664 218.724 263.961 218.5C264.263 218.276 264.414 217.961 264.414 217.555C264.414 216.711 263.794 216.289 262.555 216.289H260.219ZM260.219 215.133H262.086C263.44 215.133 264.117 214.737 264.117 213.945C264.117 213.154 263.477 212.745 262.195 212.719H260.219V215.133ZM269.359 214.461H271.555C272.513 214.471 273.271 214.721 273.828 215.211C274.385 215.701 274.664 216.365 274.664 217.203C274.664 218.047 274.378 218.724 273.805 219.234C273.232 219.745 272.461 220 271.492 220H267.914V211.547H269.359V214.461ZM277.68 220H276.227V211.547H277.68V220ZM269.359 215.641V218.82H271.508C272.049 218.82 272.469 218.682 272.766 218.406C273.062 218.125 273.211 217.742 273.211 217.258C273.211 216.789 273.065 216.406 272.773 216.109C272.487 215.807 272.083 215.651 271.562 215.641H269.359ZM283.711 220.156C282.565 220.156 281.633 219.781 280.914 219.031C280.195 218.276 279.836 217.268 279.836 216.008V215.742C279.836 214.904 279.995 214.156 280.312 213.5C280.635 212.839 281.083 212.323 281.656 211.953C282.234 211.578 282.859 211.391 283.531 211.391C284.63 211.391 285.484 211.753 286.094 212.477C286.703 213.201 287.008 214.237 287.008 215.586V216.188H281.281C281.302 217.021 281.544 217.695 282.008 218.211C282.477 218.721 283.07 218.977 283.789 218.977C284.299 218.977 284.732 218.872 285.086 218.664C285.44 218.456 285.75 218.18 286.016 217.836L286.898 218.523C286.19 219.612 285.128 220.156 283.711 220.156ZM283.531 212.578C282.948 212.578 282.458 212.792 282.062 213.219C281.667 213.641 281.422 214.234 281.328 215H285.562V214.891C285.521 214.156 285.323 213.589 284.969 213.188C284.615 212.781 284.135 212.578 283.531 212.578ZM298.117 212.742H294.219V220H292.766V211.547H298.117V212.742ZM304.594 220C304.51 219.833 304.443 219.536 304.391 219.109C303.719 219.807 302.917 220.156 301.984 220.156C301.151 220.156 300.466 219.922 299.93 219.453C299.398 218.979 299.133 218.38 299.133 217.656C299.133 216.776 299.466 216.094 300.133 215.609C300.805 215.12 301.747 214.875 302.961 214.875H304.367V214.211C304.367 213.706 304.216 213.305 303.914 213.008C303.612 212.706 303.167 212.555 302.578 212.555C302.062 212.555 301.63 212.685 301.281 212.945C300.932 213.206 300.758 213.521 300.758 213.891H299.305C299.305 213.469 299.453 213.062 299.75 212.672C300.052 212.276 300.458 211.964 300.969 211.734C301.484 211.505 302.049 211.391 302.664 211.391C303.638 211.391 304.401 211.635 304.953 212.125C305.505 212.609 305.792 213.279 305.812 214.133V218.023C305.812 218.799 305.911 219.417 306.109 219.875V220H304.594ZM302.195 218.898C302.648 218.898 303.078 218.781 303.484 218.547C303.891 218.312 304.185 218.008 304.367 217.633V215.898H303.234C301.464 215.898 300.578 216.417 300.578 217.453C300.578 217.906 300.729 218.26 301.031 218.516C301.333 218.771 301.721 218.898 302.195 218.898ZM313.547 211.547H314.992V220H313.547V213.836L309.648 220H308.203V211.547H309.648V217.719L313.547 211.547ZM313.938 208.469C313.938 209.099 313.721 209.607 313.289 209.992C312.862 210.372 312.299 210.562 311.602 210.562C310.904 210.562 310.339 210.37 309.906 209.984C309.474 209.599 309.258 209.094 309.258 208.469H310.438C310.438 208.833 310.536 209.12 310.734 209.328C310.932 209.531 311.221 209.633 311.602 209.633C311.966 209.633 312.25 209.531 312.453 209.328C312.661 209.125 312.766 208.839 312.766 208.469H313.938ZM317.242 218.82L317.742 218.203C318.305 217.474 318.625 216.38 318.703 214.922L318.836 211.547H324.281V218.82H325.367V222.484H323.922V220H318.023V222.484H316.578L316.586 218.82H317.242ZM318.953 218.82H322.836V212.883H320.234L320.148 214.898C320.06 216.581 319.661 217.888 318.953 218.82ZM333.898 211.547V220H332.445V212.742H329.57L329.398 215.906C329.305 217.359 329.06 218.398 328.664 219.023C328.273 219.648 327.651 219.974 326.797 220H326.219V218.727L326.633 218.695C327.102 218.643 327.438 218.372 327.641 217.883C327.844 217.393 327.974 216.487 328.031 215.164L328.188 211.547H333.898ZM341.438 220C341.354 219.833 341.286 219.536 341.234 219.109C340.562 219.807 339.76 220.156 338.828 220.156C337.995 220.156 337.31 219.922 336.773 219.453C336.242 218.979 335.977 218.38 335.977 217.656C335.977 216.776 336.31 216.094 336.977 215.609C337.648 215.12 338.591 214.875 339.805 214.875H341.211V214.211C341.211 213.706 341.06 213.305 340.758 213.008C340.456 212.706 340.01 212.555 339.422 212.555C338.906 212.555 338.474 212.685 338.125 212.945C337.776 213.206 337.602 213.521 337.602 213.891H336.148C336.148 213.469 336.297 213.062 336.594 212.672C336.896 212.276 337.302 211.964 337.812 211.734C338.328 211.505 338.893 211.391 339.508 211.391C340.482 211.391 341.245 211.635 341.797 212.125C342.349 212.609 342.635 213.279 342.656 214.133V218.023C342.656 218.799 342.755 219.417 342.953 219.875V220H341.438ZM339.039 218.898C339.492 218.898 339.922 218.781 340.328 218.547C340.734 218.312 341.029 218.008 341.211 217.633V215.898H340.078C338.307 215.898 337.422 216.417 337.422 217.453C337.422 217.906 337.573 218.26 337.875 218.516C338.177 218.771 338.565 218.898 339.039 218.898ZM350.391 211.547H351.836V220H350.391V213.836L346.492 220H345.047V211.547H346.492V217.719L350.391 211.547ZM350.781 208.469C350.781 209.099 350.565 209.607 350.133 209.992C349.706 210.372 349.143 210.562 348.445 210.562C347.747 210.562 347.182 210.37 346.75 209.984C346.318 209.599 346.102 209.094 346.102 208.469H347.281C347.281 208.833 347.38 209.12 347.578 209.328C347.776 209.531 348.065 209.633 348.445 209.633C348.81 209.633 349.094 209.531 349.297 209.328C349.505 209.125 349.609 208.839 349.609 208.469H350.781ZM361.062 220H359.617V216.391H355.734V220H354.281V211.547H355.734V215.211H359.617V211.547H361.062V220ZM364.969 214.461H367.164C368.122 214.471 368.88 214.721 369.438 215.211C369.995 215.701 370.273 216.365 370.273 217.203C370.273 218.047 369.987 218.724 369.414 219.234C368.841 219.745 368.07 220 367.102 220H363.523V211.547H364.969V214.461ZM373.289 220H371.836V211.547H373.289V220ZM364.969 215.641V218.82H367.117C367.659 218.82 368.078 218.682 368.375 218.406C368.672 218.125 368.82 217.742 368.82 217.258C368.82 216.789 368.674 216.406 368.383 216.109C368.096 215.807 367.693 215.651 367.172 215.641H364.969ZM375.766 222.266L374.945 221.703C375.435 221.021 375.69 220.318 375.711 219.594V218.289H377.125V219.422C377.125 219.948 376.995 220.474 376.734 221C376.479 221.526 376.156 221.948 375.766 222.266ZM42.4844 237.977C43 237.977 43.4505 237.82 43.8359 237.508C44.2214 237.195 44.4349 236.805 44.4766 236.336H45.8438C45.8177 236.82 45.651 237.281 45.3438 237.719C45.0365 238.156 44.625 238.505 44.1094 238.766C43.599 239.026 43.0573 239.156 42.4844 239.156C41.3333 239.156 40.4167 238.773 39.7344 238.008C39.0573 237.237 38.7188 236.185 38.7188 234.852V234.609C38.7188 233.786 38.8698 233.055 39.1719 232.414C39.474 231.773 39.9062 231.276 40.4688 230.922C41.0365 230.568 41.7057 230.391 42.4766 230.391C43.4245 230.391 44.2109 230.674 44.8359 231.242C45.4661 231.81 45.8021 232.547 45.8438 233.453H44.4766C44.4349 232.906 44.2266 232.458 43.8516 232.109C43.4818 231.755 43.0234 231.578 42.4766 231.578C41.7422 231.578 41.1719 231.844 40.7656 232.375C40.3646 232.901 40.1641 233.664 40.1641 234.664V234.938C40.1641 235.911 40.3646 236.661 40.7656 237.188C41.1667 237.714 41.7396 237.977 42.4844 237.977ZM53.75 231.719H50.9141V239H49.4688V231.719H46.6875V230.547H53.75V231.719ZM60.25 239C60.1667 238.833 60.099 238.536 60.0469 238.109C59.375 238.807 58.5729 239.156 57.6406 239.156C56.8073 239.156 56.1224 238.922 55.5859 238.453C55.0547 237.979 54.7891 237.38 54.7891 236.656C54.7891 235.776 55.1224 235.094 55.7891 234.609C56.4609 234.12 57.4036 233.875 58.6172 233.875H60.0234V233.211C60.0234 232.706 59.8724 232.305 59.5703 232.008C59.2682 231.706 58.8229 231.555 58.2344 231.555C57.7188 231.555 57.2865 231.685 56.9375 231.945C56.5885 232.206 56.4141 232.521 56.4141 232.891H54.9609C54.9609 232.469 55.1094 232.062 55.4062 231.672C55.7083 231.276 56.1146 230.964 56.625 230.734C57.1406 230.505 57.7057 230.391 58.3203 230.391C59.2943 230.391 60.0573 230.635 60.6094 231.125C61.1615 231.609 61.4479 232.279 61.4688 233.133V237.023C61.4688 237.799 61.5677 238.417 61.7656 238.875V239H60.25ZM57.8516 237.898C58.3047 237.898 58.7344 237.781 59.1406 237.547C59.5469 237.312 59.8411 237.008 60.0234 236.633V234.898H58.8906C57.1198 234.898 56.2344 235.417 56.2344 236.453C56.2344 236.906 56.3854 237.26 56.6875 237.516C56.9896 237.771 57.3776 237.898 57.8516 237.898ZM69.8906 231.719H67.0547V239H65.6094V231.719H62.8281V230.547H69.8906V231.719ZM72.875 233.461H75.0703C76.0286 233.471 76.7865 233.721 77.3438 234.211C77.901 234.701 78.1797 235.365 78.1797 236.203C78.1797 237.047 77.8932 237.724 77.3203 238.234C76.7474 238.745 75.9766 239 75.0078 239H71.4297V230.547H72.875V233.461ZM72.875 234.641V237.82H75.0234C75.5651 237.82 75.9844 237.682 76.2812 237.406C76.5781 237.125 76.7266 236.742 76.7266 236.258C76.7266 235.789 76.5807 235.406 76.2891 235.109C76.0026 234.807 75.599 234.651 75.0781 234.641H72.875ZM85.4531 230.547H86.8984V239H85.4531V232.836L81.5547 239H80.1094V230.547H81.5547V236.719L85.4531 230.547ZM89.1719 241.266L88.3516 240.703C88.8411 240.021 89.0964 239.318 89.1172 238.594V237.289H90.5312V238.422C90.5312 238.948 90.401 239.474 90.1406 240C89.8854 240.526 89.5625 240.948 89.1719 241.266ZM103.242 239H101.797V231.742H97.9062V239H96.4531V230.547H103.242V239ZM112.703 234.867C112.703 236.154 112.409 237.19 111.82 237.977C111.232 238.763 110.435 239.156 109.43 239.156C108.404 239.156 107.596 238.831 107.008 238.18V242.25H105.562V230.547H106.883L106.953 231.484C107.542 230.755 108.359 230.391 109.406 230.391C110.422 230.391 111.224 230.773 111.812 231.539C112.406 232.305 112.703 233.37 112.703 234.734V234.867ZM111.258 234.703C111.258 233.75 111.055 232.997 110.648 232.445C110.242 231.893 109.685 231.617 108.977 231.617C108.102 231.617 107.445 232.005 107.008 232.781V236.82C107.44 237.591 108.102 237.977 108.992 237.977C109.685 237.977 110.234 237.703 110.641 237.156C111.052 236.604 111.258 235.786 111.258 234.703ZM118.055 239.156C116.909 239.156 115.977 238.781 115.258 238.031C114.539 237.276 114.18 236.268 114.18 235.008V234.742C114.18 233.904 114.339 233.156 114.656 232.5C114.979 231.839 115.427 231.323 116 230.953C116.578 230.578 117.203 230.391 117.875 230.391C118.974 230.391 119.828 230.753 120.438 231.477C121.047 232.201 121.352 233.237 121.352 234.586V235.188H115.625C115.646 236.021 115.888 236.695 116.352 237.211C116.82 237.721 117.414 237.977 118.133 237.977C118.643 237.977 119.076 237.872 119.43 237.664C119.784 237.456 120.094 237.18 120.359 236.836L121.242 237.523C120.534 238.612 119.471 239.156 118.055 239.156ZM117.875 231.578C117.292 231.578 116.802 231.792 116.406 232.219C116.01 232.641 115.766 233.234 115.672 234H119.906V233.891C119.865 233.156 119.667 232.589 119.312 232.188C118.958 231.781 118.479 231.578 117.875 231.578ZM127.68 232.859C127.68 232.464 127.529 232.151 127.227 231.922C126.924 231.688 126.51 231.57 125.984 231.57C125.474 231.57 125.047 231.703 124.703 231.969C124.365 232.234 124.195 232.547 124.195 232.906H122.758C122.758 232.172 123.065 231.57 123.68 231.102C124.294 230.633 125.062 230.398 125.984 230.398C126.974 230.398 127.745 230.612 128.297 231.039C128.849 231.461 129.125 232.065 129.125 232.852C129.125 233.232 129.01 233.581 128.781 233.898C128.552 234.216 128.227 234.469 127.805 234.656C128.789 234.99 129.281 235.646 129.281 236.625C129.281 237.401 128.982 238.016 128.383 238.469C127.784 238.922 126.984 239.148 125.984 239.148C125.01 239.148 124.206 238.911 123.57 238.438C122.94 237.958 122.625 237.312 122.625 236.5H124.062C124.062 236.911 124.245 237.266 124.609 237.562C124.979 237.854 125.438 238 125.984 238C126.536 238 126.982 237.872 127.32 237.617C127.659 237.362 127.828 237.031 127.828 236.625C127.828 236.151 127.685 235.812 127.398 235.609C127.117 235.401 126.677 235.297 126.078 235.297H124.633V234.078H126.203C127.188 234.052 127.68 233.646 127.68 232.859ZM134.664 239.156C133.518 239.156 132.586 238.781 131.867 238.031C131.148 237.276 130.789 236.268 130.789 235.008V234.742C130.789 233.904 130.948 233.156 131.266 232.5C131.589 231.839 132.036 231.323 132.609 230.953C133.188 230.578 133.812 230.391 134.484 230.391C135.583 230.391 136.438 230.753 137.047 231.477C137.656 232.201 137.961 233.237 137.961 234.586V235.188H132.234C132.255 236.021 132.497 236.695 132.961 237.211C133.43 237.721 134.023 237.977 134.742 237.977C135.253 237.977 135.685 237.872 136.039 237.664C136.393 237.456 136.703 237.18 136.969 236.836L137.852 237.523C137.143 238.612 136.081 239.156 134.664 239.156ZM134.484 231.578C133.901 231.578 133.411 231.792 133.016 232.219C132.62 232.641 132.375 233.234 132.281 234H136.516V233.891C136.474 233.156 136.276 232.589 135.922 232.188C135.568 231.781 135.089 231.578 134.484 231.578ZM146.547 239H145.102V235.391H141.219V239H139.766V230.547H141.219V234.211H145.102V230.547H146.547V239ZM155.156 231.719H152.32V239H150.875V231.719H148.094V230.547H155.156V231.719ZM161.656 239C161.573 238.833 161.505 238.536 161.453 238.109C160.781 238.807 159.979 239.156 159.047 239.156C158.214 239.156 157.529 238.922 156.992 238.453C156.461 237.979 156.195 237.38 156.195 236.656C156.195 235.776 156.529 235.094 157.195 234.609C157.867 234.12 158.81 233.875 160.023 233.875H161.43V233.211C161.43 232.706 161.279 232.305 160.977 232.008C160.674 231.706 160.229 231.555 159.641 231.555C159.125 231.555 158.693 231.685 158.344 231.945C157.995 232.206 157.82 232.521 157.82 232.891H156.367C156.367 232.469 156.516 232.062 156.812 231.672C157.115 231.276 157.521 230.964 158.031 230.734C158.547 230.505 159.112 230.391 159.727 230.391C160.701 230.391 161.464 230.635 162.016 231.125C162.568 231.609 162.854 232.279 162.875 233.133V237.023C162.875 237.799 162.974 238.417 163.172 238.875V239H161.656ZM159.258 237.898C159.711 237.898 160.141 237.781 160.547 237.547C160.953 237.312 161.247 237.008 161.43 236.633V234.898H160.297C158.526 234.898 157.641 235.417 157.641 236.453C157.641 236.906 157.792 237.26 158.094 237.516C158.396 237.771 158.784 237.898 159.258 237.898ZM165.266 230.547H166.719V237.82H170.609V230.547H172.055V237.82H173.062L172.922 241.508H171.625V239H165.266V230.547ZM180.094 230.547H181.539V239H180.094V232.836L176.195 239H174.75V230.547H176.195V236.719L180.094 230.547ZM189.328 230.547H190.773V239H189.328V232.836L185.43 239H183.984V230.547H185.43V236.719L189.328 230.547ZM193.047 241.266L192.227 240.703C192.716 240.021 192.971 239.318 192.992 238.594V237.289H194.406V238.422C194.406 238.948 194.276 239.474 194.016 240C193.76 240.526 193.438 240.948 193.047 241.266ZM200.336 239V230.547H203.633C204.758 230.547 205.62 230.745 206.219 231.141C206.823 231.531 207.125 232.107 207.125 232.867C207.125 233.258 207.008 233.612 206.773 233.93C206.539 234.242 206.193 234.482 205.734 234.648C206.245 234.768 206.654 235.003 206.961 235.352C207.273 235.701 207.43 236.117 207.43 236.602C207.43 237.378 207.143 237.971 206.57 238.383C206.003 238.794 205.198 239 204.156 239H200.336ZM201.781 235.289V237.836H204.172C204.776 237.836 205.227 237.724 205.523 237.5C205.826 237.276 205.977 236.961 205.977 236.555C205.977 235.711 205.357 235.289 204.117 235.289H201.781ZM201.781 234.133H203.648C205.003 234.133 205.68 233.737 205.68 232.945C205.68 232.154 205.039 231.745 203.758 231.719H201.781V234.133ZM210.922 233.461H213.117C214.076 233.471 214.833 233.721 215.391 234.211C215.948 234.701 216.227 235.365 216.227 236.203C216.227 237.047 215.94 237.724 215.367 238.234C214.794 238.745 214.023 239 213.055 239H209.477V230.547H210.922V233.461ZM219.242 239H217.789V230.547H219.242V239ZM210.922 234.641V237.82H213.07C213.612 237.82 214.031 237.682 214.328 237.406C214.625 237.125 214.773 236.742 214.773 236.258C214.773 235.789 214.628 235.406 214.336 235.109C214.049 234.807 213.646 234.651 213.125 234.641H210.922ZM225.156 237.977C225.672 237.977 226.122 237.82 226.508 237.508C226.893 237.195 227.107 236.805 227.148 236.336H228.516C228.49 236.82 228.323 237.281 228.016 237.719C227.708 238.156 227.297 238.505 226.781 238.766C226.271 239.026 225.729 239.156 225.156 239.156C224.005 239.156 223.089 238.773 222.406 238.008C221.729 237.237 221.391 236.185 221.391 234.852V234.609C221.391 233.786 221.542 233.055 221.844 232.414C222.146 231.773 222.578 231.276 223.141 230.922C223.708 230.568 224.378 230.391 225.148 230.391C226.096 230.391 226.883 230.674 227.508 231.242C228.138 231.81 228.474 232.547 228.516 233.453H227.148C227.107 232.906 226.898 232.458 226.523 232.109C226.154 231.755 225.695 231.578 225.148 231.578C224.414 231.578 223.844 231.844 223.438 232.375C223.036 232.901 222.836 233.664 222.836 234.664V234.938C222.836 235.911 223.036 236.661 223.438 237.188C223.839 237.714 224.411 237.977 225.156 237.977ZM236.422 231.719H233.586V239H232.141V231.719H229.359V230.547H236.422V231.719ZM240.688 236.883L242.656 230.547H244.203L240.805 240.305C240.279 241.711 239.443 242.414 238.297 242.414L238.023 242.391L237.484 242.289V241.117L237.875 241.148C238.365 241.148 238.745 241.049 239.016 240.852C239.292 240.654 239.518 240.292 239.695 239.766L240.016 238.906L237 230.547H238.578L240.688 236.883ZM252.414 239H250.969V231.742H247.078V239H245.625V230.547H252.414V239ZM261.664 230.547V239H260.211V231.742H257.336L257.164 234.906C257.07 236.359 256.826 237.398 256.43 238.023C256.039 238.648 255.417 238.974 254.562 239H253.984V237.727L254.398 237.695C254.867 237.643 255.203 237.372 255.406 236.883C255.609 236.393 255.74 235.487 255.797 234.164L255.953 230.547H261.664ZM267.492 239.156C266.346 239.156 265.414 238.781 264.695 238.031C263.977 237.276 263.617 236.268 263.617 235.008V234.742C263.617 233.904 263.776 233.156 264.094 232.5C264.417 231.839 264.865 231.323 265.438 230.953C266.016 230.578 266.641 230.391 267.312 230.391C268.411 230.391 269.266 230.753 269.875 231.477C270.484 232.201 270.789 233.237 270.789 234.586V235.188H265.062C265.083 236.021 265.326 236.695 265.789 237.211C266.258 237.721 266.852 237.977 267.57 237.977C268.081 237.977 268.513 237.872 268.867 237.664C269.221 237.456 269.531 237.18 269.797 236.836L270.68 237.523C269.971 238.612 268.909 239.156 267.492 239.156ZM267.312 231.578C266.729 231.578 266.24 231.792 265.844 232.219C265.448 232.641 265.203 233.234 265.109 234H269.344V233.891C269.302 233.156 269.104 232.589 268.75 232.188C268.396 231.781 267.917 231.578 267.312 231.578ZM279.375 239H277.93V235.391H274.047V239H272.594V230.547H274.047V234.211H277.93V230.547H279.375V239ZM287.172 230.547H288.617V239H287.172V232.836L283.273 239H281.828V230.547H283.273V236.719L287.172 230.547ZM297.398 230.547V239H295.945V235.711H293.766L291.773 239H290.211L292.336 235.492C291.794 235.294 291.378 234.99 291.086 234.578C290.799 234.161 290.656 233.677 290.656 233.125C290.656 232.354 290.945 231.734 291.523 231.266C292.102 230.792 292.875 230.552 293.844 230.547H297.398ZM292.109 233.141C292.109 233.552 292.25 233.885 292.531 234.141C292.812 234.391 293.185 234.518 293.648 234.523H295.945V231.719H293.867C293.331 231.719 292.904 231.852 292.586 232.117C292.268 232.378 292.109 232.719 292.109 233.141ZM309.156 230.547H310.602V239H309.156V232.836L305.258 239H303.812V230.547H305.258V236.719L309.156 230.547ZM316.82 237.82L317.32 237.203C317.883 236.474 318.203 235.38 318.281 233.922L318.414 230.547H323.859V237.82H324.945V241.484H323.5V239H317.602V241.484H316.156L316.164 237.82H316.82ZM318.531 237.82H322.414V231.883H319.812L319.727 233.898C319.638 235.581 319.24 236.888 318.531 237.82ZM333.688 234.867C333.688 236.154 333.393 237.19 332.805 237.977C332.216 238.763 331.419 239.156 330.414 239.156C329.388 239.156 328.581 238.831 327.992 238.18V242.25H326.547V230.547H327.867L327.938 231.484C328.526 230.755 329.344 230.391 330.391 230.391C331.406 230.391 332.208 230.773 332.797 231.539C333.391 232.305 333.688 233.37 333.688 234.734V234.867ZM332.242 234.703C332.242 233.75 332.039 232.997 331.633 232.445C331.227 231.893 330.669 231.617 329.961 231.617C329.086 231.617 328.43 232.005 327.992 232.781V236.82C328.424 237.591 329.086 237.977 329.977 237.977C330.669 237.977 331.219 237.703 331.625 237.156C332.036 236.604 332.242 235.786 332.242 234.703ZM338.203 236.883L340.172 230.547H341.719L338.32 240.305C337.794 241.711 336.958 242.414 335.812 242.414L335.539 242.391L335 242.289V241.117L335.391 241.148C335.88 241.148 336.26 241.049 336.531 240.852C336.807 240.654 337.034 240.292 337.211 239.766L337.531 238.906L334.516 230.547H336.094L338.203 236.883ZM348.477 231.742H344.578V239H343.125V230.547H348.477V231.742ZM355.203 230.547H356.648V239H355.203V232.836L351.305 239H349.859V230.547H351.305V236.719L355.203 230.547ZM362.477 239.156C361.331 239.156 360.398 238.781 359.68 238.031C358.961 237.276 358.602 236.268 358.602 235.008V234.742C358.602 233.904 358.76 233.156 359.078 232.5C359.401 231.839 359.849 231.323 360.422 230.953C361 230.578 361.625 230.391 362.297 230.391C363.396 230.391 364.25 230.753 364.859 231.477C365.469 232.201 365.773 233.237 365.773 234.586V235.188H360.047C360.068 236.021 360.31 236.695 360.773 237.211C361.242 237.721 361.836 237.977 362.555 237.977C363.065 237.977 363.497 237.872 363.852 237.664C364.206 237.456 364.516 237.18 364.781 236.836L365.664 237.523C364.956 238.612 363.893 239.156 362.477 239.156ZM362.297 231.578C361.714 231.578 361.224 231.792 360.828 232.219C360.432 232.641 360.188 233.234 360.094 234H364.328V233.891C364.286 233.156 364.089 232.589 363.734 232.188C363.38 231.781 362.901 231.578 362.297 231.578ZM43.9609 256.086L46.8359 249.547H48.6406V258H47.1953V251.852L44.4609 258H43.4609L40.6719 251.719V258H39.2266V249.547H41.1016L43.9609 256.086ZM56.1875 258C56.1042 257.833 56.0365 257.536 55.9844 257.109C55.3125 257.807 54.5104 258.156 53.5781 258.156C52.7448 258.156 52.0599 257.922 51.5234 257.453C50.9922 256.979 50.7266 256.38 50.7266 255.656C50.7266 254.776 51.0599 254.094 51.7266 253.609C52.3984 253.12 53.3411 252.875 54.5547 252.875H55.9609V252.211C55.9609 251.706 55.8099 251.305 55.5078 251.008C55.2057 250.706 54.7604 250.555 54.1719 250.555C53.6562 250.555 53.224 250.685 52.875 250.945C52.526 251.206 52.3516 251.521 52.3516 251.891H50.8984C50.8984 251.469 51.0469 251.062 51.3438 250.672C51.6458 250.276 52.0521 249.964 52.5625 249.734C53.0781 249.505 53.6432 249.391 54.2578 249.391C55.2318 249.391 55.9948 249.635 56.5469 250.125C57.099 250.609 57.3854 251.279 57.4062 252.133V256.023C57.4062 256.799 57.5052 257.417 57.7031 257.875V258H56.1875ZM53.7891 256.898C54.2422 256.898 54.6719 256.781 55.0781 256.547C55.4844 256.312 55.7786 256.008 55.9609 255.633V253.898H54.8281C53.0573 253.898 52.1719 254.417 52.1719 255.453C52.1719 255.906 52.3229 256.26 52.625 256.516C52.9271 256.771 53.3151 256.898 53.7891 256.898ZM65.8281 250.719H62.9922V258H61.5469V250.719H58.7656V249.547H65.8281V250.719ZM70.1172 258.156C68.9714 258.156 68.0391 257.781 67.3203 257.031C66.6016 256.276 66.2422 255.268 66.2422 254.008V253.742C66.2422 252.904 66.401 252.156 66.7188 251.5C67.0417 250.839 67.4896 250.323 68.0625 249.953C68.6406 249.578 69.2656 249.391 69.9375 249.391C71.0365 249.391 71.8906 249.753 72.5 250.477C73.1094 251.201 73.4141 252.237 73.4141 253.586V254.188H67.6875C67.7083 255.021 67.9505 255.695 68.4141 256.211C68.8828 256.721 69.4766 256.977 70.1953 256.977C70.7057 256.977 71.138 256.872 71.4922 256.664C71.8464 256.456 72.1562 256.18 72.4219 255.836L73.3047 256.523C72.5964 257.612 71.5339 258.156 70.1172 258.156ZM69.9375 250.578C69.3542 250.578 68.8646 250.792 68.4688 251.219C68.0729 251.641 67.8281 252.234 67.7344 253H71.9688V252.891C71.9271 252.156 71.7292 251.589 71.375 251.188C71.0208 250.781 70.5417 250.578 69.9375 250.578ZM82.2344 253.867C82.2344 255.154 81.9401 256.19 81.3516 256.977C80.763 257.763 79.9661 258.156 78.9609 258.156C77.9349 258.156 77.1276 257.831 76.5391 257.18V261.25H75.0938V249.547H76.4141L76.4844 250.484C77.0729 249.755 77.8906 249.391 78.9375 249.391C79.9531 249.391 80.7552 249.773 81.3438 250.539C81.9375 251.305 82.2344 252.37 82.2344 253.734V253.867ZM80.7891 253.703C80.7891 252.75 80.5859 251.997 80.1797 251.445C79.7734 250.893 79.2161 250.617 78.5078 250.617C77.6328 250.617 76.9766 251.005 76.5391 251.781V255.82C76.9714 256.591 77.6328 256.977 78.5234 256.977C79.2161 256.977 79.7656 256.703 80.1719 256.156C80.5833 255.604 80.7891 254.786 80.7891 253.703ZM89.5469 249.547H90.9922V258H89.5469V251.836L85.6484 258H84.2031V249.547H85.6484V255.719L89.5469 249.547ZM98.5312 258C98.4479 257.833 98.3802 257.536 98.3281 257.109C97.6562 257.807 96.8542 258.156 95.9219 258.156C95.0885 258.156 94.4036 257.922 93.8672 257.453C93.3359 256.979 93.0703 256.38 93.0703 255.656C93.0703 254.776 93.4036 254.094 94.0703 253.609C94.7422 253.12 95.6849 252.875 96.8984 252.875H98.3047V252.211C98.3047 251.706 98.1536 251.305 97.8516 251.008C97.5495 250.706 97.1042 250.555 96.5156 250.555C96 250.555 95.5677 250.685 95.2188 250.945C94.8698 251.206 94.6953 251.521 94.6953 251.891H93.2422C93.2422 251.469 93.3906 251.062 93.6875 250.672C93.9896 250.276 94.3958 249.964 94.9062 249.734C95.4219 249.505 95.987 249.391 96.6016 249.391C97.5755 249.391 98.3385 249.635 98.8906 250.125C99.4427 250.609 99.7292 251.279 99.75 252.133V256.023C99.75 256.799 99.849 257.417 100.047 257.875V258H98.5312ZM96.1328 256.898C96.5859 256.898 97.0156 256.781 97.4219 256.547C97.8281 256.312 98.1224 256.008 98.3047 255.633V253.898H97.1719C95.401 253.898 94.5156 254.417 94.5156 255.453C94.5156 255.906 94.6667 256.26 94.9688 256.516C95.2708 256.771 95.6589 256.898 96.1328 256.898ZM108.945 249.547V258H107.492V250.742H104.617L104.445 253.906C104.352 255.359 104.107 256.398 103.711 257.023C103.32 257.648 102.698 257.974 101.844 258H101.266V256.727L101.68 256.695C102.148 256.643 102.484 256.372 102.688 255.883C102.891 255.393 103.021 254.487 103.078 253.164L103.234 249.547H108.945ZM112.844 252.461H115.039C115.997 252.471 116.755 252.721 117.312 253.211C117.87 253.701 118.148 254.365 118.148 255.203C118.148 256.047 117.862 256.724 117.289 257.234C116.716 257.745 115.945 258 114.977 258H111.398V249.547H112.844V252.461ZM121.164 258H119.711V249.547H121.164V258ZM112.844 253.641V256.82H114.992C115.534 256.82 115.953 256.682 116.25 256.406C116.547 256.125 116.695 255.742 116.695 255.258C116.695 254.789 116.549 254.406 116.258 254.109C115.971 253.807 115.568 253.651 115.047 253.641H112.844ZM127.273 253.695C127.273 252.867 127.435 252.122 127.758 251.461C128.086 250.799 128.539 250.289 129.117 249.93C129.701 249.57 130.365 249.391 131.109 249.391C132.26 249.391 133.19 249.789 133.898 250.586C134.612 251.383 134.969 252.443 134.969 253.766V253.867C134.969 254.69 134.81 255.43 134.492 256.086C134.18 256.737 133.729 257.245 133.141 257.609C132.557 257.974 131.885 258.156 131.125 258.156C129.979 258.156 129.049 257.758 128.336 256.961C127.628 256.164 127.273 255.109 127.273 253.797V253.695ZM128.727 253.867C128.727 254.805 128.943 255.557 129.375 256.125C129.812 256.693 130.396 256.977 131.125 256.977C131.859 256.977 132.443 256.69 132.875 256.117C133.307 255.539 133.523 254.732 133.523 253.695C133.523 252.768 133.302 252.018 132.859 251.445C132.422 250.867 131.839 250.578 131.109 250.578C130.396 250.578 129.82 250.862 129.383 251.43C128.945 251.997 128.727 252.81 128.727 253.867ZM147.656 258H146.211V254.391H142.328V258H140.875V249.547H142.328V253.211H146.211V249.547H147.656V258ZM155.453 249.547H156.898V258H155.453V251.836L151.555 258H150.109V249.547H151.555V255.719L155.453 249.547ZM162.055 252.633L163.93 249.547H165.617L162.852 253.727L165.703 258H164.031L162.078 254.836L160.125 258H158.445L161.297 253.727L158.531 249.547H160.203L162.055 252.633ZM167.188 257.242C167.188 256.992 167.26 256.784 167.406 256.617C167.557 256.451 167.781 256.367 168.078 256.367C168.375 256.367 168.599 256.451 168.75 256.617C168.906 256.784 168.984 256.992 168.984 257.242C168.984 257.482 168.906 257.682 168.75 257.844C168.599 258.005 168.375 258.086 168.078 258.086C167.781 258.086 167.557 258.005 167.406 257.844C167.26 257.682 167.188 257.482 167.188 257.242ZM48.0078 296H46.5V285.859H40.8906V296H39.3906V284.625H48.0078V296ZM50.1328 291.695C50.1328 290.867 50.2943 290.122 50.6172 289.461C50.9453 288.799 51.3984 288.289 51.9766 287.93C52.5599 287.57 53.224 287.391 53.9688 287.391C55.1198 287.391 56.0495 287.789 56.7578 288.586C57.4714 289.383 57.8281 290.443 57.8281 291.766V291.867C57.8281 292.69 57.6693 293.43 57.3516 294.086C57.0391 294.737 56.5885 295.245 56 295.609C55.4167 295.974 54.7448 296.156 53.9844 296.156C52.8385 296.156 51.9089 295.758 51.1953 294.961C50.487 294.164 50.1328 293.109 50.1328 291.797V291.695ZM51.5859 291.867C51.5859 292.805 51.8021 293.557 52.2344 294.125C52.6719 294.693 53.2552 294.977 53.9844 294.977C54.7188 294.977 55.3021 294.69 55.7344 294.117C56.1667 293.539 56.3828 292.732 56.3828 291.695C56.3828 290.768 56.1615 290.018 55.7188 289.445C55.2812 288.867 54.6979 288.578 53.9688 288.578C53.2552 288.578 52.6797 288.862 52.2422 289.43C51.8047 289.997 51.5859 290.81 51.5859 291.867ZM59.0078 294.82L59.5078 294.203C60.0703 293.474 60.3906 292.38 60.4688 290.922L60.6016 287.547H66.0469V294.82H67.1328V298.484H65.6875V296H59.7891V298.484H58.3438L58.3516 294.82H59.0078ZM60.7188 294.82H64.6016V288.883H62L61.9141 290.898C61.8255 292.581 61.4271 293.888 60.7188 294.82ZM75.6484 296H74.2031V288.742H70.3125V296H68.8594V287.547H75.6484V296ZM83.4375 287.547H84.8828V296H83.4375V289.836L79.5391 296H78.0938V287.547H79.5391V293.719L83.4375 287.547ZM90.5938 294.977C91.1094 294.977 91.5599 294.82 91.9453 294.508C92.3307 294.195 92.5443 293.805 92.5859 293.336H93.9531C93.9271 293.82 93.7604 294.281 93.4531 294.719C93.1458 295.156 92.7344 295.505 92.2188 295.766C91.7083 296.026 91.1667 296.156 90.5938 296.156C89.4427 296.156 88.526 295.773 87.8438 295.008C87.1667 294.237 86.8281 293.185 86.8281 291.852V291.609C86.8281 290.786 86.9792 290.055 87.2812 289.414C87.5833 288.773 88.0156 288.276 88.5781 287.922C89.1458 287.568 89.8151 287.391 90.5859 287.391C91.5339 287.391 92.3203 287.674 92.9453 288.242C93.5755 288.81 93.9115 289.547 93.9531 290.453H92.5859C92.5443 289.906 92.3359 289.458 91.9609 289.109C91.5911 288.755 91.1328 288.578 90.5859 288.578C89.8516 288.578 89.2812 288.844 88.875 289.375C88.474 289.901 88.2734 290.664 88.2734 291.664V291.938C88.2734 292.911 88.474 293.661 88.875 294.188C89.276 294.714 89.849 294.977 90.5938 294.977ZM100.797 296C100.714 295.833 100.646 295.536 100.594 295.109C99.9219 295.807 99.1198 296.156 98.1875 296.156C97.3542 296.156 96.6693 295.922 96.1328 295.453C95.6016 294.979 95.3359 294.38 95.3359 293.656C95.3359 292.776 95.6693 292.094 96.3359 291.609C97.0078 291.12 97.9505 290.875 99.1641 290.875H100.57V290.211C100.57 289.706 100.419 289.305 100.117 289.008C99.8151 288.706 99.3698 288.555 98.7812 288.555C98.2656 288.555 97.8333 288.685 97.4844 288.945C97.1354 289.206 96.9609 289.521 96.9609 289.891H95.5078C95.5078 289.469 95.6562 289.062 95.9531 288.672C96.2552 288.276 96.6615 287.964 97.1719 287.734C97.6875 287.505 98.2526 287.391 98.8672 287.391C99.8411 287.391 100.604 287.635 101.156 288.125C101.708 288.609 101.995 289.279 102.016 290.133V294.023C102.016 294.799 102.115 295.417 102.312 295.875V296H100.797ZM98.3984 294.898C98.8516 294.898 99.2812 294.781 99.6875 294.547C100.094 294.312 100.388 294.008 100.57 293.633V291.898H99.4375C97.6667 291.898 96.7812 292.417 96.7812 293.453C96.7812 293.906 96.9323 294.26 97.2344 294.516C97.5365 294.771 97.9245 294.898 98.3984 294.898ZM110.438 288.719H107.602V296H106.156V288.719H103.375V287.547H110.438V288.719ZM113.422 290.461H115.617C116.576 290.471 117.333 290.721 117.891 291.211C118.448 291.701 118.727 292.365 118.727 293.203C118.727 294.047 118.44 294.724 117.867 295.234C117.294 295.745 116.523 296 115.555 296H111.977V287.547H113.422V290.461ZM113.422 291.641V294.82H115.57C116.112 294.82 116.531 294.682 116.828 294.406C117.125 294.125 117.273 293.742 117.273 293.258C117.273 292.789 117.128 292.406 116.836 292.109C116.549 291.807 116.146 291.651 115.625 291.641H113.422ZM123.922 294.977C124.438 294.977 124.888 294.82 125.273 294.508C125.659 294.195 125.872 293.805 125.914 293.336H127.281C127.255 293.82 127.089 294.281 126.781 294.719C126.474 295.156 126.062 295.505 125.547 295.766C125.036 296.026 124.495 296.156 123.922 296.156C122.771 296.156 121.854 295.773 121.172 295.008C120.495 294.237 120.156 293.185 120.156 291.852V291.609C120.156 290.786 120.307 290.055 120.609 289.414C120.911 288.773 121.344 288.276 121.906 287.922C122.474 287.568 123.143 287.391 123.914 287.391C124.862 287.391 125.648 287.674 126.273 288.242C126.904 288.81 127.24 289.547 127.281 290.453H125.914C125.872 289.906 125.664 289.458 125.289 289.109C124.919 288.755 124.461 288.578 123.914 288.578C123.18 288.578 122.609 288.844 122.203 289.375C121.802 289.901 121.602 290.664 121.602 291.664V291.938C121.602 292.911 121.802 293.661 122.203 294.188C122.604 294.714 123.177 294.977 123.922 294.977ZM135.367 287.547V296H133.914V292.711H131.734L129.742 296H128.18L130.305 292.492C129.763 292.294 129.346 291.99 129.055 291.578C128.768 291.161 128.625 290.677 128.625 290.125C128.625 289.354 128.914 288.734 129.492 288.266C130.07 287.792 130.844 287.552 131.812 287.547H135.367ZM130.078 290.141C130.078 290.552 130.219 290.885 130.5 291.141C130.781 291.391 131.154 291.518 131.617 291.523H133.914V288.719H131.836C131.299 288.719 130.872 288.852 130.555 289.117C130.237 289.378 130.078 289.719 130.078 290.141ZM148.562 296H147.117V292.391H143.234V296H141.781V287.547H143.234V291.211H147.117V287.547H148.562V296ZM156.109 296C156.026 295.833 155.958 295.536 155.906 295.109C155.234 295.807 154.432 296.156 153.5 296.156C152.667 296.156 151.982 295.922 151.445 295.453C150.914 294.979 150.648 294.38 150.648 293.656C150.648 292.776 150.982 292.094 151.648 291.609C152.32 291.12 153.263 290.875 154.477 290.875H155.883V290.211C155.883 289.706 155.732 289.305 155.43 289.008C155.128 288.706 154.682 288.555 154.094 288.555C153.578 288.555 153.146 288.685 152.797 288.945C152.448 289.206 152.273 289.521 152.273 289.891H150.82C150.82 289.469 150.969 289.062 151.266 288.672C151.568 288.276 151.974 287.964 152.484 287.734C153 287.505 153.565 287.391 154.18 287.391C155.154 287.391 155.917 287.635 156.469 288.125C157.021 288.609 157.307 289.279 157.328 290.133V294.023C157.328 294.799 157.427 295.417 157.625 295.875V296H156.109ZM153.711 294.898C154.164 294.898 154.594 294.781 155 294.547C155.406 294.312 155.701 294.008 155.883 293.633V291.898H154.75C152.979 291.898 152.094 292.417 152.094 293.453C152.094 293.906 152.245 294.26 152.547 294.516C152.849 294.771 153.237 294.898 153.711 294.898ZM170.703 291.867C170.703 293.154 170.409 294.19 169.82 294.977C169.232 295.763 168.435 296.156 167.43 296.156C166.404 296.156 165.596 295.831 165.008 295.18V299.25H163.562V287.547H164.883L164.953 288.484C165.542 287.755 166.359 287.391 167.406 287.391C168.422 287.391 169.224 287.773 169.812 288.539C170.406 289.305 170.703 290.37 170.703 291.734V291.867ZM169.258 291.703C169.258 290.75 169.055 289.997 168.648 289.445C168.242 288.893 167.685 288.617 166.977 288.617C166.102 288.617 165.445 289.005 165.008 289.781V293.82C165.44 294.591 166.102 294.977 166.992 294.977C167.685 294.977 168.234 294.703 168.641 294.156C169.052 293.604 169.258 292.786 169.258 291.703ZM177.766 296C177.682 295.833 177.615 295.536 177.562 295.109C176.891 295.807 176.089 296.156 175.156 296.156C174.323 296.156 173.638 295.922 173.102 295.453C172.57 294.979 172.305 294.38 172.305 293.656C172.305 292.776 172.638 292.094 173.305 291.609C173.977 291.12 174.919 290.875 176.133 290.875H177.539V290.211C177.539 289.706 177.388 289.305 177.086 289.008C176.784 288.706 176.339 288.555 175.75 288.555C175.234 288.555 174.802 288.685 174.453 288.945C174.104 289.206 173.93 289.521 173.93 289.891H172.477C172.477 289.469 172.625 289.062 172.922 288.672C173.224 288.276 173.63 287.964 174.141 287.734C174.656 287.505 175.221 287.391 175.836 287.391C176.81 287.391 177.573 287.635 178.125 288.125C178.677 288.609 178.964 289.279 178.984 290.133V294.023C178.984 294.799 179.083 295.417 179.281 295.875V296H177.766ZM175.367 294.898C175.82 294.898 176.25 294.781 176.656 294.547C177.062 294.312 177.357 294.008 177.539 293.633V291.898H176.406C174.635 291.898 173.75 292.417 173.75 293.453C173.75 293.906 173.901 294.26 174.203 294.516C174.505 294.771 174.893 294.898 175.367 294.898ZM184.641 294.977C185.156 294.977 185.607 294.82 185.992 294.508C186.378 294.195 186.591 293.805 186.633 293.336H188C187.974 293.82 187.807 294.281 187.5 294.719C187.193 295.156 186.781 295.505 186.266 295.766C185.755 296.026 185.214 296.156 184.641 296.156C183.49 296.156 182.573 295.773 181.891 295.008C181.214 294.237 180.875 293.185 180.875 291.852V291.609C180.875 290.786 181.026 290.055 181.328 289.414C181.63 288.773 182.062 288.276 182.625 287.922C183.193 287.568 183.862 287.391 184.633 287.391C185.581 287.391 186.367 287.674 186.992 288.242C187.622 288.81 187.958 289.547 188 290.453H186.633C186.591 289.906 186.383 289.458 186.008 289.109C185.638 288.755 185.18 288.578 184.633 288.578C183.898 288.578 183.328 288.844 182.922 289.375C182.521 289.901 182.32 290.664 182.32 291.664V291.938C182.32 292.911 182.521 293.661 182.922 294.188C183.323 294.714 183.896 294.977 184.641 294.977ZM193.016 294.977C193.531 294.977 193.982 294.82 194.367 294.508C194.753 294.195 194.966 293.805 195.008 293.336H196.375C196.349 293.82 196.182 294.281 195.875 294.719C195.568 295.156 195.156 295.505 194.641 295.766C194.13 296.026 193.589 296.156 193.016 296.156C191.865 296.156 190.948 295.773 190.266 295.008C189.589 294.237 189.25 293.185 189.25 291.852V291.609C189.25 290.786 189.401 290.055 189.703 289.414C190.005 288.773 190.438 288.276 191 287.922C191.568 287.568 192.237 287.391 193.008 287.391C193.956 287.391 194.742 287.674 195.367 288.242C195.997 288.81 196.333 289.547 196.375 290.453H195.008C194.966 289.906 194.758 289.458 194.383 289.109C194.013 288.755 193.555 288.578 193.008 288.578C192.273 288.578 191.703 288.844 191.297 289.375C190.896 289.901 190.695 290.664 190.695 291.664V291.938C190.695 292.911 190.896 293.661 191.297 294.188C191.698 294.714 192.271 294.977 193.016 294.977ZM199.578 290.461H201.773C202.732 290.471 203.49 290.721 204.047 291.211C204.604 291.701 204.883 292.365 204.883 293.203C204.883 294.047 204.596 294.724 204.023 295.234C203.451 295.745 202.68 296 201.711 296H198.133V287.547H199.578V290.461ZM207.898 296H206.445V287.547H207.898V296ZM199.578 291.641V294.82H201.727C202.268 294.82 202.688 294.682 202.984 294.406C203.281 294.125 203.43 293.742 203.43 293.258C203.43 292.789 203.284 292.406 202.992 292.109C202.706 291.807 202.302 291.651 201.781 291.641H199.578ZM217.352 287.547V296H215.898V288.742H213.023L212.852 291.906C212.758 293.359 212.513 294.398 212.117 295.023C211.727 295.648 211.104 295.974 210.25 296H209.672V294.727L210.086 294.695C210.555 294.643 210.891 294.372 211.094 293.883C211.297 293.393 211.427 292.487 211.484 291.164L211.641 287.547H217.352ZM222.305 292.398H221.25V296H219.797V287.547H221.25V291.125H222.195L225.039 287.547H226.789L223.445 291.609L227.07 296H225.234L222.305 292.398ZM231.078 293.883L233.047 287.547H234.594L231.195 297.305C230.669 298.711 229.833 299.414 228.688 299.414L228.414 299.391L227.875 299.289V298.117L228.266 298.148C228.755 298.148 229.135 298.049 229.406 297.852C229.682 297.654 229.909 297.292 230.086 296.766L230.406 295.906L227.391 287.547H228.969L231.078 293.883Z" fill="black"/>
<path d="M28.4746 57.3242H23.9043V70H22.0391V57.3242H17.4785V55.7812H28.4746V57.3242ZM32.2637 70H30.457V59.4336H32.2637V70ZM30.3105 56.6309C30.3105 56.3379 30.3984 56.0905 30.5742 55.8887C30.7565 55.6868 31.0234 55.5859 31.375 55.5859C31.7266 55.5859 31.9935 55.6868 32.1758 55.8887C32.3581 56.0905 32.4492 56.3379 32.4492 56.6309C32.4492 56.9238 32.3581 57.168 32.1758 57.3633C31.9935 57.5586 31.7266 57.6562 31.375 57.6562C31.0234 57.6562 30.7565 57.5586 30.5742 57.3633C30.3984 57.168 30.3105 56.9238 30.3105 56.6309ZM37.6152 56.875V59.4336H39.5879V60.8301H37.6152V67.3828C37.6152 67.806 37.7031 68.125 37.8789 68.3398C38.0547 68.5482 38.3542 68.6523 38.7773 68.6523C38.9857 68.6523 39.2721 68.6133 39.6367 68.5352V70C39.1615 70.1302 38.6992 70.1953 38.25 70.1953C37.4427 70.1953 36.834 69.9512 36.4238 69.4629C36.0137 68.9746 35.8086 68.2812 35.8086 67.3828V60.8301H33.8848V59.4336H35.8086V56.875H37.6152ZM43.6699 70H41.8633V55H43.6699V70ZM50.9551 70.1953C49.5228 70.1953 48.3574 69.7266 47.459 68.7891C46.5605 67.8451 46.1113 66.5853 46.1113 65.0098V64.6777C46.1113 63.6296 46.3099 62.6953 46.707 61.875C47.1107 61.0482 47.6706 60.4036 48.3867 59.9414C49.1094 59.4727 49.8906 59.2383 50.7305 59.2383C52.1042 59.2383 53.1719 59.6908 53.9336 60.5957C54.6953 61.5007 55.0762 62.7962 55.0762 64.4824V65.2344H47.918C47.944 66.276 48.2467 67.1191 48.8262 67.7637C49.4121 68.4017 50.1543 68.7207 51.0527 68.7207C51.6908 68.7207 52.2311 68.5905 52.6738 68.3301C53.1165 68.0697 53.5039 67.7246 53.8359 67.2949L54.9395 68.1543C54.054 69.515 52.7259 70.1953 50.9551 70.1953ZM50.7305 60.7227C50.0013 60.7227 49.3893 60.9896 48.8945 61.5234C48.3997 62.0508 48.0938 62.793 47.9766 63.75H53.2695V63.6133C53.2174 62.6953 52.9701 61.9857 52.5273 61.4844C52.0846 60.9766 51.4857 60.7227 50.7305 60.7227Z" fill="black"/>
<line y1="323.5" x2="419" y2="323.5" stroke="black" stroke-opacity="0.15"/>
<line y1="128.5" x2="419" y2="128.5" stroke="black" stroke-opacity="0.15"/>
<path d="M211.602 407.031H206.836L205.766 410H204.219L208.562 398.625H209.875L214.227 410H212.688L211.602 407.031ZM207.289 405.797H211.156L209.219 400.477L207.289 405.797ZM218.922 408.977C219.438 408.977 219.888 408.82 220.273 408.508C220.659 408.195 220.872 407.805 220.914 407.336H222.281C222.255 407.82 222.089 408.281 221.781 408.719C221.474 409.156 221.062 409.505 220.547 409.766C220.036 410.026 219.495 410.156 218.922 410.156C217.771 410.156 216.854 409.773 216.172 409.008C215.495 408.237 215.156 407.185 215.156 405.852V405.609C215.156 404.786 215.307 404.055 215.609 403.414C215.911 402.773 216.344 402.276 216.906 401.922C217.474 401.568 218.143 401.391 218.914 401.391C219.862 401.391 220.648 401.674 221.273 402.242C221.904 402.81 222.24 403.547 222.281 404.453H220.914C220.872 403.906 220.664 403.458 220.289 403.109C219.919 402.755 219.461 402.578 218.914 402.578C218.18 402.578 217.609 402.844 217.203 403.375C216.802 403.901 216.602 404.664 216.602 405.664V405.938C216.602 406.911 216.802 407.661 217.203 408.188C217.604 408.714 218.177 408.977 218.922 408.977ZM225.867 399.5V401.547H227.445V402.664H225.867V407.906C225.867 408.245 225.938 408.5 226.078 408.672C226.219 408.839 226.458 408.922 226.797 408.922C226.964 408.922 227.193 408.891 227.484 408.828V410C227.104 410.104 226.734 410.156 226.375 410.156C225.729 410.156 225.242 409.961 224.914 409.57C224.586 409.18 224.422 408.625 224.422 407.906V402.664H222.883V401.547H224.422V399.5H225.867ZM230.711 410H229.266V401.547H230.711V410ZM229.148 399.305C229.148 399.07 229.219 398.872 229.359 398.711C229.505 398.549 229.719 398.469 230 398.469C230.281 398.469 230.495 398.549 230.641 398.711C230.786 398.872 230.859 399.07 230.859 399.305C230.859 399.539 230.786 399.734 230.641 399.891C230.495 400.047 230.281 400.125 230 400.125C229.719 400.125 229.505 400.047 229.359 399.891C229.219 399.734 229.148 399.539 229.148 399.305ZM232.648 405.695C232.648 404.867 232.81 404.122 233.133 403.461C233.461 402.799 233.914 402.289 234.492 401.93C235.076 401.57 235.74 401.391 236.484 401.391C237.635 401.391 238.565 401.789 239.273 402.586C239.987 403.383 240.344 404.443 240.344 405.766V405.867C240.344 406.69 240.185 407.43 239.867 408.086C239.555 408.737 239.104 409.245 238.516 409.609C237.932 409.974 237.26 410.156 236.5 410.156C235.354 410.156 234.424 409.758 233.711 408.961C233.003 408.164 232.648 407.109 232.648 405.797V405.695ZM234.102 405.867C234.102 406.805 234.318 407.557 234.75 408.125C235.188 408.693 235.771 408.977 236.5 408.977C237.234 408.977 237.818 408.69 238.25 408.117C238.682 407.539 238.898 406.732 238.898 405.695C238.898 404.768 238.677 404.018 238.234 403.445C237.797 402.867 237.214 402.578 236.484 402.578C235.771 402.578 235.195 402.862 234.758 403.43C234.32 403.997 234.102 404.81 234.102 405.867ZM243.523 401.547L243.57 402.609C244.216 401.797 245.06 401.391 246.102 401.391C247.888 401.391 248.789 402.398 248.805 404.414V410H247.359V404.406C247.354 403.797 247.214 403.346 246.938 403.055C246.667 402.763 246.242 402.617 245.664 402.617C245.195 402.617 244.784 402.742 244.43 402.992C244.076 403.242 243.799 403.57 243.602 403.977V410H242.156V401.547H243.523ZM255.906 407.758C255.906 407.367 255.758 407.065 255.461 406.852C255.169 406.633 254.656 406.445 253.922 406.289C253.193 406.133 252.612 405.945 252.18 405.727C251.753 405.508 251.435 405.247 251.227 404.945C251.023 404.643 250.922 404.284 250.922 403.867C250.922 403.174 251.214 402.589 251.797 402.109C252.385 401.63 253.135 401.391 254.047 401.391C255.005 401.391 255.781 401.638 256.375 402.133C256.974 402.628 257.273 403.26 257.273 404.031H255.82C255.82 403.635 255.651 403.294 255.312 403.008C254.979 402.721 254.557 402.578 254.047 402.578C253.521 402.578 253.109 402.693 252.812 402.922C252.516 403.151 252.367 403.451 252.367 403.82C252.367 404.169 252.505 404.432 252.781 404.609C253.057 404.786 253.555 404.956 254.273 405.117C254.997 405.279 255.583 405.471 256.031 405.695C256.479 405.919 256.81 406.19 257.023 406.508C257.242 406.82 257.352 407.203 257.352 407.656C257.352 408.411 257.049 409.018 256.445 409.477C255.841 409.93 255.057 410.156 254.094 410.156C253.417 410.156 252.818 410.036 252.297 409.797C251.776 409.557 251.367 409.224 251.07 408.797C250.779 408.365 250.633 407.898 250.633 407.398H252.078C252.104 407.883 252.297 408.268 252.656 408.555C253.021 408.836 253.5 408.977 254.094 408.977C254.641 408.977 255.078 408.867 255.406 408.648C255.74 408.424 255.906 408.128 255.906 407.758Z" fill="#615353"/>
<path d="M87.0625 15H85.5547V9.74219H79.8203V15H78.3203V3.625H79.8203V8.51562H85.5547V3.625H87.0625V15ZM93.0078 15.1562C91.862 15.1562 90.9297 14.7812 90.2109 14.0312C89.4922 13.276 89.1328 12.2682 89.1328 11.0078V10.7422C89.1328 9.90365 89.2917 9.15625 89.6094 8.5C89.9323 7.83854 90.3802 7.32292 90.9531 6.95312C91.5312 6.57812 92.1562 6.39062 92.8281 6.39062C93.9271 6.39062 94.7812 6.7526 95.3906 7.47656C96 8.20052 96.3047 9.23698 96.3047 10.5859V11.1875H90.5781C90.599 12.0208 90.8411 12.6953 91.3047 13.2109C91.7734 13.7214 92.3672 13.9766 93.0859 13.9766C93.5964 13.9766 94.0286 13.8724 94.3828 13.6641C94.737 13.4557 95.0469 13.1797 95.3125 12.8359L96.1953 13.5234C95.487 14.612 94.4245 15.1562 93.0078 15.1562ZM92.8281 7.57812C92.2448 7.57812 91.7552 7.79167 91.3594 8.21875C90.9635 8.64062 90.7188 9.23438 90.625 10H94.8594V9.89062C94.8177 9.15625 94.6198 8.58854 94.2656 8.1875C93.9115 7.78125 93.4323 7.57812 92.8281 7.57812ZM103.203 15C103.12 14.8333 103.052 14.5365 103 14.1094C102.328 14.8073 101.526 15.1562 100.594 15.1562C99.7604 15.1562 99.0755 14.9219 98.5391 14.4531C98.0078 13.9792 97.7422 13.3802 97.7422 12.6562C97.7422 11.776 98.0755 11.0938 98.7422 10.6094C99.4141 10.1198 100.357 9.875 101.57 9.875H102.977V9.21094C102.977 8.70573 102.826 8.30469 102.523 8.00781C102.221 7.70573 101.776 7.55469 101.188 7.55469C100.672 7.55469 100.24 7.6849 99.8906 7.94531C99.5417 8.20573 99.3672 8.52083 99.3672 8.89062H97.9141C97.9141 8.46875 98.0625 8.0625 98.3594 7.67188C98.6615 7.27604 99.0677 6.96354 99.5781 6.73438C100.094 6.50521 100.659 6.39062 101.273 6.39062C102.247 6.39062 103.01 6.63542 103.562 7.125C104.115 7.60938 104.401 8.27865 104.422 9.13281V13.0234C104.422 13.7995 104.521 14.4167 104.719 14.875V15H103.203ZM100.805 13.8984C101.258 13.8984 101.688 13.7812 102.094 13.5469C102.5 13.3125 102.794 13.0078 102.977 12.6328V10.8984H101.844C100.073 10.8984 99.1875 11.4167 99.1875 12.4531C99.1875 12.9062 99.3385 13.2604 99.6406 13.5156C99.9427 13.7708 100.331 13.8984 100.805 13.8984ZM106.336 10.7031C106.336 9.40625 106.643 8.36458 107.258 7.57812C107.872 6.78646 108.677 6.39062 109.672 6.39062C110.661 6.39062 111.445 6.72917 112.023 7.40625V3H113.469V15H112.141L112.07 14.0938C111.492 14.8021 110.688 15.1562 109.656 15.1562C108.677 15.1562 107.878 14.7552 107.258 13.9531C106.643 13.151 106.336 12.1042 106.336 10.8125V10.7031ZM107.781 10.8672C107.781 11.8255 107.979 12.5755 108.375 13.1172C108.771 13.6589 109.318 13.9297 110.016 13.9297C110.932 13.9297 111.602 13.5182 112.023 12.6953V8.8125C111.591 8.01562 110.927 7.61719 110.031 7.61719C109.323 7.61719 108.771 7.89062 108.375 8.4375C107.979 8.98438 107.781 9.79427 107.781 10.8672ZM119.227 15.1562C118.081 15.1562 117.148 14.7812 116.43 14.0312C115.711 13.276 115.352 12.2682 115.352 11.0078V10.7422C115.352 9.90365 115.51 9.15625 115.828 8.5C116.151 7.83854 116.599 7.32292 117.172 6.95312C117.75 6.57812 118.375 6.39062 119.047 6.39062C120.146 6.39062 121 6.7526 121.609 7.47656C122.219 8.20052 122.523 9.23698 122.523 10.5859V11.1875H116.797C116.818 12.0208 117.06 12.6953 117.523 13.2109C117.992 13.7214 118.586 13.9766 119.305 13.9766C119.815 13.9766 120.247 13.8724 120.602 13.6641C120.956 13.4557 121.266 13.1797 121.531 12.8359L122.414 13.5234C121.706 14.612 120.643 15.1562 119.227 15.1562ZM119.047 7.57812C118.464 7.57812 117.974 7.79167 117.578 8.21875C117.182 8.64062 116.938 9.23438 116.844 10H121.078V9.89062C121.036 9.15625 120.839 8.58854 120.484 8.1875C120.13 7.78125 119.651 7.57812 119.047 7.57812ZM128.289 7.84375C128.07 7.80729 127.833 7.78906 127.578 7.78906C126.63 7.78906 125.987 8.19271 125.648 9V15H124.203V6.54688H125.609L125.633 7.52344C126.107 6.76823 126.779 6.39062 127.648 6.39062C127.93 6.39062 128.143 6.42708 128.289 6.5V7.84375Z" fill="#615353"/>
<path d="M441.688 143.391C441.547 144.594 441.102 145.523 440.352 146.18C439.607 146.831 438.615 147.156 437.375 147.156C436.031 147.156 434.953 146.674 434.141 145.711C433.333 144.747 432.93 143.458 432.93 141.844V140.75C432.93 139.693 433.117 138.763 433.492 137.961C433.872 137.159 434.409 136.544 435.102 136.117C435.794 135.685 436.596 135.469 437.508 135.469C438.716 135.469 439.685 135.807 440.414 136.484C441.143 137.156 441.568 138.089 441.688 139.281H440.18C440.049 138.375 439.766 137.719 439.328 137.312C438.896 136.906 438.289 136.703 437.508 136.703C436.549 136.703 435.797 137.057 435.25 137.766C434.708 138.474 434.438 139.482 434.438 140.789V141.891C434.438 143.125 434.695 144.107 435.211 144.836C435.727 145.565 436.448 145.93 437.375 145.93C438.208 145.93 438.846 145.742 439.289 145.367C439.737 144.987 440.034 144.328 440.18 143.391H441.688ZM443.133 142.695C443.133 141.867 443.294 141.122 443.617 140.461C443.945 139.799 444.398 139.289 444.977 138.93C445.56 138.57 446.224 138.391 446.969 138.391C448.12 138.391 449.049 138.789 449.758 139.586C450.471 140.383 450.828 141.443 450.828 142.766V142.867C450.828 143.69 450.669 144.43 450.352 145.086C450.039 145.737 449.589 146.245 449 146.609C448.417 146.974 447.745 147.156 446.984 147.156C445.839 147.156 444.909 146.758 444.195 145.961C443.487 145.164 443.133 144.109 443.133 142.797V142.695ZM444.586 142.867C444.586 143.805 444.802 144.557 445.234 145.125C445.672 145.693 446.255 145.977 446.984 145.977C447.719 145.977 448.302 145.69 448.734 145.117C449.167 144.539 449.383 143.732 449.383 142.695C449.383 141.768 449.161 141.018 448.719 140.445C448.281 139.867 447.698 139.578 446.969 139.578C446.255 139.578 445.68 139.862 445.242 140.43C444.805 140.997 444.586 141.81 444.586 142.867ZM454.008 138.547L454.055 139.609C454.701 138.797 455.544 138.391 456.586 138.391C458.372 138.391 459.273 139.398 459.289 141.414V147H457.844V141.406C457.839 140.797 457.698 140.346 457.422 140.055C457.151 139.763 456.727 139.617 456.148 139.617C455.68 139.617 455.268 139.742 454.914 139.992C454.56 140.242 454.284 140.57 454.086 140.977V147H452.641V138.547H454.008ZM463.43 136.5V138.547H465.008V139.664H463.43V144.906C463.43 145.245 463.5 145.5 463.641 145.672C463.781 145.839 464.021 145.922 464.359 145.922C464.526 145.922 464.755 145.891 465.047 145.828V147C464.667 147.104 464.297 147.156 463.938 147.156C463.292 147.156 462.805 146.961 462.477 146.57C462.148 146.18 461.984 145.625 461.984 144.906V139.664H460.445V138.547H461.984V136.5H463.43ZM470.211 147.156C469.065 147.156 468.133 146.781 467.414 146.031C466.695 145.276 466.336 144.268 466.336 143.008V142.742C466.336 141.904 466.495 141.156 466.812 140.5C467.135 139.839 467.583 139.323 468.156 138.953C468.734 138.578 469.359 138.391 470.031 138.391C471.13 138.391 471.984 138.753 472.594 139.477C473.203 140.201 473.508 141.237 473.508 142.586V143.188H467.781C467.802 144.021 468.044 144.695 468.508 145.211C468.977 145.721 469.57 145.977 470.289 145.977C470.799 145.977 471.232 145.872 471.586 145.664C471.94 145.456 472.25 145.18 472.516 144.836L473.398 145.523C472.69 146.612 471.628 147.156 470.211 147.156ZM470.031 139.578C469.448 139.578 468.958 139.792 468.562 140.219C468.167 140.641 467.922 141.234 467.828 142H472.062V141.891C472.021 141.156 471.823 140.589 471.469 140.188C471.115 139.781 470.635 139.578 470.031 139.578ZM476.555 138.547L476.602 139.609C477.247 138.797 478.091 138.391 479.133 138.391C480.919 138.391 481.82 139.398 481.836 141.414V147H480.391V141.406C480.385 140.797 480.245 140.346 479.969 140.055C479.698 139.763 479.273 139.617 478.695 139.617C478.227 139.617 477.815 139.742 477.461 139.992C477.107 140.242 476.831 140.57 476.633 140.977V147H475.188V138.547H476.555ZM485.977 136.5V138.547H487.555V139.664H485.977V144.906C485.977 145.245 486.047 145.5 486.188 145.672C486.328 145.839 486.568 145.922 486.906 145.922C487.073 145.922 487.302 145.891 487.594 145.828V147C487.214 147.104 486.844 147.156 486.484 147.156C485.839 147.156 485.352 146.961 485.023 146.57C484.695 146.18 484.531 145.625 484.531 144.906V139.664H482.992V138.547H484.531V136.5H485.977Z" fill="#615353"/>
<rect x="289" y="335" width="100" height="32" rx="4" fill="#34D156"/>
<path d="M316.156 357V345.625H320.055C321.341 345.625 322.32 345.883 322.992 346.398C323.664 346.914 324 347.682 324 348.703C324 349.224 323.859 349.693 323.578 350.109C323.297 350.526 322.885 350.849 322.344 351.078C322.958 351.245 323.432 351.56 323.766 352.023C324.104 352.482 324.273 353.034 324.273 353.68C324.273 354.747 323.93 355.568 323.242 356.141C322.56 356.714 321.581 357 320.305 357H316.156ZM318.133 351.867V355.422H320.328C320.948 355.422 321.432 355.268 321.781 354.961C322.13 354.654 322.305 354.227 322.305 353.68C322.305 352.497 321.701 351.893 320.492 351.867H318.133ZM318.133 350.414H320.07C320.685 350.414 321.164 350.276 321.508 350C321.857 349.719 322.031 349.323 322.031 348.812C322.031 348.25 321.87 347.844 321.547 347.594C321.229 347.344 320.732 347.219 320.055 347.219H318.133V350.414ZM331.188 356.172C330.63 356.828 329.839 357.156 328.812 357.156C327.896 357.156 327.201 356.888 326.727 356.352C326.258 355.815 326.023 355.039 326.023 354.023V348.547H327.922V354C327.922 355.073 328.367 355.609 329.258 355.609C330.18 355.609 330.802 355.279 331.125 354.617V348.547H333.023V357H331.234L331.188 356.172ZM337.336 346.492V348.547H338.828V349.953H337.336V354.672C337.336 354.995 337.398 355.229 337.523 355.375C337.654 355.516 337.883 355.586 338.211 355.586C338.43 355.586 338.651 355.56 338.875 355.508V356.977C338.443 357.096 338.026 357.156 337.625 357.156C336.167 357.156 335.438 356.352 335.438 354.742V349.953H334.047V348.547H335.438V346.492H337.336ZM342.664 346.492V348.547H344.156V349.953H342.664V354.672C342.664 354.995 342.727 355.229 342.852 355.375C342.982 355.516 343.211 355.586 343.539 355.586C343.758 355.586 343.979 355.56 344.203 355.508V356.977C343.771 357.096 343.354 357.156 342.953 357.156C341.495 357.156 340.766 356.352 340.766 354.742V349.953H339.375V348.547H340.766V346.492H342.664ZM345.023 352.695C345.023 351.867 345.188 351.122 345.516 350.461C345.844 349.794 346.305 349.284 346.898 348.93C347.492 348.57 348.174 348.391 348.945 348.391C350.086 348.391 351.01 348.758 351.719 349.492C352.432 350.227 352.818 351.201 352.875 352.414L352.883 352.859C352.883 353.693 352.721 354.438 352.398 355.094C352.081 355.75 351.622 356.258 351.023 356.617C350.43 356.977 349.742 357.156 348.961 357.156C347.768 357.156 346.812 356.76 346.094 355.969C345.38 355.172 345.023 354.112 345.023 352.789V352.695ZM346.922 352.859C346.922 353.729 347.102 354.411 347.461 354.906C347.82 355.396 348.32 355.641 348.961 355.641C349.602 355.641 350.099 355.391 350.453 354.891C350.812 354.391 350.992 353.659 350.992 352.695C350.992 351.841 350.807 351.164 350.438 350.664C350.073 350.164 349.576 349.914 348.945 349.914C348.326 349.914 347.833 350.161 347.469 350.656C347.104 351.146 346.922 351.88 346.922 352.859ZM356.25 348.547L356.305 349.523C356.93 348.768 357.75 348.391 358.766 348.391C360.526 348.391 361.422 349.398 361.453 351.414V357H359.555V351.523C359.555 350.987 359.438 350.591 359.203 350.336C358.974 350.076 358.596 349.945 358.07 349.945C357.305 349.945 356.734 350.292 356.359 350.984V357H354.461V348.547H356.25Z" fill="white"/>
</svg>
