<svg width="452" height="165" viewBox="0 0 452 165" fill="none" xmlns="http://www.w3.org/2000/svg">
<path d="M21.6201 76.4023C21.6201 76.015 21.4971 75.696 21.251 75.4453C21.0049 75.1901 20.5947 74.9622 20.0205 74.7617C19.4463 74.5566 18.9997 74.3675 18.6807 74.1943C17.6188 73.6247 17.0879 72.7816 17.0879 71.665C17.0879 70.9085 17.318 70.2865 17.7783 69.7988C18.2386 69.3112 18.863 69.0218 19.6514 68.9307V67.4404H20.7451V68.9443C21.5381 69.0583 22.151 69.3955 22.584 69.9561C23.0169 70.512 23.2334 71.2367 23.2334 72.1299H21.5791C21.5791 71.5557 21.4492 71.1045 21.1895 70.7764C20.9342 70.4437 20.5856 70.2773 20.1436 70.2773C19.7061 70.2773 19.3643 70.3958 19.1182 70.6328C18.8721 70.8698 18.749 71.2093 18.749 71.6514C18.749 72.0479 18.8698 72.3669 19.1113 72.6084C19.3574 72.8454 19.7721 73.071 20.3555 73.2852C20.9388 73.4993 21.3968 73.6976 21.7295 73.8799C22.0622 74.0622 22.3424 74.2718 22.5703 74.5088C22.7982 74.7412 22.9736 75.0101 23.0967 75.3154C23.2197 75.6208 23.2812 75.9785 23.2812 76.3887C23.2812 77.1589 23.0443 77.7832 22.5703 78.2617C22.1009 78.7402 21.4447 79.0228 20.6016 79.1094V80.4424H19.5146V79.1162C18.6123 79.016 17.9173 78.6924 17.4297 78.1455C16.9466 77.5986 16.7051 76.874 16.7051 75.9717H18.3662C18.3662 76.5459 18.5098 76.9902 18.7969 77.3047C19.0885 77.6191 19.4987 77.7764 20.0273 77.7764C20.5469 77.7764 20.9411 77.651 21.21 77.4004C21.4834 77.1497 21.6201 76.8171 21.6201 76.4023Z" fill="#4E4E4E"/>
<path d="M294.428 70.0469V76.6982C294.428 77.7555 294.088 78.5941 293.409 79.2139C292.735 79.8291 291.835 80.1367 290.709 80.1367C289.57 80.1367 288.665 79.8337 287.995 79.2275C287.325 78.6169 286.99 77.7715 286.99 76.6914V70.0469H288.713V76.7051C288.713 77.3704 288.882 77.8786 289.219 78.2295C289.556 78.5804 290.053 78.7559 290.709 78.7559C292.04 78.7559 292.705 78.054 292.705 76.6504V70.0469H294.428ZM301.482 77.4365C301.482 76.999 301.327 76.6618 301.018 76.4248C300.712 76.1878 300.159 75.9486 299.356 75.707C298.554 75.4655 297.916 75.1966 297.442 74.9004C296.535 74.3307 296.082 73.5879 296.082 72.6719C296.082 71.8698 296.408 71.209 297.06 70.6895C297.716 70.1699 298.566 69.9102 299.609 69.9102C300.302 69.9102 300.92 70.0378 301.462 70.293C302.004 70.5482 302.43 70.9128 302.74 71.3867C303.05 71.8561 303.205 72.3779 303.205 72.9521H301.482C301.482 72.4326 301.318 72.027 300.99 71.7354C300.667 71.4391 300.202 71.291 299.596 71.291C299.031 71.291 298.591 71.4118 298.276 71.6533C297.966 71.8949 297.812 72.2321 297.812 72.665C297.812 73.0296 297.98 73.335 298.317 73.5811C298.655 73.8226 299.211 74.0596 299.985 74.292C300.76 74.5199 301.382 74.7819 301.852 75.0781C302.321 75.3698 302.665 75.707 302.884 76.0898C303.103 76.4681 303.212 76.9124 303.212 77.4229C303.212 78.2523 302.893 78.9131 302.255 79.4053C301.621 79.8929 300.76 80.1367 299.671 80.1367C298.951 80.1367 298.288 80.0046 297.682 79.7402C297.08 79.4714 296.611 79.1022 296.273 78.6328C295.941 78.1634 295.774 77.6165 295.774 76.9922H297.504C297.504 77.5573 297.691 77.9948 298.064 78.3047C298.438 78.6146 298.974 78.7695 299.671 78.7695C300.272 78.7695 300.724 78.6488 301.024 78.4072C301.33 78.1611 301.482 77.8376 301.482 77.4365ZM304.729 80V70.0469H307.669C308.549 70.0469 309.328 70.2428 310.007 70.6348C310.69 71.0267 311.219 71.5827 311.593 72.3027C311.966 73.0228 312.153 73.8477 312.153 74.7773V75.2764C312.153 76.2197 311.964 77.0492 311.586 77.7646C311.212 78.4801 310.677 79.0316 309.979 79.4189C309.287 79.8063 308.492 80 307.594 80H304.729ZM306.459 71.4414V78.6191H307.587C308.494 78.6191 309.189 78.3366 309.672 77.7715C310.16 77.2018 310.408 76.3861 310.417 75.3242V74.7705C310.417 73.6904 310.182 72.8656 309.713 72.2959C309.243 71.7262 308.562 71.4414 307.669 71.4414H306.459Z" fill="#4E4E4E"/>
<rect x="2.5" y="52.5" width="321" height="44" rx="3.5" stroke="#494242"/>
<rect x="36.5" y="64.5" width="225" height="22" stroke="#969393"/>
<line x1="275" y1="97.0054" x2="275" y2="52.0054" stroke="#494242"/>
<path d="M324.042 52.0207C326.792 43.7078 330.486 42.367 338.59 41.949" stroke="#EC156F"/>
<path d="M343 42.5C343 43.8807 341.881 45 340.5 45C339.119 45 338 43.8807 338 42.5C338 41.1193 339.119 40 340.5 40C341.881 40 343 41.1193 343 42.5Z" fill="#EC156F"/>
<path d="M343 42.5C343 43.8807 341.881 45 340.5 45C339.119 45 338 43.8807 338 42.5C338 41.1193 339.119 40 340.5 40C341.881 40 343 41.1193 343 42.5Z" fill="#EC156F"/>
<path d="M143 52.5C143 53.8807 141.881 55 140.5 55C139.119 55 138 53.8807 138 52.5C138 51.1193 139.119 50 140.5 50C141.881 50 143 51.1193 143 52.5Z" fill="#EC156F"/>
<path d="M302 125.5C302 126.881 300.881 128 299.5 128C298.119 128 297 126.881 297 125.5C297 124.119 298.119 123 299.5 123C300.881 123 302 124.119 302 125.5Z" fill="#EC156F"/>
<path d="M271 42.5C271 43.8807 269.881 45 268.5 45C267.119 45 266 43.8807 266 42.5C266 41.1193 267.119 40 268.5 40C269.881 40 271 41.1193 271 42.5Z" fill="#EC156F"/>
<path d="M271 74.5C271 75.8807 269.881 77 268.5 77C267.119 77 266 75.8807 266 74.5C266 73.1193 267.119 72 268.5 72C269.881 72 271 73.1193 271 74.5Z" fill="#EC156F"/>
<path d="M302 86.5C302 87.8807 300.881 89 299.5 89C298.119 89 297 87.8807 297 86.5C297 85.1193 298.119 84 299.5 84C300.881 84 302 85.1193 302 86.5Z" fill="#EC156F"/>
<path d="M96 141.5C96 142.881 94.8807 144 93.5 144C92.1193 144 91 142.881 91 141.5C91 140.119 92.1193 139 93.5 139C94.8807 139 96 140.119 96 141.5Z" fill="#EC156F"/>
<path d="M96 85.5C96 86.8807 94.8807 88 93.5 88C92.1193 88 91 86.8807 91 85.5C91 84.1193 92.1193 83 93.5 83C94.8807 83 96 84.1193 96 85.5Z" fill="#EC156F"/>
<path d="M227 31.5C227 32.8807 225.881 34 224.5 34C223.119 34 222 32.8807 222 31.5C222 30.1193 223.119 29 224.5 29C225.881 29 227 30.1193 227 31.5Z" fill="#EC156F"/>
<path d="M190 117.5C190 118.881 188.881 120 187.5 120C186.119 120 185 118.881 185 117.5C185 116.119 186.119 115 187.5 115C188.881 115 190 116.119 190 117.5Z" fill="#EC156F"/>
<path d="M203 90.5C203 91.8807 201.881 93 200.5 93C199.119 93 198 91.8807 198 90.5C198 89.1193 199.119 88 200.5 88C201.881 88 203 89.1193 203 90.5Z" fill="#EC156F"/>
<path d="M23 26.5C23 27.8807 21.8807 29 20.5 29C19.1193 29 18 27.8807 18 26.5C18 25.1193 19.1193 24 20.5 24C21.8807 24 23 25.1193 23 26.5Z" fill="#EC156F"/>
<path d="M23 64.5C23 65.8807 21.8807 67 20.5 67C19.1193 67 18 65.8807 18 64.5C18 63.1193 19.1193 62 20.5 62C21.8807 62 23 63.1193 23 64.5Z" fill="#EC156F"/>
<path d="M33 115.5C33 116.881 31.8807 118 30.5 118C29.1193 118 28 116.881 28 115.5C28 114.119 29.1193 113 30.5 113C31.8807 113 33 114.119 33 115.5Z" fill="#EC156F"/>
<path d="M33 75.5C33 76.8807 31.8807 78 30.5 78C29.1193 78 28 76.8807 28 75.5C28 74.1193 29.1193 73 30.5 73C31.8807 73 33 74.1193 33 75.5Z" fill="#EC156F"/>
<path d="M328.5 52C328.5 55.0006 325.852 57.5 322.5 57.5C319.148 57.5 316.5 55.0006 316.5 52C316.5 48.9994 319.148 46.5 322.5 46.5C325.852 46.5 328.5 48.9994 328.5 52Z" stroke="#EC156F"/>
<path d="M349.25 28.8672C349.25 30.1589 348.953 31.1979 348.359 31.9844C347.766 32.7656 346.969 33.1562 345.969 33.1562C344.901 33.1562 344.076 32.7786 343.492 32.0234L343.422 33H342.094V21H343.539V25.4766C344.122 24.7526 344.927 24.3906 345.953 24.3906C346.979 24.3906 347.784 24.7786 348.367 25.5547C348.956 26.3307 349.25 27.3932 349.25 28.7422V28.8672ZM347.805 28.7031C347.805 27.7188 347.615 26.9583 347.234 26.4219C346.854 25.8854 346.307 25.6172 345.594 25.6172C344.641 25.6172 343.956 26.0599 343.539 26.9453V30.6016C343.982 31.487 344.672 31.9297 345.609 31.9297C346.302 31.9297 346.841 31.6615 347.227 31.125C347.612 30.5885 347.805 29.7812 347.805 28.7031ZM350.695 28.6953C350.695 27.8672 350.857 27.1224 351.18 26.4609C351.508 25.7995 351.961 25.2891 352.539 24.9297C353.122 24.5703 353.786 24.3906 354.531 24.3906C355.682 24.3906 356.612 24.7891 357.32 25.5859C358.034 26.3828 358.391 27.4427 358.391 28.7656V28.8672C358.391 29.6901 358.232 30.4297 357.914 31.0859C357.602 31.737 357.151 32.2448 356.562 32.6094C355.979 32.974 355.307 33.1562 354.547 33.1562C353.401 33.1562 352.471 32.7578 351.758 31.9609C351.049 31.1641 350.695 30.1094 350.695 28.7969V28.6953ZM352.148 28.8672C352.148 29.8047 352.365 30.5573 352.797 31.125C353.234 31.6927 353.818 31.9766 354.547 31.9766C355.281 31.9766 355.865 31.6901 356.297 31.1172C356.729 30.5391 356.945 29.7318 356.945 28.6953C356.945 27.7682 356.724 27.0182 356.281 26.4453C355.844 25.8672 355.26 25.5781 354.531 25.5781C353.818 25.5781 353.242 25.862 352.805 26.4297C352.367 26.9974 352.148 27.8099 352.148 28.8672ZM364.289 25.8438C364.07 25.8073 363.833 25.7891 363.578 25.7891C362.63 25.7891 361.987 26.1927 361.648 27V33H360.203V24.5469H361.609L361.633 25.5234C362.107 24.7682 362.779 24.3906 363.648 24.3906C363.93 24.3906 364.143 24.4271 364.289 24.5V25.8438ZM365.117 28.7031C365.117 27.4062 365.424 26.3646 366.039 25.5781C366.654 24.7865 367.458 24.3906 368.453 24.3906C369.443 24.3906 370.227 24.7292 370.805 25.4062V21H372.25V33H370.922L370.852 32.0938C370.273 32.8021 369.469 33.1562 368.438 33.1562C367.458 33.1562 366.659 32.7552 366.039 31.9531C365.424 31.151 365.117 30.1042 365.117 28.8125V28.7031ZM366.562 28.8672C366.562 29.8255 366.76 30.5755 367.156 31.1172C367.552 31.6589 368.099 31.9297 368.797 31.9297C369.714 31.9297 370.383 31.5182 370.805 30.6953V26.8125C370.372 26.0156 369.708 25.6172 368.812 25.6172C368.104 25.6172 367.552 25.8906 367.156 26.4375C366.76 26.9844 366.562 27.7943 366.562 28.8672ZM378.008 33.1562C376.862 33.1562 375.93 32.7812 375.211 32.0312C374.492 31.276 374.133 30.2682 374.133 29.0078V28.7422C374.133 27.9036 374.292 27.1562 374.609 26.5C374.932 25.8385 375.38 25.3229 375.953 24.9531C376.531 24.5781 377.156 24.3906 377.828 24.3906C378.927 24.3906 379.781 24.7526 380.391 25.4766C381 26.2005 381.305 27.237 381.305 28.5859V29.1875H375.578C375.599 30.0208 375.841 30.6953 376.305 31.2109C376.773 31.7214 377.367 31.9766 378.086 31.9766C378.596 31.9766 379.029 31.8724 379.383 31.6641C379.737 31.4557 380.047 31.1797 380.312 30.8359L381.195 31.5234C380.487 32.612 379.424 33.1562 378.008 33.1562ZM377.828 25.5781C377.245 25.5781 376.755 25.7917 376.359 26.2188C375.964 26.6406 375.719 27.2344 375.625 28H379.859V27.8906C379.818 27.1562 379.62 26.5885 379.266 26.1875C378.911 25.7812 378.432 25.5781 377.828 25.5781ZM387.07 25.8438C386.852 25.8073 386.615 25.7891 386.359 25.7891C385.411 25.7891 384.768 26.1927 384.43 27V33H382.984V24.5469H384.391L384.414 25.5234C384.888 24.7682 385.56 24.3906 386.43 24.3906C386.711 24.3906 386.924 24.4271 387.07 24.5V25.8438ZM396.461 25.8438C396.242 25.8073 396.005 25.7891 395.75 25.7891C394.802 25.7891 394.159 26.1927 393.82 27V33H392.375V24.5469H393.781L393.805 25.5234C394.279 24.7682 394.951 24.3906 395.82 24.3906C396.102 24.3906 396.315 24.4271 396.461 24.5V25.8438ZM402.703 33C402.62 32.8333 402.552 32.5365 402.5 32.1094C401.828 32.8073 401.026 33.1562 400.094 33.1562C399.26 33.1562 398.576 32.9219 398.039 32.4531C397.508 31.9792 397.242 31.3802 397.242 30.6562C397.242 29.776 397.576 29.0938 398.242 28.6094C398.914 28.1198 399.857 27.875 401.07 27.875H402.477V27.2109C402.477 26.7057 402.326 26.3047 402.023 26.0078C401.721 25.7057 401.276 25.5547 400.688 25.5547C400.172 25.5547 399.74 25.6849 399.391 25.9453C399.042 26.2057 398.867 26.5208 398.867 26.8906H397.414C397.414 26.4688 397.562 26.0625 397.859 25.6719C398.161 25.276 398.568 24.9635 399.078 24.7344C399.594 24.5052 400.159 24.3906 400.773 24.3906C401.747 24.3906 402.51 24.6354 403.062 25.125C403.615 25.6094 403.901 26.2786 403.922 27.1328V31.0234C403.922 31.7995 404.021 32.4167 404.219 32.875V33H402.703ZM400.305 31.8984C400.758 31.8984 401.188 31.7812 401.594 31.5469C402 31.3125 402.294 31.0078 402.477 30.6328V28.8984H401.344C399.573 28.8984 398.688 29.4167 398.688 30.4531C398.688 30.9062 398.839 31.2604 399.141 31.5156C399.443 31.7708 399.831 31.8984 400.305 31.8984ZM405.836 28.7031C405.836 27.4062 406.143 26.3646 406.758 25.5781C407.372 24.7865 408.177 24.3906 409.172 24.3906C410.161 24.3906 410.945 24.7292 411.523 25.4062V21H412.969V33H411.641L411.57 32.0938C410.992 32.8021 410.188 33.1562 409.156 33.1562C408.177 33.1562 407.378 32.7552 406.758 31.9531C406.143 31.151 405.836 30.1042 405.836 28.8125V28.7031ZM407.281 28.8672C407.281 29.8255 407.479 30.5755 407.875 31.1172C408.271 31.6589 408.818 31.9297 409.516 31.9297C410.432 31.9297 411.102 31.5182 411.523 30.6953V26.8125C411.091 26.0156 410.427 25.6172 409.531 25.6172C408.823 25.6172 408.271 25.8906 407.875 26.4375C407.479 26.9844 407.281 27.7943 407.281 28.8672ZM416.789 33H415.344V24.5469H416.789V33ZM415.227 22.3047C415.227 22.0703 415.297 21.8724 415.438 21.7109C415.583 21.5495 415.797 21.4688 416.078 21.4688C416.359 21.4688 416.573 21.5495 416.719 21.7109C416.865 21.8724 416.938 22.0703 416.938 22.3047C416.938 22.5391 416.865 22.7344 416.719 22.8906C416.573 23.0469 416.359 23.125 416.078 23.125C415.797 23.125 415.583 23.0469 415.438 22.8906C415.297 22.7344 415.227 22.5391 415.227 22.3047ZM424.328 32.1641C423.766 32.8255 422.94 33.1562 421.852 33.1562C420.951 33.1562 420.263 32.8958 419.789 32.375C419.32 31.849 419.083 31.0729 419.078 30.0469V24.5469H420.523V30.0078C420.523 31.2891 421.044 31.9297 422.086 31.9297C423.19 31.9297 423.924 31.5182 424.289 30.6953V24.5469H425.734V33H424.359L424.328 32.1641ZM432.859 30.7578C432.859 30.3672 432.711 30.0651 432.414 29.8516C432.122 29.6328 431.609 29.4453 430.875 29.2891C430.146 29.1328 429.565 28.9453 429.133 28.7266C428.706 28.5078 428.388 28.2474 428.18 27.9453C427.977 27.6432 427.875 27.2839 427.875 26.8672C427.875 26.1745 428.167 25.5885 428.75 25.1094C429.339 24.6302 430.089 24.3906 431 24.3906C431.958 24.3906 432.734 24.638 433.328 25.1328C433.927 25.6276 434.227 26.2604 434.227 27.0312H432.773C432.773 26.6354 432.604 26.2943 432.266 26.0078C431.932 25.7214 431.51 25.5781 431 25.5781C430.474 25.5781 430.062 25.6927 429.766 25.9219C429.469 26.151 429.32 26.4505 429.32 26.8203C429.32 27.1693 429.458 27.4323 429.734 27.6094C430.01 27.7865 430.508 27.9557 431.227 28.1172C431.951 28.2786 432.536 28.4714 432.984 28.6953C433.432 28.9193 433.763 29.1901 433.977 29.5078C434.195 29.8203 434.305 30.2031 434.305 30.6562C434.305 31.4115 434.003 32.0182 433.398 32.4766C432.794 32.9297 432.01 33.1562 431.047 33.1562C430.37 33.1562 429.771 33.0365 429.25 32.7969C428.729 32.5573 428.32 32.224 428.023 31.7969C427.732 31.3646 427.586 30.8984 427.586 30.3984H429.031C429.057 30.8828 429.25 31.2682 429.609 31.5547C429.974 31.8359 430.453 31.9766 431.047 31.9766C431.594 31.9766 432.031 31.8672 432.359 31.6484C432.693 31.4245 432.859 31.1276 432.859 30.7578Z" fill="#615353"/>
<path d="M130.25 16.8672C130.25 18.1589 129.953 19.1979 129.359 19.9844C128.766 20.7656 127.969 21.1562 126.969 21.1562C125.901 21.1562 125.076 20.7786 124.492 20.0234L124.422 21H123.094V9H124.539V13.4766C125.122 12.7526 125.927 12.3906 126.953 12.3906C127.979 12.3906 128.784 12.7786 129.367 13.5547C129.956 14.3307 130.25 15.3932 130.25 16.7422V16.8672ZM128.805 16.7031C128.805 15.7188 128.615 14.9583 128.234 14.4219C127.854 13.8854 127.307 13.6172 126.594 13.6172C125.641 13.6172 124.956 14.0599 124.539 14.9453V18.6016C124.982 19.487 125.672 19.9297 126.609 19.9297C127.302 19.9297 127.841 19.6615 128.227 19.125C128.612 18.5885 128.805 17.7812 128.805 16.7031ZM131.695 16.6953C131.695 15.8672 131.857 15.1224 132.18 14.4609C132.508 13.7995 132.961 13.2891 133.539 12.9297C134.122 12.5703 134.786 12.3906 135.531 12.3906C136.682 12.3906 137.612 12.7891 138.32 13.5859C139.034 14.3828 139.391 15.4427 139.391 16.7656V16.8672C139.391 17.6901 139.232 18.4297 138.914 19.0859C138.602 19.737 138.151 20.2448 137.562 20.6094C136.979 20.974 136.307 21.1562 135.547 21.1562C134.401 21.1562 133.471 20.7578 132.758 19.9609C132.049 19.1641 131.695 18.1094 131.695 16.7969V16.6953ZM133.148 16.8672C133.148 17.8047 133.365 18.5573 133.797 19.125C134.234 19.6927 134.818 19.9766 135.547 19.9766C136.281 19.9766 136.865 19.6901 137.297 19.1172C137.729 18.5391 137.945 17.7318 137.945 16.6953C137.945 15.7682 137.724 15.0182 137.281 14.4453C136.844 13.8672 136.26 13.5781 135.531 13.5781C134.818 13.5781 134.242 13.862 133.805 14.4297C133.367 14.9974 133.148 15.8099 133.148 16.8672ZM145.289 13.8438C145.07 13.8073 144.833 13.7891 144.578 13.7891C143.63 13.7891 142.987 14.1927 142.648 15V21H141.203V12.5469H142.609L142.633 13.5234C143.107 12.7682 143.779 12.3906 144.648 12.3906C144.93 12.3906 145.143 12.4271 145.289 12.5V13.8438ZM146.117 16.7031C146.117 15.4062 146.424 14.3646 147.039 13.5781C147.654 12.7865 148.458 12.3906 149.453 12.3906C150.443 12.3906 151.227 12.7292 151.805 13.4062V9H153.25V21H151.922L151.852 20.0938C151.273 20.8021 150.469 21.1562 149.438 21.1562C148.458 21.1562 147.659 20.7552 147.039 19.9531C146.424 19.151 146.117 18.1042 146.117 16.8125V16.7031ZM147.562 16.8672C147.562 17.8255 147.76 18.5755 148.156 19.1172C148.552 19.6589 149.099 19.9297 149.797 19.9297C150.714 19.9297 151.383 19.5182 151.805 18.6953V14.8125C151.372 14.0156 150.708 13.6172 149.812 13.6172C149.104 13.6172 148.552 13.8906 148.156 14.4375C147.76 14.9844 147.562 15.7943 147.562 16.8672ZM159.008 21.1562C157.862 21.1562 156.93 20.7812 156.211 20.0312C155.492 19.276 155.133 18.2682 155.133 17.0078V16.7422C155.133 15.9036 155.292 15.1562 155.609 14.5C155.932 13.8385 156.38 13.3229 156.953 12.9531C157.531 12.5781 158.156 12.3906 158.828 12.3906C159.927 12.3906 160.781 12.7526 161.391 13.4766C162 14.2005 162.305 15.237 162.305 16.5859V17.1875H156.578C156.599 18.0208 156.841 18.6953 157.305 19.2109C157.773 19.7214 158.367 19.9766 159.086 19.9766C159.596 19.9766 160.029 19.8724 160.383 19.6641C160.737 19.4557 161.047 19.1797 161.312 18.8359L162.195 19.5234C161.487 20.612 160.424 21.1562 159.008 21.1562ZM158.828 13.5781C158.245 13.5781 157.755 13.7917 157.359 14.2188C156.964 14.6406 156.719 15.2344 156.625 16H160.859V15.8906C160.818 15.1562 160.62 14.5885 160.266 14.1875C159.911 13.7812 159.432 13.5781 158.828 13.5781ZM168.07 13.8438C167.852 13.8073 167.615 13.7891 167.359 13.7891C166.411 13.7891 165.768 14.1927 165.43 15V21H163.984V12.5469H165.391L165.414 13.5234C165.888 12.7682 166.56 12.3906 167.43 12.3906C167.711 12.3906 167.924 12.4271 168.07 12.5V13.8438Z" fill="#615353"/>
<path d="M130.25 16.8672C130.25 18.1589 129.953 19.1979 129.359 19.9844C128.766 20.7656 127.969 21.1562 126.969 21.1562C125.901 21.1562 125.076 20.7786 124.492 20.0234L124.422 21H123.094V9H124.539V13.4766C125.122 12.7526 125.927 12.3906 126.953 12.3906C127.979 12.3906 128.784 12.7786 129.367 13.5547C129.956 14.3307 130.25 15.3932 130.25 16.7422V16.8672ZM128.805 16.7031C128.805 15.7188 128.615 14.9583 128.234 14.4219C127.854 13.8854 127.307 13.6172 126.594 13.6172C125.641 13.6172 124.956 14.0599 124.539 14.9453V18.6016C124.982 19.487 125.672 19.9297 126.609 19.9297C127.302 19.9297 127.841 19.6615 128.227 19.125C128.612 18.5885 128.805 17.7812 128.805 16.7031ZM131.695 16.6953C131.695 15.8672 131.857 15.1224 132.18 14.4609C132.508 13.7995 132.961 13.2891 133.539 12.9297C134.122 12.5703 134.786 12.3906 135.531 12.3906C136.682 12.3906 137.612 12.7891 138.32 13.5859C139.034 14.3828 139.391 15.4427 139.391 16.7656V16.8672C139.391 17.6901 139.232 18.4297 138.914 19.0859C138.602 19.737 138.151 20.2448 137.562 20.6094C136.979 20.974 136.307 21.1562 135.547 21.1562C134.401 21.1562 133.471 20.7578 132.758 19.9609C132.049 19.1641 131.695 18.1094 131.695 16.7969V16.6953ZM133.148 16.8672C133.148 17.8047 133.365 18.5573 133.797 19.125C134.234 19.6927 134.818 19.9766 135.547 19.9766C136.281 19.9766 136.865 19.6901 137.297 19.1172C137.729 18.5391 137.945 17.7318 137.945 16.6953C137.945 15.7682 137.724 15.0182 137.281 14.4453C136.844 13.8672 136.26 13.5781 135.531 13.5781C134.818 13.5781 134.242 13.862 133.805 14.4297C133.367 14.9974 133.148 15.8099 133.148 16.8672ZM145.289 13.8438C145.07 13.8073 144.833 13.7891 144.578 13.7891C143.63 13.7891 142.987 14.1927 142.648 15V21H141.203V12.5469H142.609L142.633 13.5234C143.107 12.7682 143.779 12.3906 144.648 12.3906C144.93 12.3906 145.143 12.4271 145.289 12.5V13.8438ZM146.117 16.7031C146.117 15.4062 146.424 14.3646 147.039 13.5781C147.654 12.7865 148.458 12.3906 149.453 12.3906C150.443 12.3906 151.227 12.7292 151.805 13.4062V9H153.25V21H151.922L151.852 20.0938C151.273 20.8021 150.469 21.1562 149.438 21.1562C148.458 21.1562 147.659 20.7552 147.039 19.9531C146.424 19.151 146.117 18.1042 146.117 16.8125V16.7031ZM147.562 16.8672C147.562 17.8255 147.76 18.5755 148.156 19.1172C148.552 19.6589 149.099 19.9297 149.797 19.9297C150.714 19.9297 151.383 19.5182 151.805 18.6953V14.8125C151.372 14.0156 150.708 13.6172 149.812 13.6172C149.104 13.6172 148.552 13.8906 148.156 14.4375C147.76 14.9844 147.562 15.7943 147.562 16.8672ZM159.008 21.1562C157.862 21.1562 156.93 20.7812 156.211 20.0312C155.492 19.276 155.133 18.2682 155.133 17.0078V16.7422C155.133 15.9036 155.292 15.1562 155.609 14.5C155.932 13.8385 156.38 13.3229 156.953 12.9531C157.531 12.5781 158.156 12.3906 158.828 12.3906C159.927 12.3906 160.781 12.7526 161.391 13.4766C162 14.2005 162.305 15.237 162.305 16.5859V17.1875H156.578C156.599 18.0208 156.841 18.6953 157.305 19.2109C157.773 19.7214 158.367 19.9766 159.086 19.9766C159.596 19.9766 160.029 19.8724 160.383 19.6641C160.737 19.4557 161.047 19.1797 161.312 18.8359L162.195 19.5234C161.487 20.612 160.424 21.1562 159.008 21.1562ZM158.828 13.5781C158.245 13.5781 157.755 13.7917 157.359 14.2188C156.964 14.6406 156.719 15.2344 156.625 16H160.859V15.8906C160.818 15.1562 160.62 14.5885 160.266 14.1875C159.911 13.7812 159.432 13.5781 158.828 13.5781ZM168.07 13.8438C167.852 13.8073 167.615 13.7891 167.359 13.7891C166.411 13.7891 165.768 14.1927 165.43 15V21H163.984V12.5469H165.391L165.414 13.5234C165.888 12.7682 166.56 12.3906 167.43 12.3906C167.711 12.3906 167.924 12.4271 168.07 12.5V13.8438Z" fill="#615353"/>
<path d="M130.25 16.8672C130.25 18.1589 129.953 19.1979 129.359 19.9844C128.766 20.7656 127.969 21.1562 126.969 21.1562C125.901 21.1562 125.076 20.7786 124.492 20.0234L124.422 21H123.094V9H124.539V13.4766C125.122 12.7526 125.927 12.3906 126.953 12.3906C127.979 12.3906 128.784 12.7786 129.367 13.5547C129.956 14.3307 130.25 15.3932 130.25 16.7422V16.8672ZM128.805 16.7031C128.805 15.7188 128.615 14.9583 128.234 14.4219C127.854 13.8854 127.307 13.6172 126.594 13.6172C125.641 13.6172 124.956 14.0599 124.539 14.9453V18.6016C124.982 19.487 125.672 19.9297 126.609 19.9297C127.302 19.9297 127.841 19.6615 128.227 19.125C128.612 18.5885 128.805 17.7812 128.805 16.7031ZM131.695 16.6953C131.695 15.8672 131.857 15.1224 132.18 14.4609C132.508 13.7995 132.961 13.2891 133.539 12.9297C134.122 12.5703 134.786 12.3906 135.531 12.3906C136.682 12.3906 137.612 12.7891 138.32 13.5859C139.034 14.3828 139.391 15.4427 139.391 16.7656V16.8672C139.391 17.6901 139.232 18.4297 138.914 19.0859C138.602 19.737 138.151 20.2448 137.562 20.6094C136.979 20.974 136.307 21.1562 135.547 21.1562C134.401 21.1562 133.471 20.7578 132.758 19.9609C132.049 19.1641 131.695 18.1094 131.695 16.7969V16.6953ZM133.148 16.8672C133.148 17.8047 133.365 18.5573 133.797 19.125C134.234 19.6927 134.818 19.9766 135.547 19.9766C136.281 19.9766 136.865 19.6901 137.297 19.1172C137.729 18.5391 137.945 17.7318 137.945 16.6953C137.945 15.7682 137.724 15.0182 137.281 14.4453C136.844 13.8672 136.26 13.5781 135.531 13.5781C134.818 13.5781 134.242 13.862 133.805 14.4297C133.367 14.9974 133.148 15.8099 133.148 16.8672ZM145.289 13.8438C145.07 13.8073 144.833 13.7891 144.578 13.7891C143.63 13.7891 142.987 14.1927 142.648 15V21H141.203V12.5469H142.609L142.633 13.5234C143.107 12.7682 143.779 12.3906 144.648 12.3906C144.93 12.3906 145.143 12.4271 145.289 12.5V13.8438ZM146.117 16.7031C146.117 15.4062 146.424 14.3646 147.039 13.5781C147.654 12.7865 148.458 12.3906 149.453 12.3906C150.443 12.3906 151.227 12.7292 151.805 13.4062V9H153.25V21H151.922L151.852 20.0938C151.273 20.8021 150.469 21.1562 149.438 21.1562C148.458 21.1562 147.659 20.7552 147.039 19.9531C146.424 19.151 146.117 18.1042 146.117 16.8125V16.7031ZM147.562 16.8672C147.562 17.8255 147.76 18.5755 148.156 19.1172C148.552 19.6589 149.099 19.9297 149.797 19.9297C150.714 19.9297 151.383 19.5182 151.805 18.6953V14.8125C151.372 14.0156 150.708 13.6172 149.812 13.6172C149.104 13.6172 148.552 13.8906 148.156 14.4375C147.76 14.9844 147.562 15.7943 147.562 16.8672ZM159.008 21.1562C157.862 21.1562 156.93 20.7812 156.211 20.0312C155.492 19.276 155.133 18.2682 155.133 17.0078V16.7422C155.133 15.9036 155.292 15.1562 155.609 14.5C155.932 13.8385 156.38 13.3229 156.953 12.9531C157.531 12.5781 158.156 12.3906 158.828 12.3906C159.927 12.3906 160.781 12.7526 161.391 13.4766C162 14.2005 162.305 15.237 162.305 16.5859V17.1875H156.578C156.599 18.0208 156.841 18.6953 157.305 19.2109C157.773 19.7214 158.367 19.9766 159.086 19.9766C159.596 19.9766 160.029 19.8724 160.383 19.6641C160.737 19.4557 161.047 19.1797 161.312 18.8359L162.195 19.5234C161.487 20.612 160.424 21.1562 159.008 21.1562ZM158.828 13.5781C158.245 13.5781 157.755 13.7917 157.359 14.2188C156.964 14.6406 156.719 15.2344 156.625 16H160.859V15.8906C160.818 15.1562 160.62 14.5885 160.266 14.1875C159.911 13.7812 159.432 13.5781 158.828 13.5781ZM168.07 13.8438C167.852 13.8073 167.615 13.7891 167.359 13.7891C166.411 13.7891 165.768 14.1927 165.43 15V21H163.984V12.5469H165.391L165.414 13.5234C165.888 12.7682 166.56 12.3906 167.43 12.3906C167.711 12.3906 167.924 12.4271 168.07 12.5V13.8438Z" fill="#615353"/>
<path d="M79.6641 156H78.2188V147.547H79.6641V156ZM78.1016 145.305C78.1016 145.07 78.1719 144.872 78.3125 144.711C78.4583 144.549 78.6719 144.469 78.9531 144.469C79.2344 144.469 79.4479 144.549 79.5938 144.711C79.7396 144.872 79.8125 145.07 79.8125 145.305C79.8125 145.539 79.7396 145.734 79.5938 145.891C79.4479 146.047 79.2344 146.125 78.9531 146.125C78.6719 146.125 78.4583 146.047 78.3125 145.891C78.1719 145.734 78.1016 145.539 78.1016 145.305ZM83.3516 147.547L83.3984 148.609C84.0443 147.797 84.888 147.391 85.9297 147.391C87.7161 147.391 88.6172 148.398 88.6328 150.414V156H87.1875V150.406C87.1823 149.797 87.0417 149.346 86.7656 149.055C86.4948 148.763 86.0703 148.617 85.4922 148.617C85.0234 148.617 84.612 148.742 84.2578 148.992C83.9036 149.242 83.6276 149.57 83.4297 149.977V156H81.9844V147.547H83.3516ZM97.9531 151.867C97.9531 153.154 97.6589 154.19 97.0703 154.977C96.4818 155.763 95.6849 156.156 94.6797 156.156C93.6536 156.156 92.8464 155.831 92.2578 155.18V159.25H90.8125V147.547H92.1328L92.2031 148.484C92.7917 147.755 93.6094 147.391 94.6562 147.391C95.6719 147.391 96.474 147.773 97.0625 148.539C97.6562 149.305 97.9531 150.37 97.9531 151.734V151.867ZM96.5078 151.703C96.5078 150.75 96.3047 149.997 95.8984 149.445C95.4922 148.893 94.9349 148.617 94.2266 148.617C93.3516 148.617 92.6953 149.005 92.2578 149.781V153.82C92.6901 154.591 93.3516 154.977 94.2422 154.977C94.9349 154.977 95.4844 154.703 95.8906 154.156C96.3021 153.604 96.5078 152.786 96.5078 151.703ZM105.016 155.164C104.453 155.826 103.628 156.156 102.539 156.156C101.638 156.156 100.951 155.896 100.477 155.375C100.008 154.849 99.7708 154.073 99.7656 153.047V147.547H101.211V153.008C101.211 154.289 101.732 154.93 102.773 154.93C103.878 154.93 104.612 154.518 104.977 153.695V147.547H106.422V156H105.047L105.016 155.164ZM110.586 145.5V147.547H112.164V148.664H110.586V153.906C110.586 154.245 110.656 154.5 110.797 154.672C110.938 154.839 111.177 154.922 111.516 154.922C111.682 154.922 111.911 154.891 112.203 154.828V156C111.823 156.104 111.453 156.156 111.094 156.156C110.448 156.156 109.961 155.961 109.633 155.57C109.305 155.18 109.141 154.625 109.141 153.906V148.664H107.602V147.547H109.141V145.5H110.586Z" fill="#615353"/>
<path d="M11.0156 12.7578C11.0156 12.3672 10.8672 12.0651 10.5703 11.8516C10.2786 11.6328 9.76562 11.4453 9.03125 11.2891C8.30208 11.1328 7.72135 10.9453 7.28906 10.7266C6.86198 10.5078 6.54427 10.2474 6.33594 9.94531C6.13281 9.64323 6.03125 9.28385 6.03125 8.86719C6.03125 8.17448 6.32292 7.58854 6.90625 7.10938C7.49479 6.63021 8.24479 6.39062 9.15625 6.39062C10.1146 6.39062 10.8906 6.63802 11.4844 7.13281C12.0833 7.6276 12.3828 8.26042 12.3828 9.03125H10.9297C10.9297 8.63542 10.7604 8.29427 10.4219 8.00781C10.0885 7.72135 9.66667 7.57812 9.15625 7.57812C8.63021 7.57812 8.21875 7.69271 7.92188 7.92188C7.625 8.15104 7.47656 8.45052 7.47656 8.82031C7.47656 9.16927 7.61458 9.43229 7.89062 9.60938C8.16667 9.78646 8.66406 9.95573 9.38281 10.1172C10.1068 10.2786 10.6927 10.4714 11.1406 10.6953C11.5885 10.9193 11.9193 11.1901 12.1328 11.5078C12.3516 11.8203 12.4609 12.2031 12.4609 12.6562C12.4609 13.4115 12.1589 14.0182 11.5547 14.4766C10.9505 14.9297 10.1667 15.1562 9.20312 15.1562C8.52604 15.1562 7.92708 15.0365 7.40625 14.7969C6.88542 14.5573 6.47656 14.224 6.17969 13.7969C5.88802 13.3646 5.74219 12.8984 5.74219 12.3984H7.1875C7.21354 12.8828 7.40625 13.2682 7.76562 13.5547C8.13021 13.8359 8.60938 13.9766 9.20312 13.9766C9.75 13.9766 10.1875 13.8672 10.5156 13.6484C10.849 13.4245 11.0156 13.1276 11.0156 12.7578ZM19.5625 14.1641C19 14.8255 18.1745 15.1562 17.0859 15.1562C16.1849 15.1562 15.4974 14.8958 15.0234 14.375C14.5547 13.849 14.3177 13.0729 14.3125 12.0469V6.54688H15.7578V12.0078C15.7578 13.2891 16.2786 13.9297 17.3203 13.9297C18.4245 13.9297 19.1589 13.5182 19.5234 12.6953V6.54688H20.9688V15H19.5938L19.5625 14.1641ZM23.8828 15V7.66406H22.5469V6.54688H23.8828V5.67969C23.8828 4.77344 24.125 4.07292 24.6094 3.57812C25.0938 3.08333 25.7786 2.83594 26.6641 2.83594C26.9974 2.83594 27.3281 2.88021 27.6562 2.96875L27.5781 4.14062C27.3333 4.09375 27.0729 4.07031 26.7969 4.07031C26.3281 4.07031 25.9661 4.20833 25.7109 4.48438C25.4557 4.75521 25.3281 5.14583 25.3281 5.65625V6.54688H28.4531V5.82812C28.4531 4.88542 28.7214 4.15104 29.2578 3.625C29.7995 3.09896 30.5625 2.83594 31.5469 2.83594C32.1302 2.83594 32.8672 2.99479 33.7578 3.3125L33.5156 4.53125C32.8646 4.27083 32.2422 4.14062 31.6484 4.14062C31.0286 4.14062 30.5807 4.27865 30.3047 4.55469C30.0339 4.83073 29.8984 5.25 29.8984 5.8125V6.54688H31.6328V7.66406H29.8984V15H28.4531V7.66406H25.3281V15H23.8828ZM34.4688 15H33.0234V6.54688H34.4688V15ZM39.6641 9.63281L41.5391 6.54688H43.2266L40.4609 10.7266L43.3125 15H41.6406L39.6875 11.8359L37.7344 15H36.0547L38.9062 10.7266L36.1406 6.54688H37.8125L39.6641 9.63281Z" fill="#615353"/>
<path d="M285.312 146C285.229 145.833 285.161 145.536 285.109 145.109C284.438 145.807 283.635 146.156 282.703 146.156C281.87 146.156 281.185 145.922 280.648 145.453C280.117 144.979 279.852 144.38 279.852 143.656C279.852 142.776 280.185 142.094 280.852 141.609C281.523 141.12 282.466 140.875 283.68 140.875H285.086V140.211C285.086 139.706 284.935 139.305 284.633 139.008C284.331 138.706 283.885 138.555 283.297 138.555C282.781 138.555 282.349 138.685 282 138.945C281.651 139.206 281.477 139.521 281.477 139.891H280.023C280.023 139.469 280.172 139.062 280.469 138.672C280.771 138.276 281.177 137.964 281.688 137.734C282.203 137.505 282.768 137.391 283.383 137.391C284.357 137.391 285.12 137.635 285.672 138.125C286.224 138.609 286.51 139.279 286.531 140.133V144.023C286.531 144.799 286.63 145.417 286.828 145.875V146H285.312ZM282.914 144.898C283.367 144.898 283.797 144.781 284.203 144.547C284.609 144.312 284.904 144.008 285.086 143.633V141.898H283.953C282.182 141.898 281.297 142.417 281.297 143.453C281.297 143.906 281.448 144.26 281.75 144.516C282.052 144.771 282.44 144.898 282.914 144.898ZM288.445 141.703C288.445 140.406 288.753 139.365 289.367 138.578C289.982 137.786 290.786 137.391 291.781 137.391C292.771 137.391 293.555 137.729 294.133 138.406V134H295.578V146H294.25L294.18 145.094C293.602 145.802 292.797 146.156 291.766 146.156C290.786 146.156 289.987 145.755 289.367 144.953C288.753 144.151 288.445 143.104 288.445 141.812V141.703ZM289.891 141.867C289.891 142.826 290.089 143.576 290.484 144.117C290.88 144.659 291.427 144.93 292.125 144.93C293.042 144.93 293.711 144.518 294.133 143.695V139.812C293.701 139.016 293.036 138.617 292.141 138.617C291.432 138.617 290.88 138.891 290.484 139.438C290.089 139.984 289.891 140.794 289.891 141.867ZM297.477 141.703C297.477 140.406 297.784 139.365 298.398 138.578C299.013 137.786 299.818 137.391 300.812 137.391C301.802 137.391 302.586 137.729 303.164 138.406V134H304.609V146H303.281L303.211 145.094C302.633 145.802 301.828 146.156 300.797 146.156C299.818 146.156 299.018 145.755 298.398 144.953C297.784 144.151 297.477 143.104 297.477 141.812V141.703ZM298.922 141.867C298.922 142.826 299.12 143.576 299.516 144.117C299.911 144.659 300.458 144.93 301.156 144.93C302.073 144.93 302.742 144.518 303.164 143.695V139.812C302.732 139.016 302.068 138.617 301.172 138.617C300.464 138.617 299.911 138.891 299.516 139.438C299.12 139.984 298.922 140.794 298.922 141.867ZM306.477 141.695C306.477 140.867 306.638 140.122 306.961 139.461C307.289 138.799 307.742 138.289 308.32 137.93C308.904 137.57 309.568 137.391 310.312 137.391C311.464 137.391 312.393 137.789 313.102 138.586C313.815 139.383 314.172 140.443 314.172 141.766V141.867C314.172 142.69 314.013 143.43 313.695 144.086C313.383 144.737 312.932 145.245 312.344 145.609C311.76 145.974 311.089 146.156 310.328 146.156C309.182 146.156 308.253 145.758 307.539 144.961C306.831 144.164 306.477 143.109 306.477 141.797V141.695ZM307.93 141.867C307.93 142.805 308.146 143.557 308.578 144.125C309.016 144.693 309.599 144.977 310.328 144.977C311.062 144.977 311.646 144.69 312.078 144.117C312.51 143.539 312.727 142.732 312.727 141.695C312.727 140.768 312.505 140.018 312.062 139.445C311.625 138.867 311.042 138.578 310.312 138.578C309.599 138.578 309.023 138.862 308.586 139.43C308.148 139.997 307.93 140.81 307.93 141.867ZM317.352 137.547L317.398 138.609C318.044 137.797 318.888 137.391 319.93 137.391C321.716 137.391 322.617 138.398 322.633 140.414V146H321.188V140.406C321.182 139.797 321.042 139.346 320.766 139.055C320.495 138.763 320.07 138.617 319.492 138.617C319.023 138.617 318.612 138.742 318.258 138.992C317.904 139.242 317.628 139.57 317.43 139.977V146H315.984V137.547H317.352Z" fill="#615353"/>
<path d="M190.933 7.80566V9.60352H192.238V10.834H190.933V14.9629C190.933 15.2454 190.987 15.4505 191.097 15.5781C191.211 15.7012 191.411 15.7627 191.698 15.7627C191.89 15.7627 192.083 15.7399 192.279 15.6943V16.9795C191.901 17.0843 191.536 17.1367 191.186 17.1367C189.91 17.1367 189.271 16.4326 189.271 15.0244V10.834H188.055V9.60352H189.271V7.80566H190.933ZM192.997 13.2334C192.997 12.5088 193.141 11.8571 193.428 11.2783C193.715 10.695 194.118 10.2484 194.638 9.93848C195.157 9.62402 195.754 9.4668 196.429 9.4668C197.427 9.4668 198.236 9.78809 198.855 10.4307C199.48 11.0732 199.817 11.9255 199.867 12.9873L199.874 13.377C199.874 14.1061 199.733 14.7578 199.45 15.332C199.172 15.9062 198.771 16.3506 198.247 16.665C197.728 16.9795 197.126 17.1367 196.442 17.1367C195.399 17.1367 194.562 16.7904 193.934 16.0977C193.309 15.4004 192.997 14.473 192.997 13.3154V13.2334ZM194.658 13.377C194.658 14.138 194.815 14.735 195.13 15.168C195.444 15.5964 195.882 15.8105 196.442 15.8105C197.003 15.8105 197.438 15.5918 197.748 15.1543C198.062 14.7168 198.22 14.0765 198.22 13.2334C198.22 12.486 198.058 11.8936 197.734 11.4561C197.415 11.0186 196.98 10.7998 196.429 10.7998C195.886 10.7998 195.456 11.0163 195.137 11.4492C194.818 11.8776 194.658 12.5202 194.658 13.377ZM207.756 13.377C207.756 14.5208 207.496 15.4346 206.977 16.1182C206.457 16.7972 205.76 17.1367 204.885 17.1367C204.074 17.1367 203.424 16.8701 202.937 16.3369V19.8438H201.275V9.60352H202.807L202.875 10.3555C203.363 9.76302 204.026 9.4668 204.864 9.4668C205.767 9.4668 206.473 9.80404 206.983 10.4785C207.498 11.1484 207.756 12.0804 207.756 13.2744V13.377ZM206.102 13.2334C206.102 12.4951 205.953 11.9095 205.657 11.4766C205.366 11.0436 204.946 10.8271 204.399 10.8271C203.72 10.8271 203.233 11.1074 202.937 11.668V14.9492C203.237 15.5234 203.729 15.8105 204.413 15.8105C204.942 15.8105 205.354 15.5986 205.65 15.1748C205.951 14.7464 206.102 14.0993 206.102 13.2334ZM219.131 13.377C219.131 14.5208 218.871 15.4346 218.352 16.1182C217.832 16.7972 217.135 17.1367 216.26 17.1367C215.449 17.1367 214.799 16.8701 214.312 16.3369V19.8438H212.65V9.60352H214.182L214.25 10.3555C214.738 9.76302 215.401 9.4668 216.239 9.4668C217.142 9.4668 217.848 9.80404 218.358 10.4785C218.873 11.1484 219.131 12.0804 219.131 13.2744V13.377ZM217.477 13.2334C217.477 12.4951 217.328 11.9095 217.032 11.4766C216.741 11.0436 216.321 10.8271 215.774 10.8271C215.095 10.8271 214.608 11.1074 214.312 11.668V14.9492C214.612 15.5234 215.104 15.8105 215.788 15.8105C216.317 15.8105 216.729 15.5986 217.025 15.1748C217.326 14.7464 217.477 14.0993 217.477 13.2334ZM224.962 17C224.889 16.8587 224.825 16.6286 224.771 16.3096C224.242 16.861 223.595 17.1367 222.829 17.1367C222.086 17.1367 221.48 16.9248 221.011 16.501C220.541 16.0771 220.307 15.5531 220.307 14.9287C220.307 14.1403 220.598 13.5365 221.182 13.1172C221.77 12.6934 222.608 12.4814 223.697 12.4814H224.716V11.9961C224.716 11.6133 224.609 11.3079 224.395 11.0801C224.18 10.8477 223.854 10.7314 223.417 10.7314C223.039 10.7314 222.729 10.8271 222.487 11.0186C222.246 11.2054 222.125 11.4447 222.125 11.7363H220.464C220.464 11.3307 220.598 10.9525 220.867 10.6016C221.136 10.2461 221.501 9.9681 221.961 9.76758C222.426 9.56706 222.943 9.4668 223.513 9.4668C224.379 9.4668 225.069 9.68555 225.584 10.123C226.099 10.556 226.363 11.1667 226.377 11.9551V15.291C226.377 15.9564 226.47 16.4873 226.657 16.8838V17H224.962ZM223.137 15.8037C223.465 15.8037 223.772 15.724 224.06 15.5645C224.351 15.4049 224.57 15.1908 224.716 14.9219V13.5273H223.82C223.205 13.5273 222.743 13.6344 222.433 13.8486C222.123 14.0628 221.968 14.3659 221.968 14.7578C221.968 15.0768 222.073 15.332 222.282 15.5234C222.496 15.7103 222.781 15.8037 223.137 15.8037ZM227.806 13.2471C227.806 12.1077 228.07 11.194 228.599 10.5059C229.127 9.81315 229.836 9.4668 230.725 9.4668C231.508 9.4668 232.142 9.74023 232.625 10.2871V6.5H234.286V17H232.782L232.7 16.2344C232.203 16.8359 231.54 17.1367 230.711 17.1367C229.845 17.1367 229.143 16.7881 228.605 16.0908C228.072 15.3936 227.806 14.4456 227.806 13.2471ZM229.467 13.3906C229.467 14.1426 229.61 14.7305 229.897 15.1543C230.189 15.5736 230.602 15.7832 231.135 15.7832C231.814 15.7832 232.311 15.4801 232.625 14.874V11.7158C232.32 11.1234 231.827 10.8271 231.148 10.8271C230.611 10.8271 230.196 11.0413 229.904 11.4697C229.613 11.8936 229.467 12.5339 229.467 13.3906ZM235.708 13.2471C235.708 12.1077 235.972 11.194 236.501 10.5059C237.03 9.81315 237.738 9.4668 238.627 9.4668C239.411 9.4668 240.044 9.74023 240.527 10.2871V6.5H242.188V17H240.685L240.603 16.2344C240.106 16.8359 239.443 17.1367 238.613 17.1367C237.747 17.1367 237.046 16.7881 236.508 16.0908C235.975 15.3936 235.708 14.4456 235.708 13.2471ZM237.369 13.3906C237.369 14.1426 237.513 14.7305 237.8 15.1543C238.091 15.5736 238.504 15.7832 239.037 15.7832C239.716 15.7832 240.213 15.4801 240.527 14.874V11.7158C240.222 11.1234 239.73 10.8271 239.051 10.8271C238.513 10.8271 238.098 11.0413 237.807 11.4697C237.515 11.8936 237.369 12.5339 237.369 13.3906ZM245.688 17H244.027V9.60352H245.688V17ZM243.925 7.68262C243.925 7.42741 244.005 7.21549 244.164 7.04688C244.328 6.87826 244.561 6.79395 244.861 6.79395C245.162 6.79395 245.395 6.87826 245.559 7.04688C245.723 7.21549 245.805 7.42741 245.805 7.68262C245.805 7.93327 245.723 8.1429 245.559 8.31152C245.395 8.47559 245.162 8.55762 244.861 8.55762C244.561 8.55762 244.328 8.47559 244.164 8.31152C244.005 8.1429 243.925 7.93327 243.925 7.68262ZM249.045 9.60352L249.093 10.458C249.64 9.7972 250.357 9.4668 251.246 9.4668C252.786 9.4668 253.57 10.3486 253.598 12.1123V17H251.937V12.208C251.937 11.7386 251.834 11.3923 251.629 11.1689C251.428 10.9411 251.098 10.8271 250.638 10.8271C249.968 10.8271 249.469 11.1302 249.141 11.7363V17H247.479V9.60352H249.045ZM255.006 13.2471C255.006 12.0986 255.275 11.1826 255.812 10.499C256.355 9.81087 257.073 9.4668 257.966 9.4668C258.809 9.4668 259.472 9.76074 259.955 10.3486L260.03 9.60352H261.527V16.7744C261.527 17.7451 261.224 18.5107 260.618 19.0713C260.017 19.6318 259.203 19.9121 258.178 19.9121C257.635 19.9121 257.104 19.7982 256.585 19.5703C256.07 19.347 255.678 19.0531 255.409 18.6885L256.195 17.6904C256.706 18.2965 257.335 18.5996 258.082 18.5996C258.633 18.5996 259.069 18.4492 259.388 18.1484C259.707 17.8522 259.866 17.4147 259.866 16.8359V16.3369C259.388 16.8701 258.75 17.1367 257.952 17.1367C257.086 17.1367 256.378 16.7926 255.826 16.1045C255.279 15.4163 255.006 14.4639 255.006 13.2471ZM256.66 13.3906C256.66 14.1335 256.811 14.7191 257.111 15.1475C257.417 15.5713 257.838 15.7832 258.376 15.7832C259.046 15.7832 259.543 15.4961 259.866 14.9219V11.668C259.552 11.1074 259.06 10.8271 258.39 10.8271C257.843 10.8271 257.417 11.0436 257.111 11.4766C256.811 11.9095 256.66 12.5475 256.66 13.3906Z" fill="#615353"/>
<path d="M243.724 30.1211C243.505 30.0846 243.279 30.0664 243.047 30.0664C242.286 30.0664 241.773 30.3581 241.509 30.9414V36H239.848V28.6035H241.434L241.475 29.4307C241.876 28.7881 242.432 28.4668 243.143 28.4668C243.38 28.4668 243.576 28.4987 243.73 28.5625L243.724 30.1211ZM246.54 36H244.879V28.6035H246.54V36ZM244.776 26.6826C244.776 26.4274 244.856 26.2155 245.016 26.0469C245.18 25.8783 245.412 25.7939 245.713 25.7939C246.014 25.7939 246.246 25.8783 246.41 26.0469C246.574 26.2155 246.656 26.4274 246.656 26.6826C246.656 26.9333 246.574 27.1429 246.41 27.3115C246.246 27.4756 246.014 27.5576 245.713 27.5576C245.412 27.5576 245.18 27.4756 245.016 27.3115C244.856 27.1429 244.776 26.9333 244.776 26.6826ZM248.064 32.2471C248.064 31.0986 248.333 30.1826 248.871 29.499C249.413 28.8109 250.131 28.4668 251.024 28.4668C251.868 28.4668 252.531 28.7607 253.014 29.3486L253.089 28.6035H254.586V35.7744C254.586 36.7451 254.283 37.5107 253.677 38.0713C253.075 38.6318 252.262 38.9121 251.236 38.9121C250.694 38.9121 250.163 38.7982 249.644 38.5703C249.129 38.347 248.737 38.0531 248.468 37.6885L249.254 36.6904C249.764 37.2965 250.393 37.5996 251.141 37.5996C251.692 37.5996 252.127 37.4492 252.446 37.1484C252.765 36.8522 252.925 36.4147 252.925 35.8359V35.3369C252.446 35.8701 251.808 36.1367 251.011 36.1367C250.145 36.1367 249.436 35.7926 248.885 35.1045C248.338 34.4163 248.064 33.4639 248.064 32.2471ZM249.719 32.3906C249.719 33.1335 249.869 33.7191 250.17 34.1475C250.475 34.5713 250.897 34.7832 251.435 34.7832C252.104 34.7832 252.601 34.4961 252.925 33.9219V30.668C252.61 30.1074 252.118 29.8271 251.448 29.8271C250.901 29.8271 250.475 30.0436 250.17 30.4766C249.869 30.9095 249.719 31.5475 249.719 32.3906ZM257.936 29.4102C258.478 28.7812 259.164 28.4668 259.993 28.4668C261.57 28.4668 262.37 29.3669 262.393 31.167V36H260.731V31.2285C260.731 30.7181 260.62 30.3581 260.396 30.1484C260.178 29.9342 259.854 29.8271 259.426 29.8271C258.76 29.8271 258.264 30.1234 257.936 30.7158V36H256.274V25.5H257.936V29.4102ZM266.159 26.8057V28.6035H267.465V29.834H266.159V33.9629C266.159 34.2454 266.214 34.4505 266.323 34.5781C266.437 34.7012 266.638 34.7627 266.925 34.7627C267.116 34.7627 267.31 34.7399 267.506 34.6943V35.9795C267.128 36.0843 266.763 36.1367 266.412 36.1367C265.136 36.1367 264.498 35.4326 264.498 34.0244V29.834H263.281V28.6035H264.498V26.8057H266.159ZM278.703 32.377C278.703 33.5208 278.443 34.4346 277.924 35.1182C277.404 35.7972 276.707 36.1367 275.832 36.1367C275.021 36.1367 274.371 35.8701 273.884 35.3369V38.8438H272.223V28.6035H273.754L273.822 29.3555C274.31 28.763 274.973 28.4668 275.812 28.4668C276.714 28.4668 277.42 28.804 277.931 29.4785C278.446 30.1484 278.703 31.0804 278.703 32.2744V32.377ZM277.049 32.2334C277.049 31.4951 276.901 30.9095 276.604 30.4766C276.313 30.0436 275.894 29.8271 275.347 29.8271C274.668 29.8271 274.18 30.1074 273.884 30.668V33.9492C274.185 34.5234 274.677 34.8105 275.36 34.8105C275.889 34.8105 276.301 34.5986 276.598 34.1748C276.898 33.7464 277.049 33.0993 277.049 32.2334ZM284.534 36C284.461 35.8587 284.397 35.6286 284.343 35.3096C283.814 35.861 283.167 36.1367 282.401 36.1367C281.659 36.1367 281.052 35.9248 280.583 35.501C280.114 35.0771 279.879 34.5531 279.879 33.9287C279.879 33.1403 280.171 32.5365 280.754 32.1172C281.342 31.6934 282.18 31.4814 283.27 31.4814H284.288V30.9961C284.288 30.6133 284.181 30.3079 283.967 30.0801C283.753 29.8477 283.427 29.7314 282.989 29.7314C282.611 29.7314 282.301 29.8271 282.06 30.0186C281.818 30.2054 281.697 30.4447 281.697 30.7363H280.036C280.036 30.3307 280.171 29.9525 280.439 29.6016C280.708 29.2461 281.073 28.9681 281.533 28.7676C281.998 28.5671 282.515 28.4668 283.085 28.4668C283.951 28.4668 284.641 28.6855 285.156 29.123C285.671 29.556 285.936 30.1667 285.949 30.9551V34.291C285.949 34.9564 286.043 35.4873 286.229 35.8838V36H284.534ZM282.709 34.8037C283.037 34.8037 283.345 34.724 283.632 34.5645C283.924 34.4049 284.142 34.1908 284.288 33.9219V32.5273H283.393C282.777 32.5273 282.315 32.6344 282.005 32.8486C281.695 33.0628 281.54 33.3659 281.54 33.7578C281.54 34.0768 281.645 34.332 281.854 34.5234C282.069 34.7103 282.354 34.8037 282.709 34.8037ZM287.378 32.2471C287.378 31.1077 287.642 30.194 288.171 29.5059C288.7 28.8132 289.408 28.4668 290.297 28.4668C291.081 28.4668 291.714 28.7402 292.197 29.2871V25.5H293.858V36H292.354L292.272 35.2344C291.776 35.8359 291.113 36.1367 290.283 36.1367C289.417 36.1367 288.715 35.7881 288.178 35.0908C287.645 34.3936 287.378 33.4456 287.378 32.2471ZM289.039 32.3906C289.039 33.1426 289.183 33.7305 289.47 34.1543C289.761 34.5736 290.174 34.7832 290.707 34.7832C291.386 34.7832 291.883 34.4801 292.197 33.874V30.7158C291.892 30.1234 291.4 29.8271 290.721 29.8271C290.183 29.8271 289.768 30.0413 289.477 30.4697C289.185 30.8936 289.039 31.5339 289.039 32.3906ZM295.28 32.2471C295.28 31.1077 295.545 30.194 296.073 29.5059C296.602 28.8132 297.311 28.4668 298.199 28.4668C298.983 28.4668 299.617 28.7402 300.1 29.2871V25.5H301.761V36H300.257L300.175 35.2344C299.678 35.8359 299.015 36.1367 298.186 36.1367C297.32 36.1367 296.618 35.7881 296.08 35.0908C295.547 34.3936 295.28 33.4456 295.28 32.2471ZM296.941 32.3906C296.941 33.1426 297.085 33.7305 297.372 34.1543C297.664 34.5736 298.076 34.7832 298.609 34.7832C299.288 34.7832 299.785 34.4801 300.1 33.874V30.7158C299.794 30.1234 299.302 29.8271 298.623 29.8271C298.085 29.8271 297.671 30.0413 297.379 30.4697C297.087 30.8936 296.941 31.5339 296.941 32.3906ZM305.261 36H303.6V28.6035H305.261V36ZM303.497 26.6826C303.497 26.4274 303.577 26.2155 303.736 26.0469C303.9 25.8783 304.133 25.7939 304.434 25.7939C304.734 25.7939 304.967 25.8783 305.131 26.0469C305.295 26.2155 305.377 26.4274 305.377 26.6826C305.377 26.9333 305.295 27.1429 305.131 27.3115C304.967 27.4756 304.734 27.5576 304.434 27.5576C304.133 27.5576 303.9 27.4756 303.736 27.3115C303.577 27.1429 303.497 26.9333 303.497 26.6826ZM308.617 28.6035L308.665 29.458C309.212 28.7972 309.93 28.4668 310.818 28.4668C312.359 28.4668 313.143 29.3486 313.17 31.1123V36H311.509V31.208C311.509 30.7386 311.406 30.3923 311.201 30.1689C311.001 29.9411 310.67 29.8271 310.21 29.8271C309.54 29.8271 309.041 30.1302 308.713 30.7363V36H307.052V28.6035H308.617ZM314.578 32.2471C314.578 31.0986 314.847 30.1826 315.385 29.499C315.927 28.8109 316.645 28.4668 317.538 28.4668C318.381 28.4668 319.044 28.7607 319.527 29.3486L319.603 28.6035H321.1V35.7744C321.1 36.7451 320.797 37.5107 320.19 38.0713C319.589 38.6318 318.775 38.9121 317.75 38.9121C317.208 38.9121 316.677 38.7982 316.157 38.5703C315.642 38.347 315.25 38.0531 314.981 37.6885L315.768 36.6904C316.278 37.2965 316.907 37.5996 317.654 37.5996C318.206 37.5996 318.641 37.4492 318.96 37.1484C319.279 36.8522 319.438 36.4147 319.438 35.8359V35.3369C318.96 35.8701 318.322 36.1367 317.524 36.1367C316.659 36.1367 315.95 35.7926 315.398 35.1045C314.852 34.4163 314.578 33.4639 314.578 32.2471ZM316.232 32.3906C316.232 33.1335 316.383 33.7191 316.684 34.1475C316.989 34.5713 317.41 34.7832 317.948 34.7832C318.618 34.7832 319.115 34.4961 319.438 33.9219V30.668C319.124 30.1074 318.632 29.8271 317.962 29.8271C317.415 29.8271 316.989 30.0436 316.684 30.4766C316.383 30.9095 316.232 31.5475 316.232 32.3906Z" fill="#615353"/>
<path d="M2.61816 130H0.957031V119.5H2.61816V130ZM7.69043 130.137C6.6377 130.137 5.7832 129.806 5.12695 129.146C4.47526 128.48 4.14941 127.596 4.14941 126.493V126.288C4.14941 125.55 4.29069 124.891 4.57324 124.312C4.86035 123.729 5.26139 123.276 5.77637 122.952C6.29134 122.629 6.86556 122.467 7.49902 122.467C8.50618 122.467 9.2832 122.788 9.83008 123.431C10.3815 124.073 10.6572 124.982 10.6572 126.158V126.828H5.82422C5.87435 127.439 6.07715 127.922 6.43262 128.277C6.79264 128.633 7.24382 128.811 7.78613 128.811C8.5472 128.811 9.16699 128.503 9.64551 127.888L10.541 128.742C10.2448 129.184 9.84831 129.528 9.35156 129.774C8.85938 130.016 8.30566 130.137 7.69043 130.137ZM7.49219 123.8C7.03646 123.8 6.66732 123.959 6.38477 124.278C6.10677 124.597 5.92904 125.042 5.85156 125.611H9.0166V125.488C8.98014 124.932 8.83203 124.513 8.57227 124.23C8.3125 123.943 7.95247 123.8 7.49219 123.8ZM12.5371 130V123.834H11.4092V122.604H12.5371V121.927C12.5371 121.106 12.765 120.473 13.2207 120.026C13.6764 119.58 14.3145 119.356 15.1348 119.356C15.4264 119.356 15.7363 119.397 16.0645 119.479L16.0234 120.778C15.8411 120.742 15.6292 120.724 15.3877 120.724C14.5947 120.724 14.1982 121.132 14.1982 121.947V122.604H15.7021V123.834H14.1982V130H12.5371ZM18.9971 120.806V122.604H20.3027V123.834H18.9971V127.963C18.9971 128.245 19.0518 128.451 19.1611 128.578C19.2751 128.701 19.4756 128.763 19.7627 128.763C19.9541 128.763 20.1478 128.74 20.3438 128.694V129.979C19.9655 130.084 19.6009 130.137 19.25 130.137C17.974 130.137 17.3359 129.433 17.3359 128.024V123.834H16.1191V122.604H17.3359V120.806H18.9971ZM31.541 126.377C31.541 127.521 31.2812 128.435 30.7617 129.118C30.2422 129.797 29.5449 130.137 28.6699 130.137C27.8587 130.137 27.2093 129.87 26.7217 129.337V132.844H25.0605V122.604H26.5918L26.6602 123.355C27.1478 122.763 27.8109 122.467 28.6494 122.467C29.5518 122.467 30.2581 122.804 30.7686 123.479C31.2835 124.148 31.541 125.08 31.541 126.274V126.377ZM29.8867 126.233C29.8867 125.495 29.7386 124.91 29.4424 124.477C29.1507 124.044 28.7314 123.827 28.1846 123.827C27.5055 123.827 27.0179 124.107 26.7217 124.668V127.949C27.0225 128.523 27.5146 128.811 28.1982 128.811C28.7269 128.811 29.1393 128.599 29.4355 128.175C29.7363 127.746 29.8867 127.099 29.8867 126.233ZM37.3721 130C37.2992 129.859 37.2354 129.629 37.1807 129.31C36.652 129.861 36.0049 130.137 35.2393 130.137C34.4964 130.137 33.8903 129.925 33.4209 129.501C32.9515 129.077 32.7168 128.553 32.7168 127.929C32.7168 127.14 33.0085 126.536 33.5918 126.117C34.1797 125.693 35.0182 125.481 36.1074 125.481H37.126V124.996C37.126 124.613 37.0189 124.308 36.8047 124.08C36.5905 123.848 36.2646 123.731 35.8271 123.731C35.4489 123.731 35.139 123.827 34.8975 124.019C34.6559 124.205 34.5352 124.445 34.5352 124.736H32.874C32.874 124.331 33.0085 123.952 33.2773 123.602C33.5462 123.246 33.9108 122.968 34.3711 122.768C34.8359 122.567 35.3532 122.467 35.9229 122.467C36.7887 122.467 37.4792 122.686 37.9941 123.123C38.5091 123.556 38.7734 124.167 38.7871 124.955V128.291C38.7871 128.956 38.8805 129.487 39.0674 129.884V130H37.3721ZM35.5469 128.804C35.875 128.804 36.1826 128.724 36.4697 128.564C36.7614 128.405 36.9801 128.191 37.126 127.922V126.527H36.2305C35.6152 126.527 35.1527 126.634 34.8428 126.849C34.5329 127.063 34.3779 127.366 34.3779 127.758C34.3779 128.077 34.4827 128.332 34.6924 128.523C34.9066 128.71 35.1914 128.804 35.5469 128.804ZM40.2158 126.247C40.2158 125.108 40.4801 124.194 41.0088 123.506C41.5374 122.813 42.2461 122.467 43.1348 122.467C43.9186 122.467 44.5521 122.74 45.0352 123.287V119.5H46.6963V130H45.1924L45.1104 129.234C44.6136 129.836 43.9505 130.137 43.1211 130.137C42.2552 130.137 41.5534 129.788 41.0156 129.091C40.4824 128.394 40.2158 127.446 40.2158 126.247ZM41.877 126.391C41.877 127.143 42.0205 127.73 42.3076 128.154C42.5993 128.574 43.0117 128.783 43.5449 128.783C44.224 128.783 44.7207 128.48 45.0352 127.874V124.716C44.7298 124.123 44.2376 123.827 43.5586 123.827C43.0208 123.827 42.6061 124.041 42.3145 124.47C42.0228 124.894 41.877 125.534 41.877 126.391ZM48.1182 126.247C48.1182 125.108 48.3825 124.194 48.9111 123.506C49.4398 122.813 50.1484 122.467 51.0371 122.467C51.821 122.467 52.4544 122.74 52.9375 123.287V119.5H54.5986V130H53.0947L53.0127 129.234C52.516 129.836 51.8529 130.137 51.0234 130.137C50.1576 130.137 49.4557 129.788 48.918 129.091C48.3848 128.394 48.1182 127.446 48.1182 126.247ZM49.7793 126.391C49.7793 127.143 49.9229 127.73 50.21 128.154C50.5016 128.574 50.9141 128.783 51.4473 128.783C52.1263 128.783 52.623 128.48 52.9375 127.874V124.716C52.6322 124.123 52.14 123.827 51.4609 123.827C50.9232 123.827 50.5085 124.041 50.2168 124.47C49.9251 124.894 49.7793 125.534 49.7793 126.391ZM58.0986 130H56.4375V122.604H58.0986V130ZM56.335 120.683C56.335 120.427 56.4147 120.215 56.5742 120.047C56.7383 119.878 56.9707 119.794 57.2715 119.794C57.5723 119.794 57.8047 119.878 57.9688 120.047C58.1328 120.215 58.2148 120.427 58.2148 120.683C58.2148 120.933 58.1328 121.143 57.9688 121.312C57.8047 121.476 57.5723 121.558 57.2715 121.558C56.9707 121.558 56.7383 121.476 56.5742 121.312C56.4147 121.143 56.335 120.933 56.335 120.683ZM61.4551 122.604L61.5029 123.458C62.0498 122.797 62.7676 122.467 63.6562 122.467C65.1966 122.467 65.9805 123.349 66.0078 125.112V130H64.3467V125.208C64.3467 124.739 64.2441 124.392 64.0391 124.169C63.8385 123.941 63.5081 123.827 63.0479 123.827C62.3779 123.827 61.8789 124.13 61.5508 124.736V130H59.8896V122.604H61.4551ZM67.416 126.247C67.416 125.099 67.6849 124.183 68.2227 123.499C68.765 122.811 69.4827 122.467 70.376 122.467C71.2191 122.467 71.8822 122.761 72.3652 123.349L72.4404 122.604H73.9375V129.774C73.9375 130.745 73.6344 131.511 73.0283 132.071C72.4268 132.632 71.6133 132.912 70.5879 132.912C70.0456 132.912 69.5146 132.798 68.9951 132.57C68.4801 132.347 68.0882 132.053 67.8193 131.688L68.6055 130.69C69.1159 131.297 69.7448 131.6 70.4922 131.6C71.0436 131.6 71.4788 131.449 71.7979 131.148C72.1169 130.852 72.2764 130.415 72.2764 129.836V129.337C71.7979 129.87 71.1598 130.137 70.3623 130.137C69.4964 130.137 68.7878 129.793 68.2363 129.104C67.6895 128.416 67.416 127.464 67.416 126.247ZM69.0703 126.391C69.0703 127.133 69.2207 127.719 69.5215 128.147C69.8268 128.571 70.2484 128.783 70.7861 128.783C71.4561 128.783 71.9528 128.496 72.2764 127.922V124.668C71.9619 124.107 71.4697 123.827 70.7998 123.827C70.2529 123.827 69.8268 124.044 69.5215 124.477C69.2207 124.91 69.0703 125.548 69.0703 126.391Z" fill="#615353"/>
<path d="M154.342 126.377C154.342 127.525 154.084 128.439 153.569 129.118C153.059 129.797 152.355 130.137 151.457 130.137C150.591 130.137 149.917 129.825 149.434 129.2L149.352 130H147.848V119.5H149.509V123.314C149.987 122.749 150.632 122.467 151.443 122.467C152.346 122.467 153.054 122.802 153.569 123.472C154.084 124.142 154.342 125.078 154.342 126.281V126.377ZM152.681 126.233C152.681 125.431 152.539 124.83 152.257 124.429C151.974 124.028 151.564 123.827 151.026 123.827C150.306 123.827 149.8 124.142 149.509 124.771V127.819C149.805 128.462 150.315 128.783 151.04 128.783C151.56 128.783 151.961 128.59 152.243 128.202C152.526 127.815 152.672 127.229 152.681 126.445V126.233ZM155.429 126.233C155.429 125.509 155.572 124.857 155.859 124.278C156.146 123.695 156.55 123.248 157.069 122.938C157.589 122.624 158.186 122.467 158.86 122.467C159.858 122.467 160.667 122.788 161.287 123.431C161.911 124.073 162.249 124.925 162.299 125.987L162.306 126.377C162.306 127.106 162.164 127.758 161.882 128.332C161.604 128.906 161.203 129.351 160.679 129.665C160.159 129.979 159.558 130.137 158.874 130.137C157.83 130.137 156.994 129.79 156.365 129.098C155.741 128.4 155.429 127.473 155.429 126.315V126.233ZM157.09 126.377C157.09 127.138 157.247 127.735 157.562 128.168C157.876 128.596 158.313 128.811 158.874 128.811C159.435 128.811 159.87 128.592 160.18 128.154C160.494 127.717 160.651 127.076 160.651 126.233C160.651 125.486 160.49 124.894 160.166 124.456C159.847 124.019 159.412 123.8 158.86 123.8C158.318 123.8 157.887 124.016 157.568 124.449C157.249 124.878 157.09 125.52 157.09 126.377ZM165.792 120.806V122.604H167.098V123.834H165.792V127.963C165.792 128.245 165.847 128.451 165.956 128.578C166.07 128.701 166.271 128.763 166.558 128.763C166.749 128.763 166.943 128.74 167.139 128.694V129.979C166.76 130.084 166.396 130.137 166.045 130.137C164.769 130.137 164.131 129.433 164.131 128.024V123.834H162.914V122.604H164.131V120.806H165.792ZM170.454 120.806V122.604H171.76V123.834H170.454V127.963C170.454 128.245 170.509 128.451 170.618 128.578C170.732 128.701 170.933 128.763 171.22 128.763C171.411 128.763 171.605 128.74 171.801 128.694V129.979C171.423 130.084 171.058 130.137 170.707 130.137C169.431 130.137 168.793 129.433 168.793 128.024V123.834H167.576V122.604H168.793V120.806H170.454ZM172.519 126.233C172.519 125.509 172.662 124.857 172.949 124.278C173.236 123.695 173.64 123.248 174.159 122.938C174.679 122.624 175.276 122.467 175.95 122.467C176.948 122.467 177.757 122.788 178.377 123.431C179.001 124.073 179.339 124.925 179.389 125.987L179.396 126.377C179.396 127.106 179.254 127.758 178.972 128.332C178.694 128.906 178.293 129.351 177.769 129.665C177.249 129.979 176.647 130.137 175.964 130.137C174.92 130.137 174.084 129.79 173.455 129.098C172.831 128.4 172.519 127.473 172.519 126.315V126.233ZM174.18 126.377C174.18 127.138 174.337 127.735 174.651 128.168C174.966 128.596 175.403 128.811 175.964 128.811C176.524 128.811 176.96 128.592 177.27 128.154C177.584 127.717 177.741 127.076 177.741 126.233C177.741 125.486 177.579 124.894 177.256 124.456C176.937 124.019 176.502 123.8 175.95 123.8C175.408 123.8 174.977 124.016 174.658 124.449C174.339 124.878 174.18 125.52 174.18 126.377ZM182.362 122.604L182.41 123.376C182.93 122.77 183.641 122.467 184.543 122.467C185.532 122.467 186.209 122.845 186.573 123.602C187.111 122.845 187.868 122.467 188.843 122.467C189.659 122.467 190.265 122.692 190.661 123.144C191.062 123.595 191.267 124.26 191.276 125.14V130H189.615V125.188C189.615 124.718 189.513 124.374 189.308 124.155C189.103 123.937 188.763 123.827 188.289 123.827C187.911 123.827 187.601 123.93 187.359 124.135C187.122 124.335 186.956 124.6 186.86 124.928L186.867 130H185.206V125.133C185.183 124.262 184.739 123.827 183.873 123.827C183.208 123.827 182.736 124.098 182.458 124.641V130H180.797V122.604H182.362ZM202.945 126.377C202.945 127.521 202.686 128.435 202.166 129.118C201.646 129.797 200.949 130.137 200.074 130.137C199.263 130.137 198.614 129.87 198.126 129.337V132.844H196.465V122.604H197.996L198.064 123.355C198.552 122.763 199.215 122.467 200.054 122.467C200.956 122.467 201.662 122.804 202.173 123.479C202.688 124.148 202.945 125.08 202.945 126.274V126.377ZM201.291 126.233C201.291 125.495 201.143 124.91 200.847 124.477C200.555 124.044 200.136 123.827 199.589 123.827C198.91 123.827 198.422 124.107 198.126 124.668V127.949C198.427 128.523 198.919 128.811 199.603 128.811C200.131 128.811 200.544 128.599 200.84 128.175C201.141 127.746 201.291 127.099 201.291 126.233ZM208.776 130C208.703 129.859 208.64 129.629 208.585 129.31C208.056 129.861 207.409 130.137 206.644 130.137C205.901 130.137 205.295 129.925 204.825 129.501C204.356 129.077 204.121 128.553 204.121 127.929C204.121 127.14 204.413 126.536 204.996 126.117C205.584 125.693 206.423 125.481 207.512 125.481H208.53V124.996C208.53 124.613 208.423 124.308 208.209 124.08C207.995 123.848 207.669 123.731 207.231 123.731C206.853 123.731 206.543 123.827 206.302 124.019C206.06 124.205 205.939 124.445 205.939 124.736H204.278C204.278 124.331 204.413 123.952 204.682 123.602C204.951 123.246 205.315 122.968 205.775 122.768C206.24 122.567 206.757 122.467 207.327 122.467C208.193 122.467 208.883 122.686 209.398 123.123C209.913 123.556 210.178 124.167 210.191 124.955V128.291C210.191 128.956 210.285 129.487 210.472 129.884V130H208.776ZM206.951 128.804C207.279 128.804 207.587 128.724 207.874 128.564C208.166 128.405 208.384 128.191 208.53 127.922V126.527H207.635C207.02 126.527 206.557 126.634 206.247 126.849C205.937 127.063 205.782 127.366 205.782 127.758C205.782 128.077 205.887 128.332 206.097 128.523C206.311 128.71 206.596 128.804 206.951 128.804ZM211.62 126.247C211.62 125.108 211.884 124.194 212.413 123.506C212.942 122.813 213.65 122.467 214.539 122.467C215.323 122.467 215.956 122.74 216.439 123.287V119.5H218.101V130H216.597L216.515 129.234C216.018 129.836 215.355 130.137 214.525 130.137C213.66 130.137 212.958 129.788 212.42 129.091C211.887 128.394 211.62 127.446 211.62 126.247ZM213.281 126.391C213.281 127.143 213.425 127.73 213.712 128.154C214.004 128.574 214.416 128.783 214.949 128.783C215.628 128.783 216.125 128.48 216.439 127.874V124.716C216.134 124.123 215.642 123.827 214.963 123.827C214.425 123.827 214.01 124.041 213.719 124.47C213.427 124.894 213.281 125.534 213.281 126.391ZM219.522 126.247C219.522 125.108 219.787 124.194 220.315 123.506C220.844 122.813 221.553 122.467 222.441 122.467C223.225 122.467 223.859 122.74 224.342 123.287V119.5H226.003V130H224.499L224.417 129.234C223.92 129.836 223.257 130.137 222.428 130.137C221.562 130.137 220.86 129.788 220.322 129.091C219.789 128.394 219.522 127.446 219.522 126.247ZM221.184 126.391C221.184 127.143 221.327 127.73 221.614 128.154C221.906 128.574 222.318 128.783 222.852 128.783C223.531 128.783 224.027 128.48 224.342 127.874V124.716C224.036 124.123 223.544 123.827 222.865 123.827C222.327 123.827 221.913 124.041 221.621 124.47C221.329 124.894 221.184 125.534 221.184 126.391ZM229.503 130H227.842V122.604H229.503V130ZM227.739 120.683C227.739 120.427 227.819 120.215 227.979 120.047C228.143 119.878 228.375 119.794 228.676 119.794C228.977 119.794 229.209 119.878 229.373 120.047C229.537 120.215 229.619 120.427 229.619 120.683C229.619 120.933 229.537 121.143 229.373 121.312C229.209 121.476 228.977 121.558 228.676 121.558C228.375 121.558 228.143 121.476 227.979 121.312C227.819 121.143 227.739 120.933 227.739 120.683ZM232.859 122.604L232.907 123.458C233.454 122.797 234.172 122.467 235.061 122.467C236.601 122.467 237.385 123.349 237.412 125.112V130H235.751V125.208C235.751 124.739 235.648 124.392 235.443 124.169C235.243 123.941 234.912 123.827 234.452 123.827C233.782 123.827 233.283 124.13 232.955 124.736V130H231.294V122.604H232.859ZM238.82 126.247C238.82 125.099 239.089 124.183 239.627 123.499C240.169 122.811 240.887 122.467 241.78 122.467C242.623 122.467 243.286 122.761 243.77 123.349L243.845 122.604H245.342V129.774C245.342 130.745 245.039 131.511 244.433 132.071C243.831 132.632 243.018 132.912 241.992 132.912C241.45 132.912 240.919 132.798 240.399 132.57C239.884 132.347 239.493 132.053 239.224 131.688L240.01 130.69C240.52 131.297 241.149 131.6 241.896 131.6C242.448 131.6 242.883 131.449 243.202 131.148C243.521 130.852 243.681 130.415 243.681 129.836V129.337C243.202 129.87 242.564 130.137 241.767 130.137C240.901 130.137 240.192 129.793 239.641 129.104C239.094 128.416 238.82 127.464 238.82 126.247ZM240.475 126.391C240.475 127.133 240.625 127.719 240.926 128.147C241.231 128.571 241.653 128.783 242.19 128.783C242.86 128.783 243.357 128.496 243.681 127.922V124.668C243.366 124.107 242.874 123.827 242.204 123.827C241.657 123.827 241.231 124.044 240.926 124.477C240.625 124.91 240.475 125.548 240.475 126.391Z" fill="#615353"/>
<path d="M143 28.5C143 29.8807 141.881 31 140.5 31C139.119 31 138 29.8807 138 28.5C138 27.1193 139.119 26 140.5 26C141.881 26 143 27.1193 143 28.5Z" fill="#EC156F"/>
<path d="M203 58.5C203 59.8807 201.881 61 200.5 61C199.119 61 198 59.8807 198 58.5C198 57.1193 199.119 56 200.5 56C201.881 56 203 57.1193 203 58.5Z" fill="#EC156F"/>
<line x1="140.5" y1="29" x2="140.5" y2="50.03" stroke="#EC156F"/>
<line x1="140.5" y1="29" x2="140.5" y2="50.03" stroke="#EC156F"/>
<line x1="20.5" y1="26" x2="20.5" y2="64" stroke="#EC156F"/>
<line x1="30.5" y1="77" x2="30.5" y2="115" stroke="#EC156F"/>
<line x1="299.5" y1="87" x2="299.5" y2="125" stroke="#EC156F"/>
<line x1="268.5" y1="43" x2="268.5" y2="76" stroke="#EC156F"/>
<line x1="93.5" y1="86" x2="93.5" y2="139" stroke="#EC156F"/>
<line x1="195" y1="52.5" x2="207" y2="52.5" stroke="#EC156F"/>
<line x1="195" y1="52.5" x2="207" y2="52.5" stroke="#EC156F"/>
<line x1="200.5" y1="97" x2="200.5" y2="86" stroke="#EC156F"/>
<line x1="195" y1="86.5" x2="207" y2="86.5" stroke="#EC156F"/>
<line x1="261.5" y1="81" x2="261.5" y2="69" stroke="#EC156F"/>
<line x1="25.5" y1="81" x2="25.5" y2="69" stroke="#EC156F"/>
<line x1="36.5" y1="81" x2="36.5" y2="69" stroke="#EC156F"/>
<line x1="274.5" y1="81" x2="274.5" y2="69" stroke="#EC156F"/>
<line x1="262" y1="74.5" x2="274" y2="74.5" stroke="#EC156F"/>
<line x1="25" y1="75.5" x2="37" y2="75.5" stroke="#EC156F"/>
<line x1="195" y1="96.5" x2="207" y2="96.5" stroke="#EC156F"/>
<line x1="200.5" y1="64" x2="200.5" y2="52" stroke="#EC156F"/>
<line x1="200.5" y1="64" x2="200.5" y2="52" stroke="#EC156F"/>
<line x1="195" y1="64.5" x2="207" y2="64.5" stroke="#EC156F"/>
<path d="M224.383 33.3216C227.122 47.4528 218.533 51.6943 202.74 59.0875" stroke="#EC156F"/>
<path d="M199.472 89.1635C182.763 100.102 176.489 107.181 187 116.5" stroke="#EC156F"/>
</svg>
