<svg width="299" height="151" viewBox="0 0 299 151" fill="none" xmlns="http://www.w3.org/2000/svg">
<rect x="32" width="250" height="32" rx="4" fill="black" fill-opacity="0.04"/>
<rect x="32.5" y="0.5" width="249" height="31" rx="3.5" stroke="black" stroke-opacity="0.15"/>
<path d="M47.6758 17.4316C47.1992 17.9355 46.6426 18.1875 46.0059 18.1875C45.2559 18.1875 44.6582 17.9258 44.2129 17.4023C43.7676 16.875 43.5449 16.1836 43.5449 15.3281C43.5449 14.7656 43.6582 14.2559 43.8848 13.7988C44.1113 13.3418 44.4336 12.9863 44.8516 12.7324C45.2695 12.4785 45.7539 12.3516 46.3047 12.3516C47.1641 12.3516 47.8457 12.6719 48.3496 13.3125C48.8535 13.9531 49.1055 14.8105 49.1055 15.8848V16.2832C49.1055 17.8223 48.7578 18.9961 48.0625 19.8047C47.3672 20.6133 46.3301 21.0234 44.9512 21.0352H44.7812V19.8574H44.9863C45.8262 19.8457 46.4707 19.6445 46.9199 19.2539C47.3691 18.8594 47.6211 18.252 47.6758 17.4316ZM46.3047 17.0742C46.5898 17.0742 46.8574 16.9922 47.1074 16.8281C47.3574 16.6641 47.5508 16.4375 47.6875 16.1484V15.5918C47.6875 14.9629 47.5586 14.457 47.3008 14.0742C47.043 13.6914 46.709 13.5 46.2988 13.5C45.8887 13.5 45.5605 13.6699 45.3145 14.0098C45.0723 14.3457 44.9512 14.7715 44.9512 15.2871C44.9512 15.8223 45.0742 16.2539 45.3203 16.582C45.5664 16.9102 45.8945 17.0742 46.3047 17.0742ZM54.8887 12.4277V13.6055H54.7129C53.916 13.6172 53.2793 13.8359 52.8027 14.2617C52.3262 14.6875 52.043 15.291 51.9531 16.0723C52.4102 15.5918 52.9941 15.3516 53.7051 15.3516C54.459 15.3516 55.0527 15.6172 55.4863 16.1484C55.9238 16.6797 56.1426 17.3652 56.1426 18.2051C56.1426 19.0723 55.8867 19.7754 55.375 20.3145C54.8672 20.8496 54.1992 21.1172 53.3711 21.1172C52.5195 21.1172 51.8281 20.8027 51.2969 20.1738C50.7695 19.5449 50.5059 18.7207 50.5059 17.7012V17.2148C50.5059 15.7188 50.8691 14.5469 51.5957 13.6992C52.3262 12.8516 53.375 12.4277 54.7422 12.4277H54.8887ZM53.3594 16.5C53.0469 16.5 52.7598 16.5879 52.498 16.7637C52.2402 16.9395 52.0508 17.1738 51.9297 17.4668V17.9004C51.9297 18.5332 52.0625 19.0371 52.3281 19.4121C52.5938 19.7832 52.9375 19.9688 53.3594 19.9688C53.7812 19.9688 54.1152 19.8105 54.3613 19.4941C54.6074 19.1777 54.7305 18.7617 54.7305 18.2461C54.7305 17.7305 54.6055 17.3105 54.3555 16.9863C54.1055 16.6621 53.7734 16.5 53.3594 16.5ZM62.6523 14.7188C62.6523 15.1367 62.5449 15.5098 62.3301 15.8379C62.1152 16.1621 61.8223 16.418 61.4512 16.6055C61.8965 16.8125 62.2383 17.0957 62.4766 17.4551C62.7188 17.8145 62.8398 18.2207 62.8398 18.6738C62.8398 19.4238 62.5859 20.0195 62.0781 20.4609C61.5703 20.8984 60.8945 21.1172 60.0508 21.1172C59.2031 21.1172 58.5234 20.8965 58.0117 20.4551C57.5039 20.0137 57.25 19.4199 57.25 18.6738C57.25 18.2168 57.3711 17.8066 57.6133 17.4434C57.8555 17.0801 58.1953 16.8008 58.6328 16.6055C58.2656 16.418 57.9746 16.1621 57.7598 15.8379C57.5488 15.5098 57.4434 15.1367 57.4434 14.7188C57.4434 13.9922 57.6777 13.416 58.1465 12.9902C58.6152 12.5645 59.248 12.3516 60.0449 12.3516C60.8457 12.3516 61.4805 12.5645 61.9492 12.9902C62.418 13.416 62.6523 13.9922 62.6523 14.7188ZM61.416 18.6035C61.416 18.1816 61.2891 17.8418 61.0352 17.584C60.7852 17.3223 60.4531 17.1914 60.0391 17.1914C59.625 17.1914 59.293 17.3203 59.043 17.5781C58.7969 17.8359 58.6738 18.1777 58.6738 18.6035C58.6738 19.0215 58.7949 19.3555 59.0371 19.6055C59.2832 19.8555 59.6211 19.9805 60.0508 19.9805C60.4805 19.9805 60.8145 19.8594 61.0527 19.6172C61.2949 19.375 61.416 19.0371 61.416 18.6035ZM61.2344 14.7715C61.2344 14.4004 61.127 14.0957 60.9121 13.8574C60.6973 13.6152 60.4082 13.4941 60.0449 13.4941C59.6816 13.4941 59.3945 13.6094 59.1836 13.8398C58.9727 14.0664 58.8672 14.377 58.8672 14.7715C58.8672 15.1621 58.9727 15.4727 59.1836 15.7031C59.3984 15.9336 59.6875 16.0488 60.0508 16.0488C60.4141 16.0488 60.7012 15.9336 60.9121 15.7031C61.127 15.4727 61.2344 15.1621 61.2344 14.7715ZM66.9531 17.9473H63.877V16.7988H66.9531V17.9473ZM73.4102 14.7188C73.4102 15.1367 73.3027 15.5098 73.0879 15.8379C72.873 16.1621 72.5801 16.418 72.209 16.6055C72.6543 16.8125 72.9961 17.0957 73.2344 17.4551C73.4766 17.8145 73.5977 18.2207 73.5977 18.6738C73.5977 19.4238 73.3438 20.0195 72.8359 20.4609C72.3281 20.8984 71.6523 21.1172 70.8086 21.1172C69.9609 21.1172 69.2812 20.8965 68.7695 20.4551C68.2617 20.0137 68.0078 19.4199 68.0078 18.6738C68.0078 18.2168 68.1289 17.8066 68.3711 17.4434C68.6133 17.0801 68.9531 16.8008 69.3906 16.6055C69.0234 16.418 68.7324 16.1621 68.5176 15.8379C68.3066 15.5098 68.2012 15.1367 68.2012 14.7188C68.2012 13.9922 68.4355 13.416 68.9043 12.9902C69.373 12.5645 70.0059 12.3516 70.8027 12.3516C71.6035 12.3516 72.2383 12.5645 72.707 12.9902C73.1758 13.416 73.4102 13.9922 73.4102 14.7188ZM72.1738 18.6035C72.1738 18.1816 72.0469 17.8418 71.793 17.584C71.543 17.3223 71.2109 17.1914 70.7969 17.1914C70.3828 17.1914 70.0508 17.3203 69.8008 17.5781C69.5547 17.8359 69.4316 18.1777 69.4316 18.6035C69.4316 19.0215 69.5527 19.3555 69.7949 19.6055C70.041 19.8555 70.3789 19.9805 70.8086 19.9805C71.2383 19.9805 71.5723 19.8594 71.8105 19.6172C72.0527 19.375 72.1738 19.0371 72.1738 18.6035ZM71.9922 14.7715C71.9922 14.4004 71.8848 14.0957 71.6699 13.8574C71.4551 13.6152 71.166 13.4941 70.8027 13.4941C70.4395 13.4941 70.1523 13.6094 69.9414 13.8398C69.7305 14.0664 69.625 14.377 69.625 14.7715C69.625 15.1621 69.7305 15.4727 69.9414 15.7031C70.1562 15.9336 70.4453 16.0488 70.8086 16.0488C71.1719 16.0488 71.459 15.9336 71.6699 15.7031C71.8848 15.4727 71.9922 15.1621 71.9922 14.7715ZM79.6738 17.959H80.7344V19.1016H79.6738V21H78.25V19.1016H74.5645L74.5234 18.2344L78.2031 12.4688H79.6738V17.959ZM76.0176 17.959H78.25V14.3965L78.1445 14.584L76.0176 17.959ZM82.0586 16.7695L82.5215 12.4688H87.1035V13.6992H83.7051L83.4707 15.7383C83.8652 15.5117 84.3105 15.3984 84.8066 15.3984C85.6191 15.3984 86.25 15.6582 86.6992 16.1777C87.1523 16.6973 87.3789 17.3965 87.3789 18.2754C87.3789 19.1426 87.1289 19.834 86.6289 20.3496C86.1289 20.8613 85.4434 21.1172 84.5723 21.1172C83.791 21.1172 83.1426 20.8965 82.627 20.4551C82.1152 20.0098 81.8379 19.4238 81.7949 18.6973H83.1719C83.2266 19.1113 83.375 19.4297 83.6172 19.6523C83.8594 19.8711 84.1758 19.9805 84.5664 19.9805C85.0039 19.9805 85.3438 19.8242 85.5859 19.5117C85.832 19.1992 85.9551 18.7734 85.9551 18.2344C85.9551 17.7148 85.8203 17.3047 85.5508 17.0039C85.2812 16.6992 84.9102 16.5469 84.4375 16.5469C84.1797 16.5469 83.9609 16.582 83.7812 16.6523C83.6016 16.7188 83.4062 16.8516 83.1953 17.0508L82.0586 16.7695ZM91.3516 17.9473H88.2754V16.7988H91.3516V17.9473ZM97.8086 14.7188C97.8086 15.1367 97.7012 15.5098 97.4863 15.8379C97.2715 16.1621 96.9785 16.418 96.6074 16.6055C97.0527 16.8125 97.3945 17.0957 97.6328 17.4551C97.875 17.8145 97.9961 18.2207 97.9961 18.6738C97.9961 19.4238 97.7422 20.0195 97.2344 20.4609C96.7266 20.8984 96.0508 21.1172 95.207 21.1172C94.3594 21.1172 93.6797 20.8965 93.168 20.4551C92.6602 20.0137 92.4062 19.4199 92.4062 18.6738C92.4062 18.2168 92.5273 17.8066 92.7695 17.4434C93.0117 17.0801 93.3516 16.8008 93.7891 16.6055C93.4219 16.418 93.1309 16.1621 92.916 15.8379C92.7051 15.5098 92.5996 15.1367 92.5996 14.7188C92.5996 13.9922 92.834 13.416 93.3027 12.9902C93.7715 12.5645 94.4043 12.3516 95.2012 12.3516C96.002 12.3516 96.6367 12.5645 97.1055 12.9902C97.5742 13.416 97.8086 13.9922 97.8086 14.7188ZM96.5723 18.6035C96.5723 18.1816 96.4453 17.8418 96.1914 17.584C95.9414 17.3223 95.6094 17.1914 95.1953 17.1914C94.7812 17.1914 94.4492 17.3203 94.1992 17.5781C93.9531 17.8359 93.8301 18.1777 93.8301 18.6035C93.8301 19.0215 93.9512 19.3555 94.1934 19.6055C94.4395 19.8555 94.7773 19.9805 95.207 19.9805C95.6367 19.9805 95.9707 19.8594 96.209 19.6172C96.4512 19.375 96.5723 19.0371 96.5723 18.6035ZM96.3906 14.7715C96.3906 14.4004 96.2832 14.0957 96.0684 13.8574C95.8535 13.6152 95.5645 13.4941 95.2012 13.4941C94.8379 13.4941 94.5508 13.6094 94.3398 13.8398C94.1289 14.0664 94.0234 14.377 94.0234 14.7715C94.0234 15.1621 94.1289 15.4727 94.3398 15.7031C94.5547 15.9336 94.8438 16.0488 95.207 16.0488C95.5703 16.0488 95.8574 15.9336 96.0684 15.7031C96.2832 15.4727 96.3906 15.1621 96.3906 14.7715ZM104.629 14.7188C104.629 15.1367 104.521 15.5098 104.307 15.8379C104.092 16.1621 103.799 16.418 103.428 16.6055C103.873 16.8125 104.215 17.0957 104.453 17.4551C104.695 17.8145 104.816 18.2207 104.816 18.6738C104.816 19.4238 104.562 20.0195 104.055 20.4609C103.547 20.8984 102.871 21.1172 102.027 21.1172C101.18 21.1172 100.5 20.8965 99.9883 20.4551C99.4805 20.0137 99.2266 19.4199 99.2266 18.6738C99.2266 18.2168 99.3477 17.8066 99.5898 17.4434C99.832 17.0801 100.172 16.8008 100.609 16.6055C100.242 16.418 99.9512 16.1621 99.7363 15.8379C99.5254 15.5098 99.4199 15.1367 99.4199 14.7188C99.4199 13.9922 99.6543 13.416 100.123 12.9902C100.592 12.5645 101.225 12.3516 102.021 12.3516C102.822 12.3516 103.457 12.5645 103.926 12.9902C104.395 13.416 104.629 13.9922 104.629 14.7188ZM103.393 18.6035C103.393 18.1816 103.266 17.8418 103.012 17.584C102.762 17.3223 102.43 17.1914 102.016 17.1914C101.602 17.1914 101.27 17.3203 101.02 17.5781C100.773 17.8359 100.65 18.1777 100.65 18.6035C100.65 19.0215 100.771 19.3555 101.014 19.6055C101.26 19.8555 101.598 19.9805 102.027 19.9805C102.457 19.9805 102.791 19.8594 103.029 19.6172C103.271 19.375 103.393 19.0371 103.393 18.6035ZM103.211 14.7715C103.211 14.4004 103.104 14.0957 102.889 13.8574C102.674 13.6152 102.385 13.4941 102.021 13.4941C101.658 13.4941 101.371 13.6094 101.16 13.8398C100.949 14.0664 100.844 14.377 100.844 14.7715C100.844 15.1621 100.949 15.4727 101.16 15.7031C101.375 15.9336 101.664 16.0488 102.027 16.0488C102.391 16.0488 102.678 15.9336 102.889 15.7031C103.104 15.4727 103.211 15.1621 103.211 14.7715ZM108.93 17.9473H105.854V16.7988H108.93V17.9473ZM115.387 14.7188C115.387 15.1367 115.279 15.5098 115.064 15.8379C114.85 16.1621 114.557 16.418 114.186 16.6055C114.631 16.8125 114.973 17.0957 115.211 17.4551C115.453 17.8145 115.574 18.2207 115.574 18.6738C115.574 19.4238 115.32 20.0195 114.812 20.4609C114.305 20.8984 113.629 21.1172 112.785 21.1172C111.938 21.1172 111.258 20.8965 110.746 20.4551C110.238 20.0137 109.984 19.4199 109.984 18.6738C109.984 18.2168 110.105 17.8066 110.348 17.4434C110.59 17.0801 110.93 16.8008 111.367 16.6055C111 16.418 110.709 16.1621 110.494 15.8379C110.283 15.5098 110.178 15.1367 110.178 14.7188C110.178 13.9922 110.412 13.416 110.881 12.9902C111.35 12.5645 111.982 12.3516 112.779 12.3516C113.58 12.3516 114.215 12.5645 114.684 12.9902C115.152 13.416 115.387 13.9922 115.387 14.7188ZM114.15 18.6035C114.15 18.1816 114.023 17.8418 113.77 17.584C113.52 17.3223 113.188 17.1914 112.773 17.1914C112.359 17.1914 112.027 17.3203 111.777 17.5781C111.531 17.8359 111.408 18.1777 111.408 18.6035C111.408 19.0215 111.529 19.3555 111.771 19.6055C112.018 19.8555 112.355 19.9805 112.785 19.9805C113.215 19.9805 113.549 19.8594 113.787 19.6172C114.029 19.375 114.15 19.0371 114.15 18.6035ZM113.969 14.7715C113.969 14.4004 113.861 14.0957 113.646 13.8574C113.432 13.6152 113.143 13.4941 112.779 13.4941C112.416 13.4941 112.129 13.6094 111.918 13.8398C111.707 14.0664 111.602 14.377 111.602 14.7715C111.602 15.1621 111.707 15.4727 111.918 15.7031C112.133 15.9336 112.422 16.0488 112.785 16.0488C113.148 16.0488 113.436 15.9336 113.646 15.7031C113.861 15.4727 113.969 15.1621 113.969 14.7715ZM122.207 14.7188C122.207 15.1367 122.1 15.5098 121.885 15.8379C121.67 16.1621 121.377 16.418 121.006 16.6055C121.451 16.8125 121.793 17.0957 122.031 17.4551C122.273 17.8145 122.395 18.2207 122.395 18.6738C122.395 19.4238 122.141 20.0195 121.633 20.4609C121.125 20.8984 120.449 21.1172 119.605 21.1172C118.758 21.1172 118.078 20.8965 117.566 20.4551C117.059 20.0137 116.805 19.4199 116.805 18.6738C116.805 18.2168 116.926 17.8066 117.168 17.4434C117.41 17.0801 117.75 16.8008 118.188 16.6055C117.82 16.418 117.529 16.1621 117.314 15.8379C117.104 15.5098 116.998 15.1367 116.998 14.7188C116.998 13.9922 117.232 13.416 117.701 12.9902C118.17 12.5645 118.803 12.3516 119.6 12.3516C120.4 12.3516 121.035 12.5645 121.504 12.9902C121.973 13.416 122.207 13.9922 122.207 14.7188ZM120.971 18.6035C120.971 18.1816 120.844 17.8418 120.59 17.584C120.34 17.3223 120.008 17.1914 119.594 17.1914C119.18 17.1914 118.848 17.3203 118.598 17.5781C118.352 17.8359 118.229 18.1777 118.229 18.6035C118.229 19.0215 118.35 19.3555 118.592 19.6055C118.838 19.8555 119.176 19.9805 119.605 19.9805C120.035 19.9805 120.369 19.8594 120.607 19.6172C120.85 19.375 120.971 19.0371 120.971 18.6035ZM120.789 14.7715C120.789 14.4004 120.682 14.0957 120.467 13.8574C120.252 13.6152 119.963 13.4941 119.6 13.4941C119.236 13.4941 118.949 13.6094 118.738 13.8398C118.527 14.0664 118.422 14.377 118.422 14.7715C118.422 15.1621 118.527 15.4727 118.738 15.7031C118.953 15.9336 119.242 16.0488 119.605 16.0488C119.969 16.0488 120.256 15.9336 120.467 15.7031C120.682 15.4727 120.789 15.1621 120.789 14.7715Z" fill="black"/>
<path d="M288.5 51.0635V119C288.5 119.828 287.828 120.5 287 120.5H26C25.1716 120.5 24.5 119.828 24.5 119V51.0635C24.5 50.2351 25.1716 49.5635 26 49.5635H138.876C139.384 49.5635 139.88 49.4087 140.298 49.1198L154.629 39.2104C155.149 38.8508 155.839 38.8559 156.353 39.2233L170.188 49.0983C170.612 49.4009 171.12 49.5635 171.641 49.5635H287C287.828 49.5635 288.5 50.2351 288.5 51.0635Z" stroke="#3366FF"/>
<rect x="34.5" y="66.5" width="245" height="37" stroke="#3366FF" stroke-dasharray="1.5 1.5"/>
<line x1="4" y1="65.5" x2="24" y2="65.5" stroke="#EC156F"/>
<line x1="288.5" y1="141" x2="288.5" y2="121" stroke="#EC156F"/>
<line x1="279.5" y1="141" x2="279.5" y2="121" stroke="#EC156F"/>
<line x1="118" y1="48.5" x2="138" y2="48.5" stroke="#EC156F"/>
<line x1="4" y1="103.5" x2="24" y2="103.5" stroke="#EC156F"/>
<line x1="4" y1="49.5" x2="24" y2="49.5" stroke="#EC156F"/>
<line x1="118" y1="32.5" x2="138" y2="32.5" stroke="#EC156F"/>
<line x1="4" y1="120.5" x2="24" y2="120.5" stroke="#EC156F"/>
<path d="M3.37061 61H2.30713V55.8628L0.738281 56.3989V55.498L3.23438 54.5796H3.37061V61ZM8.9165 54.5708V55.4541H8.78467C8.18701 55.4629 7.70947 55.627 7.35205 55.9463C6.99463 56.2656 6.78223 56.7183 6.71484 57.3042C7.05762 56.9438 7.49561 56.7637 8.02881 56.7637C8.59424 56.7637 9.03955 56.9629 9.36475 57.3613C9.69287 57.7598 9.85693 58.2739 9.85693 58.9038C9.85693 59.5542 9.66504 60.0815 9.28125 60.4858C8.90039 60.8872 8.39941 61.0879 7.77832 61.0879C7.13965 61.0879 6.62109 60.8521 6.22266 60.3804C5.82715 59.9087 5.62939 59.2905 5.62939 58.5259V58.1611C5.62939 57.0391 5.90186 56.1602 6.44678 55.5244C6.99463 54.8887 7.78125 54.5708 8.80664 54.5708H8.9165ZM7.76953 57.625C7.53516 57.625 7.31982 57.6909 7.12354 57.8228C6.93018 57.9546 6.78809 58.1304 6.69727 58.3501V58.6753C6.69727 59.1499 6.79688 59.5278 6.99609 59.8091C7.19531 60.0874 7.45312 60.2266 7.76953 60.2266C8.08594 60.2266 8.33643 60.1079 8.521 59.8706C8.70557 59.6333 8.79785 59.3213 8.79785 58.9346C8.79785 58.5479 8.7041 58.2329 8.5166 57.9897C8.3291 57.7466 8.08008 57.625 7.76953 57.625ZM14.9414 58.6709C14.9414 59.4062 14.7744 59.9937 14.4404 60.4331C14.1064 60.8696 13.6582 61.0879 13.0957 61.0879C12.5742 61.0879 12.1567 60.9165 11.8433 60.5737V62.8281H10.7754V56.2451H11.7598L11.8037 56.7285C12.1172 56.3477 12.5435 56.1572 13.0825 56.1572C13.6626 56.1572 14.1167 56.374 14.4448 56.8076C14.7759 57.2383 14.9414 57.8374 14.9414 58.605V58.6709ZM13.8779 58.5786C13.8779 58.104 13.7827 57.7275 13.5923 57.4492C13.4048 57.1709 13.1353 57.0317 12.7837 57.0317C12.3472 57.0317 12.0337 57.2119 11.8433 57.5723V59.6816C12.0366 60.0508 12.353 60.2354 12.7925 60.2354C13.1323 60.2354 13.3975 60.0991 13.5879 59.8267C13.7812 59.5513 13.8779 59.1353 13.8779 58.5786ZM17.4858 57.8096L18.3911 56.2451H19.5776L18.123 58.5874L19.626 61H18.4482L17.499 59.374L16.5542 61H15.3677L16.8706 58.5874L15.4204 56.2451H16.5981L17.4858 57.8096Z" fill="black"/>
<line x1="33.5" y1="141" x2="33.5" y2="121" stroke="#EC156F"/>
<path d="M124.371 43H123.307V37.8628L121.738 38.3989V37.498L124.234 36.5796H124.371V43ZM129.917 36.5708V37.4541H129.785C129.187 37.4629 128.709 37.627 128.352 37.9463C127.995 38.2656 127.782 38.7183 127.715 39.3042C128.058 38.9438 128.496 38.7637 129.029 38.7637C129.594 38.7637 130.04 38.9629 130.365 39.3613C130.693 39.7598 130.857 40.2739 130.857 40.9038C130.857 41.5542 130.665 42.0815 130.281 42.4858C129.9 42.8872 129.399 43.0879 128.778 43.0879C128.14 43.0879 127.621 42.8521 127.223 42.3804C126.827 41.9087 126.629 41.2905 126.629 40.5259V40.1611C126.629 39.0391 126.902 38.1602 127.447 37.5244C127.995 36.8887 128.781 36.5708 129.807 36.5708H129.917ZM128.77 39.625C128.535 39.625 128.32 39.6909 128.124 39.8228C127.93 39.9546 127.788 40.1304 127.697 40.3501V40.6753C127.697 41.1499 127.797 41.5278 127.996 41.8091C128.195 42.0874 128.453 42.2266 128.77 42.2266C129.086 42.2266 129.336 42.1079 129.521 41.8706C129.706 41.6333 129.798 41.3213 129.798 40.9346C129.798 40.5479 129.704 40.2329 129.517 39.9897C129.329 39.7466 129.08 39.625 128.77 39.625ZM135.941 40.6709C135.941 41.4062 135.774 41.9937 135.44 42.4331C135.106 42.8696 134.658 43.0879 134.096 43.0879C133.574 43.0879 133.157 42.9165 132.843 42.5737V44.8281H131.775V38.2451H132.76L132.804 38.7285C133.117 38.3477 133.543 38.1572 134.083 38.1572C134.663 38.1572 135.117 38.374 135.445 38.8076C135.776 39.2383 135.941 39.8374 135.941 40.605V40.6709ZM134.878 40.5786C134.878 40.104 134.783 39.7275 134.592 39.4492C134.405 39.1709 134.135 39.0317 133.784 39.0317C133.347 39.0317 133.034 39.2119 132.843 39.5723V41.6816C133.037 42.0508 133.353 42.2354 133.792 42.2354C134.132 42.2354 134.397 42.0991 134.588 41.8267C134.781 41.5513 134.878 41.1353 134.878 40.5786ZM138.486 39.8096L139.391 38.2451H140.578L139.123 40.5874L140.626 43H139.448L138.499 41.374L137.554 43H136.368L137.871 40.5874L136.42 38.2451H137.598L138.486 39.8096Z" fill="black"/>
<path d="M282.509 144.289C282.509 144.603 282.428 144.882 282.267 145.128C282.106 145.372 281.886 145.563 281.608 145.704C281.942 145.859 282.198 146.072 282.377 146.341C282.559 146.611 282.649 146.916 282.649 147.255C282.649 147.818 282.459 148.265 282.078 148.596C281.697 148.924 281.19 149.088 280.558 149.088C279.922 149.088 279.412 148.922 279.028 148.591C278.647 148.26 278.457 147.815 278.457 147.255C278.457 146.913 278.548 146.605 278.729 146.333C278.911 146.06 279.166 145.851 279.494 145.704C279.219 145.563 279 145.372 278.839 145.128C278.681 144.882 278.602 144.603 278.602 144.289C278.602 143.744 278.778 143.312 279.129 142.993C279.481 142.673 279.956 142.514 280.553 142.514C281.154 142.514 281.63 142.673 281.981 142.993C282.333 143.312 282.509 143.744 282.509 144.289ZM281.582 147.203C281.582 146.886 281.486 146.631 281.296 146.438C281.108 146.242 280.859 146.144 280.549 146.144C280.238 146.144 279.989 146.24 279.802 146.434C279.617 146.627 279.525 146.883 279.525 147.203C279.525 147.516 279.616 147.767 279.797 147.954C279.982 148.142 280.235 148.235 280.558 148.235C280.88 148.235 281.13 148.145 281.309 147.963C281.491 147.781 281.582 147.528 281.582 147.203ZM281.445 144.329C281.445 144.05 281.365 143.822 281.204 143.643C281.042 143.461 280.826 143.371 280.553 143.371C280.281 143.371 280.065 143.457 279.907 143.63C279.749 143.8 279.67 144.033 279.67 144.329C279.67 144.622 279.749 144.854 279.907 145.027C280.068 145.2 280.285 145.287 280.558 145.287C280.83 145.287 281.045 145.2 281.204 145.027C281.365 144.854 281.445 144.622 281.445 144.329ZM287.826 146.671C287.826 147.406 287.659 147.994 287.325 148.433C286.991 148.87 286.543 149.088 285.98 149.088C285.459 149.088 285.042 148.917 284.728 148.574V150.828H283.66V144.245H284.645L284.688 144.729C285.002 144.348 285.428 144.157 285.967 144.157C286.547 144.157 287.001 144.374 287.33 144.808C287.661 145.238 287.826 145.837 287.826 146.605V146.671ZM286.763 146.579C286.763 146.104 286.667 145.728 286.477 145.449C286.29 145.171 286.02 145.032 285.668 145.032C285.232 145.032 284.918 145.212 284.728 145.572V147.682C284.921 148.051 285.238 148.235 285.677 148.235C286.017 148.235 286.282 148.099 286.473 147.827C286.666 147.551 286.763 147.135 286.763 146.579ZM290.371 145.81L291.276 144.245H292.462L291.008 146.587L292.511 149H291.333L290.384 147.374L289.439 149H288.252L289.755 146.587L288.305 144.245H289.483L290.371 145.81Z" fill="black"/>
<path d="M27.5088 144.289C27.5088 144.603 27.4282 144.882 27.2671 145.128C27.106 145.372 26.8862 145.563 26.6079 145.704C26.9419 145.859 27.1982 146.072 27.377 146.341C27.5586 146.611 27.6494 146.916 27.6494 147.255C27.6494 147.818 27.459 148.265 27.0781 148.596C26.6973 148.924 26.1904 149.088 25.5576 149.088C24.9219 149.088 24.4121 148.922 24.0283 148.591C23.6475 148.26 23.457 147.815 23.457 147.255C23.457 146.913 23.5479 146.605 23.7295 146.333C23.9111 146.06 24.166 145.851 24.4941 145.704C24.2188 145.563 24.0005 145.372 23.8394 145.128C23.6812 144.882 23.6021 144.603 23.6021 144.289C23.6021 143.744 23.7778 143.312 24.1294 142.993C24.481 142.673 24.9556 142.514 25.5532 142.514C26.1538 142.514 26.6299 142.673 26.9814 142.993C27.333 143.312 27.5088 143.744 27.5088 144.289ZM26.5815 147.203C26.5815 146.886 26.4863 146.631 26.2959 146.438C26.1084 146.242 25.8594 146.144 25.5488 146.144C25.2383 146.144 24.9893 146.24 24.8018 146.434C24.6172 146.627 24.5249 146.883 24.5249 147.203C24.5249 147.516 24.6157 147.767 24.7974 147.954C24.9819 148.142 25.2354 148.235 25.5576 148.235C25.8799 148.235 26.1304 148.145 26.3091 147.963C26.4907 147.781 26.5815 147.528 26.5815 147.203ZM26.4453 144.329C26.4453 144.05 26.3647 143.822 26.2036 143.643C26.0425 143.461 25.8257 143.371 25.5532 143.371C25.2808 143.371 25.0654 143.457 24.9072 143.63C24.749 143.8 24.6699 144.033 24.6699 144.329C24.6699 144.622 24.749 144.854 24.9072 145.027C25.0684 145.2 25.2852 145.287 25.5576 145.287C25.8301 145.287 26.0454 145.2 26.2036 145.027C26.3647 144.854 26.4453 144.622 26.4453 144.329ZM32.8262 146.671C32.8262 147.406 32.6592 147.994 32.3252 148.433C31.9912 148.87 31.543 149.088 30.9805 149.088C30.459 149.088 30.0415 148.917 29.728 148.574V150.828H28.6602V144.245H29.6445L29.6885 144.729C30.002 144.348 30.4282 144.157 30.9673 144.157C31.5474 144.157 32.0015 144.374 32.3296 144.808C32.6606 145.238 32.8262 145.837 32.8262 146.605V146.671ZM31.7627 146.579C31.7627 146.104 31.6675 145.728 31.4771 145.449C31.2896 145.171 31.02 145.032 30.6685 145.032C30.2319 145.032 29.9185 145.212 29.728 145.572V147.682C29.9214 148.051 30.2378 148.235 30.6772 148.235C31.0171 148.235 31.2822 148.099 31.4727 147.827C31.666 147.551 31.7627 147.135 31.7627 146.579ZM35.3706 145.81L36.2759 144.245H37.4624L36.0078 146.587L37.5107 149H36.333L35.3838 147.374L34.439 149H33.2524L34.7554 146.587L33.3052 144.245H34.4829L35.3706 145.81Z" fill="black"/>
<line x1="24.5" y1="141" x2="24.5" y2="121" stroke="#EC156F"/>
<path d="M3.37061 115H2.30713V109.863L0.738281 110.399V109.498L3.23438 108.58H3.37061V115ZM8.9165 108.571V109.454H8.78467C8.18701 109.463 7.70947 109.627 7.35205 109.946C6.99463 110.266 6.78223 110.718 6.71484 111.304C7.05762 110.944 7.49561 110.764 8.02881 110.764C8.59424 110.764 9.03955 110.963 9.36475 111.361C9.69287 111.76 9.85693 112.274 9.85693 112.904C9.85693 113.554 9.66504 114.082 9.28125 114.486C8.90039 114.887 8.39941 115.088 7.77832 115.088C7.13965 115.088 6.62109 114.852 6.22266 114.38C5.82715 113.909 5.62939 113.291 5.62939 112.526V112.161C5.62939 111.039 5.90186 110.16 6.44678 109.524C6.99463 108.889 7.78125 108.571 8.80664 108.571H8.9165ZM7.76953 111.625C7.53516 111.625 7.31982 111.691 7.12354 111.823C6.93018 111.955 6.78809 112.13 6.69727 112.35V112.675C6.69727 113.15 6.79688 113.528 6.99609 113.809C7.19531 114.087 7.45312 114.227 7.76953 114.227C8.08594 114.227 8.33643 114.108 8.521 113.871C8.70557 113.633 8.79785 113.321 8.79785 112.935C8.79785 112.548 8.7041 112.233 8.5166 111.99C8.3291 111.747 8.08008 111.625 7.76953 111.625ZM14.9414 112.671C14.9414 113.406 14.7744 113.994 14.4404 114.433C14.1064 114.87 13.6582 115.088 13.0957 115.088C12.5742 115.088 12.1567 114.917 11.8433 114.574V116.828H10.7754V110.245H11.7598L11.8037 110.729C12.1172 110.348 12.5435 110.157 13.0825 110.157C13.6626 110.157 14.1167 110.374 14.4448 110.808C14.7759 111.238 14.9414 111.837 14.9414 112.605V112.671ZM13.8779 112.579C13.8779 112.104 13.7827 111.728 13.5923 111.449C13.4048 111.171 13.1353 111.032 12.7837 111.032C12.3472 111.032 12.0337 111.212 11.8433 111.572V113.682C12.0366 114.051 12.353 114.235 12.7925 114.235C13.1323 114.235 13.3975 114.099 13.5879 113.827C13.7812 113.551 13.8779 113.135 13.8779 112.579ZM17.4858 111.81L18.3911 110.245H19.5776L18.123 112.587L19.626 115H18.4482L17.499 113.374L16.5542 115H15.3677L16.8706 112.587L15.4204 110.245H16.5981L17.4858 111.81Z" fill="black"/>
</svg>
