<svg width="597" height="110" viewBox="0 0 597 110" fill="none" xmlns="http://www.w3.org/2000/svg">
<rect x="0.5" y="0.5" width="199" height="109" rx="3.5" stroke="white"/>
<path d="M25.9805 58V40.9375H30.7969C32.2812 40.9375 33.5938 41.2656 34.7344 41.9219C35.875 42.5781 36.7539 43.5117 37.3711 44.7227C37.9961 45.9336 38.3125 47.3242 38.3203 48.8945V49.9844C38.3203 51.5938 38.0078 53.0039 37.3828 54.2148C36.7656 55.4258 35.8789 56.3555 34.7227 57.0039C33.5742 57.6523 32.2344 57.9844 30.7031 58H25.9805ZM28.2305 42.7891V56.1602H30.5977C32.332 56.1602 33.6797 55.6211 34.6406 54.543C35.6094 53.4648 36.0938 51.9297 36.0938 49.9375V48.9414C36.0938 47.0039 35.6367 45.5 34.7227 44.4297C33.8164 43.3516 32.5273 42.8047 30.8555 42.7891H28.2305ZM54.8555 50.0195C54.8555 51.6914 54.5742 53.1523 54.0117 54.4023C53.4492 55.6445 52.6523 56.5938 51.6211 57.25C50.5898 57.9062 49.3867 58.2344 48.0117 58.2344C46.668 58.2344 45.4766 57.9062 44.4375 57.25C43.3984 56.5859 42.5898 55.6445 42.0117 54.4258C41.4414 53.1992 41.1484 51.7812 41.1328 50.1719V48.9414C41.1328 47.3008 41.418 45.8516 41.9883 44.5938C42.5586 43.3359 43.3633 42.375 44.4023 41.7109C45.4492 41.0391 46.6445 40.7031 47.9883 40.7031C49.3555 40.7031 50.5586 41.0352 51.5977 41.6992C52.6445 42.3555 53.4492 43.3125 54.0117 44.5703C54.5742 45.8203 54.8555 47.2773 54.8555 48.9414V50.0195ZM52.6172 48.918C52.6172 46.8945 52.2109 45.3438 51.3984 44.2656C50.5859 43.1797 49.4492 42.6367 47.9883 42.6367C46.5664 42.6367 45.4453 43.1797 44.625 44.2656C43.8125 45.3438 43.3945 46.8438 43.3711 48.7656V50.0195C43.3711 51.9805 43.7812 53.5234 44.6016 54.6484C45.4297 55.7656 46.5664 56.3242 48.0117 56.3242C49.4648 56.3242 50.5898 55.7969 51.3867 54.7422C52.1836 53.6797 52.5938 52.1602 52.6172 50.1836V48.918ZM61.1367 40.9375L66.7148 54.8594L72.293 40.9375H75.2109V58H72.9609V51.3555L73.1719 44.1836L67.5703 58H65.8477L60.2578 44.2188L60.4805 51.3555V58H58.2305V40.9375H61.1367ZM90.0586 58.2344C88.3398 58.2344 86.9414 57.6719 85.8633 56.5469C84.7852 55.4141 84.2461 53.9023 84.2461 52.0117V51.6133C84.2461 50.3555 84.4844 49.2344 84.9609 48.25C85.4453 47.2578 86.1172 46.4844 86.9766 45.9297C87.8438 45.3672 88.7812 45.0859 89.7891 45.0859C91.4375 45.0859 92.7188 45.6289 93.6328 46.7148C94.5469 47.8008 95.0039 49.3555 95.0039 51.3789V52.2812H86.4141C86.4453 53.5312 86.8086 54.543 87.5039 55.3164C88.207 56.082 89.0977 56.4648 90.1758 56.4648C90.9414 56.4648 91.5898 56.3086 92.1211 55.9961C92.6523 55.6836 93.1172 55.2695 93.5156 54.7539L94.8398 55.7852C93.7773 57.418 92.1836 58.2344 90.0586 58.2344ZM89.7891 46.8672C88.9141 46.8672 88.1797 47.1875 87.5859 47.8281C86.9922 48.4609 86.625 49.3516 86.4844 50.5H92.8359V50.3359C92.7734 49.2344 92.4766 48.3828 91.9453 47.7812C91.4141 47.1719 90.6953 46.8672 89.7891 46.8672ZM99.8789 58H97.7109V40H99.8789V58ZM108.621 58.2344C106.902 58.2344 105.504 57.6719 104.426 56.5469C103.348 55.4141 102.809 53.9023 102.809 52.0117V51.6133C102.809 50.3555 103.047 49.2344 103.523 48.25C104.008 47.2578 104.68 46.4844 105.539 45.9297C106.406 45.3672 107.344 45.0859 108.352 45.0859C110 45.0859 111.281 45.6289 112.195 46.7148C113.109 47.8008 113.566 49.3555 113.566 51.3789V52.2812H104.977C105.008 53.5312 105.371 54.543 106.066 55.3164C106.77 56.082 107.66 56.4648 108.738 56.4648C109.504 56.4648 110.152 56.3086 110.684 55.9961C111.215 55.6836 111.68 55.2695 112.078 54.7539L113.402 55.7852C112.34 57.418 110.746 58.2344 108.621 58.2344ZM108.352 46.8672C107.477 46.8672 106.742 47.1875 106.148 47.8281C105.555 48.4609 105.188 49.3516 105.047 50.5H111.398V50.3359C111.336 49.2344 111.039 48.3828 110.508 47.7812C109.977 47.1719 109.258 46.8672 108.352 46.8672ZM118.125 45.3203L118.184 46.7266C119.113 45.6328 120.367 45.0859 121.945 45.0859C123.719 45.0859 124.926 45.7656 125.566 47.125C125.988 46.5156 126.535 46.0234 127.207 45.6484C127.887 45.2734 128.688 45.0859 129.609 45.0859C132.391 45.0859 133.805 46.5586 133.852 49.5039V58H131.684V49.6328C131.684 48.7266 131.477 48.0508 131.062 47.6055C130.648 47.1523 129.953 46.9258 128.977 46.9258C128.172 46.9258 127.504 47.168 126.973 47.6523C126.441 48.1289 126.133 48.7734 126.047 49.5859V58H123.867V49.6914C123.867 47.8477 122.965 46.9258 121.16 46.9258C119.738 46.9258 118.766 47.5312 118.242 48.7422V58H116.074V45.3203H118.125ZM142.395 58.2344C140.676 58.2344 139.277 57.6719 138.199 56.5469C137.121 55.4141 136.582 53.9023 136.582 52.0117V51.6133C136.582 50.3555 136.82 49.2344 137.297 48.25C137.781 47.2578 138.453 46.4844 139.312 45.9297C140.18 45.3672 141.117 45.0859 142.125 45.0859C143.773 45.0859 145.055 45.6289 145.969 46.7148C146.883 47.8008 147.34 49.3555 147.34 51.3789V52.2812H138.75C138.781 53.5312 139.145 54.543 139.84 55.3164C140.543 56.082 141.434 56.4648 142.512 56.4648C143.277 56.4648 143.926 56.3086 144.457 55.9961C144.988 55.6836 145.453 55.2695 145.852 54.7539L147.176 55.7852C146.113 57.418 144.52 58.2344 142.395 58.2344ZM142.125 46.8672C141.25 46.8672 140.516 47.1875 139.922 47.8281C139.328 48.4609 138.961 49.3516 138.82 50.5H145.172V50.3359C145.109 49.2344 144.812 48.3828 144.281 47.7812C143.75 47.1719 143.031 46.8672 142.125 46.8672ZM151.91 45.3203L151.98 46.9141C152.949 45.6953 154.215 45.0859 155.777 45.0859C158.457 45.0859 159.809 46.5977 159.832 49.6211V58H157.664V49.6094C157.656 48.6953 157.445 48.0195 157.031 47.582C156.625 47.1445 155.988 46.9258 155.121 46.9258C154.418 46.9258 153.801 47.1133 153.27 47.4883C152.738 47.8633 152.324 48.3555 152.027 48.9648V58H149.859V45.3203H151.91ZM166.043 42.25V45.3203H168.41V46.9961H166.043V54.8594C166.043 55.3672 166.148 55.75 166.359 56.0078C166.57 56.2578 166.93 56.3828 167.438 56.3828C167.688 56.3828 168.031 56.3359 168.469 56.2422V58C167.898 58.1562 167.344 58.2344 166.805 58.2344C165.836 58.2344 165.105 57.9414 164.613 57.3555C164.121 56.7695 163.875 55.9375 163.875 54.8594V46.9961H161.566V45.3203H163.875V42.25H166.043Z" fill="white"/>
<rect x="397.5" y="0.5" width="199" height="109" rx="3.5" stroke="white"/>
<path d="M464.492 71.3984H461.82V76H460.312V64.625H464.078C465.359 64.625 466.344 64.9167 467.031 65.5C467.724 66.0833 468.07 66.9323 468.07 68.0469C468.07 68.7552 467.878 69.3724 467.492 69.8984C467.112 70.4245 466.581 70.8177 465.898 71.0781L468.57 75.9062V76H466.961L464.492 71.3984ZM461.82 70.1719H464.125C464.87 70.1719 465.461 69.9792 465.898 69.5938C466.341 69.2083 466.562 68.6927 466.562 68.0469C466.562 67.3438 466.352 66.8047 465.93 66.4297C465.513 66.0547 464.909 65.8646 464.117 65.8594H461.82V70.1719ZM473.461 76.1562C472.315 76.1562 471.383 75.7812 470.664 75.0312C469.945 74.276 469.586 73.2682 469.586 72.0078V71.7422C469.586 70.9036 469.745 70.1562 470.062 69.5C470.385 68.8385 470.833 68.3229 471.406 67.9531C471.984 67.5781 472.609 67.3906 473.281 67.3906C474.38 67.3906 475.234 67.7526 475.844 68.4766C476.453 69.2005 476.758 70.237 476.758 71.5859V72.1875H471.031C471.052 73.0208 471.294 73.6953 471.758 74.2109C472.227 74.7214 472.82 74.9766 473.539 74.9766C474.049 74.9766 474.482 74.8724 474.836 74.6641C475.19 74.4557 475.5 74.1797 475.766 73.8359L476.648 74.5234C475.94 75.612 474.878 76.1562 473.461 76.1562ZM473.281 68.5781C472.698 68.5781 472.208 68.7917 471.812 69.2188C471.417 69.6406 471.172 70.2344 471.078 71H475.312V70.8906C475.271 70.1562 475.073 69.5885 474.719 69.1875C474.365 68.7812 473.885 68.5781 473.281 68.5781ZM479.805 67.5469L479.852 68.6094C480.497 67.7969 481.341 67.3906 482.383 67.3906C484.169 67.3906 485.07 68.3984 485.086 70.4141V76H483.641V70.4062C483.635 69.7969 483.495 69.3464 483.219 69.0547C482.948 68.763 482.523 68.6172 481.945 68.6172C481.477 68.6172 481.065 68.7422 480.711 68.9922C480.357 69.2422 480.081 69.5703 479.883 69.9766V76H478.438V67.5469H479.805ZM486.914 71.7031C486.914 70.4062 487.221 69.3646 487.836 68.5781C488.451 67.7865 489.255 67.3906 490.25 67.3906C491.24 67.3906 492.023 67.7292 492.602 68.4062V64H494.047V76H492.719L492.648 75.0938C492.07 75.8021 491.266 76.1562 490.234 76.1562C489.255 76.1562 488.456 75.7552 487.836 74.9531C487.221 74.151 486.914 73.1042 486.914 71.8125V71.7031ZM488.359 71.8672C488.359 72.8255 488.557 73.5755 488.953 74.1172C489.349 74.6589 489.896 74.9297 490.594 74.9297C491.51 74.9297 492.18 74.5182 492.602 73.6953V69.8125C492.169 69.0156 491.505 68.6172 490.609 68.6172C489.901 68.6172 489.349 68.8906 488.953 69.4375C488.557 69.9844 488.359 70.7943 488.359 71.8672ZM499.805 76.1562C498.659 76.1562 497.727 75.7812 497.008 75.0312C496.289 74.276 495.93 73.2682 495.93 72.0078V71.7422C495.93 70.9036 496.089 70.1562 496.406 69.5C496.729 68.8385 497.177 68.3229 497.75 67.9531C498.328 67.5781 498.953 67.3906 499.625 67.3906C500.724 67.3906 501.578 67.7526 502.188 68.4766C502.797 69.2005 503.102 70.237 503.102 71.5859V72.1875H497.375C497.396 73.0208 497.638 73.6953 498.102 74.2109C498.57 74.7214 499.164 74.9766 499.883 74.9766C500.393 74.9766 500.826 74.8724 501.18 74.6641C501.534 74.4557 501.844 74.1797 502.109 73.8359L502.992 74.5234C502.284 75.612 501.221 76.1562 499.805 76.1562ZM499.625 68.5781C499.042 68.5781 498.552 68.7917 498.156 69.2188C497.76 69.6406 497.516 70.2344 497.422 71H501.656V70.8906C501.615 70.1562 501.417 69.5885 501.062 69.1875C500.708 68.7812 500.229 68.5781 499.625 68.5781ZM508.867 68.8438C508.648 68.8073 508.411 68.7891 508.156 68.7891C507.208 68.7891 506.565 69.1927 506.227 70V76H504.781V67.5469H506.188L506.211 68.5234C506.685 67.7682 507.357 67.3906 508.227 67.3906C508.508 67.3906 508.721 67.4271 508.867 67.5V68.8438ZM513.555 76.1562C512.409 76.1562 511.477 75.7812 510.758 75.0312C510.039 74.276 509.68 73.2682 509.68 72.0078V71.7422C509.68 70.9036 509.839 70.1562 510.156 69.5C510.479 68.8385 510.927 68.3229 511.5 67.9531C512.078 67.5781 512.703 67.3906 513.375 67.3906C514.474 67.3906 515.328 67.7526 515.938 68.4766C516.547 69.2005 516.852 70.237 516.852 71.5859V72.1875H511.125C511.146 73.0208 511.388 73.6953 511.852 74.2109C512.32 74.7214 512.914 74.9766 513.633 74.9766C514.143 74.9766 514.576 74.8724 514.93 74.6641C515.284 74.4557 515.594 74.1797 515.859 73.8359L516.742 74.5234C516.034 75.612 514.971 76.1562 513.555 76.1562ZM513.375 68.5781C512.792 68.5781 512.302 68.7917 511.906 69.2188C511.51 69.6406 511.266 70.2344 511.172 71H515.406V70.8906C515.365 70.1562 515.167 69.5885 514.812 69.1875C514.458 68.7812 513.979 68.5781 513.375 68.5781ZM522.617 68.8438C522.398 68.8073 522.161 68.7891 521.906 68.7891C520.958 68.7891 520.315 69.1927 519.977 70V76H518.531V67.5469H519.938L519.961 68.5234C520.435 67.7682 521.107 67.3906 521.977 67.3906C522.258 67.3906 522.471 67.4271 522.617 67.5V68.8438ZM531.258 76H523.805V74.9609L527.742 70.5859C528.326 69.9245 528.727 69.388 528.945 68.9766C529.169 68.5599 529.281 68.1302 529.281 67.6875C529.281 67.0938 529.102 66.6068 528.742 66.2266C528.383 65.8464 527.904 65.6562 527.305 65.6562C526.586 65.6562 526.026 65.862 525.625 66.2734C525.229 66.6797 525.031 67.2474 525.031 67.9766H523.586C523.586 66.9297 523.922 66.0833 524.594 65.4375C525.271 64.7917 526.174 64.4688 527.305 64.4688C528.362 64.4688 529.198 64.7474 529.812 65.3047C530.427 65.8568 530.734 66.5938 530.734 67.5156C530.734 68.6354 530.021 69.9688 528.594 71.5156L525.547 74.8203H531.258V76Z" fill="white"/>
<path d="M465.062 93H463.555V87.7422H457.82V93H456.32V81.625H457.82V86.5156H463.555V81.625H465.062V93ZM467.117 88.6953C467.117 87.8672 467.279 87.1224 467.602 86.4609C467.93 85.7995 468.383 85.2891 468.961 84.9297C469.544 84.5703 470.208 84.3906 470.953 84.3906C472.104 84.3906 473.034 84.7891 473.742 85.5859C474.456 86.3828 474.812 87.4427 474.812 88.7656V88.8672C474.812 89.6901 474.654 90.4297 474.336 91.0859C474.023 91.737 473.573 92.2448 472.984 92.6094C472.401 92.974 471.729 93.1562 470.969 93.1562C469.823 93.1562 468.893 92.7578 468.18 91.9609C467.471 91.1641 467.117 90.1094 467.117 88.7969V88.6953ZM468.57 88.8672C468.57 89.8047 468.786 90.5573 469.219 91.125C469.656 91.6927 470.24 91.9766 470.969 91.9766C471.703 91.9766 472.286 91.6901 472.719 91.1172C473.151 90.5391 473.367 89.7318 473.367 88.6953C473.367 87.7682 473.146 87.0182 472.703 86.4453C472.266 85.8672 471.682 85.5781 470.953 85.5781C470.24 85.5781 469.664 85.862 469.227 86.4297C468.789 86.9974 468.57 87.8099 468.57 88.8672ZM481.547 90.7578C481.547 90.3672 481.398 90.0651 481.102 89.8516C480.81 89.6328 480.297 89.4453 479.562 89.2891C478.833 89.1328 478.253 88.9453 477.82 88.7266C477.393 88.5078 477.076 88.2474 476.867 87.9453C476.664 87.6432 476.562 87.2839 476.562 86.8672C476.562 86.1745 476.854 85.5885 477.438 85.1094C478.026 84.6302 478.776 84.3906 479.688 84.3906C480.646 84.3906 481.422 84.638 482.016 85.1328C482.615 85.6276 482.914 86.2604 482.914 87.0312H481.461C481.461 86.6354 481.292 86.2943 480.953 86.0078C480.62 85.7214 480.198 85.5781 479.688 85.5781C479.161 85.5781 478.75 85.6927 478.453 85.9219C478.156 86.151 478.008 86.4505 478.008 86.8203C478.008 87.1693 478.146 87.4323 478.422 87.6094C478.698 87.7865 479.195 87.9557 479.914 88.1172C480.638 88.2786 481.224 88.4714 481.672 88.6953C482.12 88.9193 482.451 89.1901 482.664 89.5078C482.883 89.8203 482.992 90.2031 482.992 90.6562C482.992 91.4115 482.69 92.0182 482.086 92.4766C481.482 92.9297 480.698 93.1562 479.734 93.1562C479.057 93.1562 478.458 93.0365 477.938 92.7969C477.417 92.5573 477.008 92.224 476.711 91.7969C476.419 91.3646 476.273 90.8984 476.273 90.3984H477.719C477.745 90.8828 477.938 91.2682 478.297 91.5547C478.661 91.8359 479.141 91.9766 479.734 91.9766C480.281 91.9766 480.719 91.8672 481.047 91.6484C481.38 91.4245 481.547 91.1276 481.547 90.7578ZM486.836 82.5V84.5469H488.414V85.6641H486.836V90.9062C486.836 91.2448 486.906 91.5 487.047 91.6719C487.188 91.8385 487.427 91.9219 487.766 91.9219C487.932 91.9219 488.161 91.8906 488.453 91.8281V93C488.073 93.1042 487.703 93.1562 487.344 93.1562C486.698 93.1562 486.211 92.9609 485.883 92.5703C485.555 92.1797 485.391 91.625 485.391 90.9062V85.6641H483.852V84.5469H485.391V82.5H486.836ZM491.844 91.7734H497.234V93H490.336V81.625H491.844V91.7734ZM500.289 93H498.844V84.5469H500.289V93ZM498.727 82.3047C498.727 82.0703 498.797 81.8724 498.938 81.7109C499.083 81.5495 499.297 81.4688 499.578 81.4688C499.859 81.4688 500.073 81.5495 500.219 81.7109C500.365 81.8724 500.438 82.0703 500.438 82.3047C500.438 82.5391 500.365 82.7344 500.219 82.8906C500.073 83.0469 499.859 83.125 499.578 83.125C499.297 83.125 499.083 83.0469 498.938 82.8906C498.797 82.7344 498.727 82.5391 498.727 82.3047ZM507.531 90.7578C507.531 90.3672 507.383 90.0651 507.086 89.8516C506.794 89.6328 506.281 89.4453 505.547 89.2891C504.818 89.1328 504.237 88.9453 503.805 88.7266C503.378 88.5078 503.06 88.2474 502.852 87.9453C502.648 87.6432 502.547 87.2839 502.547 86.8672C502.547 86.1745 502.839 85.5885 503.422 85.1094C504.01 84.6302 504.76 84.3906 505.672 84.3906C506.63 84.3906 507.406 84.638 508 85.1328C508.599 85.6276 508.898 86.2604 508.898 87.0312H507.445C507.445 86.6354 507.276 86.2943 506.938 86.0078C506.604 85.7214 506.182 85.5781 505.672 85.5781C505.146 85.5781 504.734 85.6927 504.438 85.9219C504.141 86.151 503.992 86.4505 503.992 86.8203C503.992 87.1693 504.13 87.4323 504.406 87.6094C504.682 87.7865 505.18 87.9557 505.898 88.1172C506.622 88.2786 507.208 88.4714 507.656 88.6953C508.104 88.9193 508.435 89.1901 508.648 89.5078C508.867 89.8203 508.977 90.2031 508.977 90.6562C508.977 91.4115 508.674 92.0182 508.07 92.4766C507.466 92.9297 506.682 93.1562 505.719 93.1562C505.042 93.1562 504.443 93.0365 503.922 92.7969C503.401 92.5573 502.992 92.224 502.695 91.7969C502.404 91.3646 502.258 90.8984 502.258 90.3984H503.703C503.729 90.8828 503.922 91.2682 504.281 91.5547C504.646 91.8359 505.125 91.9766 505.719 91.9766C506.266 91.9766 506.703 91.8672 507.031 91.6484C507.365 91.4245 507.531 91.1276 507.531 90.7578ZM512.82 82.5V84.5469H514.398V85.6641H512.82V90.9062C512.82 91.2448 512.891 91.5 513.031 91.6719C513.172 91.8385 513.411 91.9219 513.75 91.9219C513.917 91.9219 514.146 91.8906 514.438 91.8281V93C514.057 93.1042 513.688 93.1562 513.328 93.1562C512.682 93.1562 512.195 92.9609 511.867 92.5703C511.539 92.1797 511.375 91.625 511.375 90.9062V85.6641H509.836V84.5469H511.375V82.5H512.82ZM517.461 84.5469L517.508 85.6094C518.154 84.7969 518.997 84.3906 520.039 84.3906C521.826 84.3906 522.727 85.3984 522.742 87.4141V93H521.297V87.4062C521.292 86.7969 521.151 86.3464 520.875 86.0547C520.604 85.763 520.18 85.6172 519.602 85.6172C519.133 85.6172 518.721 85.7422 518.367 85.9922C518.013 86.2422 517.737 86.5703 517.539 86.9766V93H516.094V84.5469H517.461ZM528.43 93.1562C527.284 93.1562 526.352 92.7812 525.633 92.0312C524.914 91.276 524.555 90.2682 524.555 89.0078V88.7422C524.555 87.9036 524.714 87.1562 525.031 86.5C525.354 85.8385 525.802 85.3229 526.375 84.9531C526.953 84.5781 527.578 84.3906 528.25 84.3906C529.349 84.3906 530.203 84.7526 530.812 85.4766C531.422 86.2005 531.727 87.237 531.727 88.5859V89.1875H526C526.021 90.0208 526.263 90.6953 526.727 91.2109C527.195 91.7214 527.789 91.9766 528.508 91.9766C529.018 91.9766 529.451 91.8724 529.805 91.6641C530.159 91.4557 530.469 91.1797 530.734 90.8359L531.617 91.5234C530.909 92.612 529.846 93.1562 528.43 93.1562ZM528.25 85.5781C527.667 85.5781 527.177 85.7917 526.781 86.2188C526.385 86.6406 526.141 87.2344 526.047 88H530.281V87.8906C530.24 87.1562 530.042 86.5885 529.688 86.1875C529.333 85.7812 528.854 85.5781 528.25 85.5781ZM537.492 85.8438C537.273 85.8073 537.036 85.7891 536.781 85.7891C535.833 85.7891 535.19 86.1927 534.852 87V93H533.406V84.5469H534.812L534.836 85.5234C535.31 84.7682 535.982 84.3906 536.852 84.3906C537.133 84.3906 537.346 84.4271 537.492 84.5V85.8438Z" fill="#F2F2F2"/>
<path d="M38.0625 81.9688L42.9531 83.9453V85.4766L36.5625 82.5156V81.375L42.9531 78.4219V79.9531L38.0625 81.9688ZM52.3906 82.8672C52.3906 84.1589 52.0938 85.1979 51.5 85.9844C50.9062 86.7656 50.1094 87.1562 49.1094 87.1562C48.0417 87.1562 47.2161 86.7786 46.6328 86.0234L46.5625 87H45.2344V75H46.6797V79.4766C47.263 78.7526 48.0677 78.3906 49.0938 78.3906C50.1198 78.3906 50.9245 78.7786 51.5078 79.5547C52.0964 80.3307 52.3906 81.3932 52.3906 82.7422V82.8672ZM50.9453 82.7031C50.9453 81.7188 50.7552 80.9583 50.375 80.4219C49.9948 79.8854 49.4479 79.6172 48.7344 79.6172C47.7812 79.6172 47.0964 80.0599 46.6797 80.9453V84.6016C47.1224 85.487 47.8125 85.9297 48.75 85.9297C49.4427 85.9297 49.9818 85.6615 50.3672 85.125C50.7526 84.5885 50.9453 83.7812 50.9453 82.7031ZM59.4375 86.1641C58.875 86.8255 58.0495 87.1562 56.9609 87.1562C56.0599 87.1562 55.3724 86.8958 54.8984 86.375C54.4297 85.849 54.1927 85.0729 54.1875 84.0469V78.5469H55.6328V84.0078C55.6328 85.2891 56.1536 85.9297 57.1953 85.9297C58.2995 85.9297 59.0339 85.5182 59.3984 84.6953V78.5469H60.8438V87H59.4688L59.4375 86.1641ZM65.0078 76.5V78.5469H66.5859V79.6641H65.0078V84.9062C65.0078 85.2448 65.0781 85.5 65.2188 85.6719C65.3594 85.8385 65.599 85.9219 65.9375 85.9219C66.1042 85.9219 66.3333 85.8906 66.625 85.8281V87C66.2448 87.1042 65.875 87.1562 65.5156 87.1562C64.8698 87.1562 64.3828 86.9609 64.0547 86.5703C63.7266 86.1797 63.5625 85.625 63.5625 84.9062V79.6641H62.0234V78.5469H63.5625V76.5H65.0078ZM70.2422 76.5V78.5469H71.8203V79.6641H70.2422V84.9062C70.2422 85.2448 70.3125 85.5 70.4531 85.6719C70.5938 85.8385 70.8333 85.9219 71.1719 85.9219C71.3385 85.9219 71.5677 85.8906 71.8594 85.8281V87C71.4792 87.1042 71.1094 87.1562 70.75 87.1562C70.1042 87.1562 69.6172 86.9609 69.2891 86.5703C68.9609 86.1797 68.7969 85.625 68.7969 84.9062V79.6641H67.2578V78.5469H68.7969V76.5H70.2422ZM72.9766 82.6953C72.9766 81.8672 73.138 81.1224 73.4609 80.4609C73.7891 79.7995 74.2422 79.2891 74.8203 78.9297C75.4036 78.5703 76.0677 78.3906 76.8125 78.3906C77.9635 78.3906 78.8932 78.7891 79.6016 79.5859C80.3151 80.3828 80.6719 81.4427 80.6719 82.7656V82.8672C80.6719 83.6901 80.513 84.4297 80.1953 85.0859C79.8828 85.737 79.4323 86.2448 78.8438 86.6094C78.2604 86.974 77.5885 87.1562 76.8281 87.1562C75.6823 87.1562 74.7526 86.7578 74.0391 85.9609C73.3307 85.1641 72.9766 84.1094 72.9766 82.7969V82.6953ZM74.4297 82.8672C74.4297 83.8047 74.6458 84.5573 75.0781 85.125C75.5156 85.6927 76.099 85.9766 76.8281 85.9766C77.5625 85.9766 78.1458 85.6901 78.5781 85.1172C79.0104 84.5391 79.2266 83.7318 79.2266 82.6953C79.2266 81.7682 79.0052 81.0182 78.5625 80.4453C78.125 79.8672 77.5417 79.5781 76.8125 79.5781C76.099 79.5781 75.5234 79.862 75.0859 80.4297C74.6484 80.9974 74.4297 81.8099 74.4297 82.8672ZM83.8516 78.5469L83.8984 79.6094C84.5443 78.7969 85.388 78.3906 86.4297 78.3906C88.2161 78.3906 89.1172 79.3984 89.1328 81.4141V87H87.6875V81.4062C87.6823 80.7969 87.5417 80.3464 87.2656 80.0547C86.9948 79.763 86.5703 79.6172 85.9922 79.6172C85.5234 79.6172 85.112 79.7422 84.7578 79.9922C84.4036 80.2422 84.1276 80.5703 83.9297 80.9766V87H82.4844V78.5469H83.8516ZM96.6406 78.5469L96.6797 79.4844C97.2995 78.7552 98.1354 78.3906 99.1875 78.3906C100.37 78.3906 101.174 78.8438 101.602 79.75C101.883 79.3438 102.247 79.0156 102.695 78.7656C103.148 78.5156 103.682 78.3906 104.297 78.3906C106.151 78.3906 107.094 79.3724 107.125 81.3359V87H105.68V81.4219C105.68 80.8177 105.542 80.3672 105.266 80.0703C104.99 79.7682 104.526 79.6172 103.875 79.6172C103.339 79.6172 102.893 79.7786 102.539 80.1016C102.185 80.4193 101.979 80.849 101.922 81.3906V87H100.469V81.4609C100.469 80.2318 99.8672 79.6172 98.6641 79.6172C97.7161 79.6172 97.0677 80.0208 96.7188 80.8281V87H95.2734V78.5469H96.6406ZM112.078 84.8828L114.047 78.5469H115.594L112.195 88.3047C111.669 89.7109 110.833 90.4141 109.688 90.4141L109.414 90.3906L108.875 90.2891V89.1172L109.266 89.1484C109.755 89.1484 110.135 89.0495 110.406 88.8516C110.682 88.6536 110.909 88.2917 111.086 87.7656L111.406 86.9062L108.391 78.5469H109.969L112.078 84.8828ZM117.117 87V75.625H120.836C122.07 75.625 122.997 75.8802 123.617 76.3906C124.242 76.901 124.555 77.6562 124.555 78.6562C124.555 79.1875 124.404 79.6589 124.102 80.0703C123.799 80.4766 123.388 80.7917 122.867 81.0156C123.482 81.1875 123.966 81.5156 124.32 82C124.68 82.4792 124.859 83.0521 124.859 83.7188C124.859 84.7396 124.529 85.5417 123.867 86.125C123.206 86.7083 122.271 87 121.062 87H117.117ZM118.617 81.6797V85.7734H121.094C121.792 85.7734 122.341 85.5938 122.742 85.2344C123.148 84.8698 123.352 84.3698 123.352 83.7344C123.352 82.3646 122.607 81.6797 121.117 81.6797H118.617ZM118.617 80.4766H120.883C121.539 80.4766 122.062 80.3125 122.453 79.9844C122.849 79.6562 123.047 79.2109 123.047 78.6484C123.047 78.0234 122.865 77.5703 122.5 77.2891C122.135 77.0026 121.581 76.8594 120.836 76.8594H118.617V80.4766ZM128.82 76.5V78.5469H130.398V79.6641H128.82V84.9062C128.82 85.2448 128.891 85.5 129.031 85.6719C129.172 85.8385 129.411 85.9219 129.75 85.9219C129.917 85.9219 130.146 85.8906 130.438 85.8281V87C130.057 87.1042 129.688 87.1562 129.328 87.1562C128.682 87.1562 128.195 86.9609 127.867 86.5703C127.539 86.1797 127.375 85.625 127.375 84.9062V79.6641H125.836V78.5469H127.375V76.5H128.82ZM133.461 78.5469L133.508 79.6094C134.154 78.7969 134.997 78.3906 136.039 78.3906C137.826 78.3906 138.727 79.3984 138.742 81.4141V87H137.297V81.4062C137.292 80.7969 137.151 80.3464 136.875 80.0547C136.604 79.763 136.18 79.6172 135.602 79.6172C135.133 79.6172 134.721 79.7422 134.367 79.9922C134.013 80.2422 133.737 80.5703 133.539 80.9766V87H132.094V78.5469H133.461ZM146.039 81.9219L140.875 79.8984V78.4141L147.547 81.3672V82.5078L140.875 85.4688V83.9688L146.039 81.9219ZM149.312 86.2422C149.312 85.9922 149.385 85.7839 149.531 85.6172C149.682 85.4505 149.906 85.3672 150.203 85.3672C150.5 85.3672 150.724 85.4505 150.875 85.6172C151.031 85.7839 151.109 85.9922 151.109 86.2422C151.109 86.4818 151.031 86.6823 150.875 86.8438C150.724 87.0052 150.5 87.0859 150.203 87.0859C149.906 87.0859 149.682 87.0052 149.531 86.8438C149.385 86.6823 149.312 86.4818 149.312 86.2422ZM153.531 86.2422C153.531 85.9922 153.604 85.7839 153.75 85.6172C153.901 85.4505 154.125 85.3672 154.422 85.3672C154.719 85.3672 154.943 85.4505 155.094 85.6172C155.25 85.7839 155.328 85.9922 155.328 86.2422C155.328 86.4818 155.25 86.6823 155.094 86.8438C154.943 87.0052 154.719 87.0859 154.422 87.0859C154.125 87.0859 153.901 87.0052 153.75 86.8438C153.604 86.6823 153.531 86.4818 153.531 86.2422ZM157.75 86.2422C157.75 85.9922 157.823 85.7839 157.969 85.6172C158.12 85.4505 158.344 85.3672 158.641 85.3672C158.938 85.3672 159.161 85.4505 159.312 85.6172C159.469 85.7839 159.547 85.9922 159.547 86.2422C159.547 86.4818 159.469 86.6823 159.312 86.8438C159.161 87.0052 158.938 87.0859 158.641 87.0859C158.344 87.0859 158.12 87.0052 157.969 86.8438C157.823 86.6823 157.75 86.4818 157.75 86.2422Z" fill="#F2F2F2"/>
<path d="M258.25 69.8672C258.25 71.1589 257.953 72.1979 257.359 72.9844C256.766 73.7656 255.969 74.1562 254.969 74.1562C253.901 74.1562 253.076 73.7786 252.492 73.0234L252.422 74H251.094V62H252.539V66.4766C253.122 65.7526 253.927 65.3906 254.953 65.3906C255.979 65.3906 256.784 65.7786 257.367 66.5547C257.956 67.3307 258.25 68.3932 258.25 69.7422V69.8672ZM256.805 69.7031C256.805 68.7188 256.615 67.9583 256.234 67.4219C255.854 66.8854 255.307 66.6172 254.594 66.6172C253.641 66.6172 252.956 67.0599 252.539 67.9453V71.6016C252.982 72.487 253.672 72.9297 254.609 72.9297C255.302 72.9297 255.841 72.6615 256.227 72.125C256.612 71.5885 256.805 70.7812 256.805 69.7031ZM265.297 73.1641C264.734 73.8255 263.909 74.1562 262.82 74.1562C261.919 74.1562 261.232 73.8958 260.758 73.375C260.289 72.849 260.052 72.0729 260.047 71.0469V65.5469H261.492V71.0078C261.492 72.2891 262.013 72.9297 263.055 72.9297C264.159 72.9297 264.893 72.5182 265.258 71.6953V65.5469H266.703V74H265.328L265.297 73.1641ZM270.867 63.5V65.5469H272.445V66.6641H270.867V71.9062C270.867 72.2448 270.938 72.5 271.078 72.6719C271.219 72.8385 271.458 72.9219 271.797 72.9219C271.964 72.9219 272.193 72.8906 272.484 72.8281V74C272.104 74.1042 271.734 74.1562 271.375 74.1562C270.729 74.1562 270.242 73.9609 269.914 73.5703C269.586 73.1797 269.422 72.625 269.422 71.9062V66.6641H267.883V65.5469H269.422V63.5H270.867ZM276.102 63.5V65.5469H277.68V66.6641H276.102V71.9062C276.102 72.2448 276.172 72.5 276.312 72.6719C276.453 72.8385 276.693 72.9219 277.031 72.9219C277.198 72.9219 277.427 72.8906 277.719 72.8281V74C277.339 74.1042 276.969 74.1562 276.609 74.1562C275.964 74.1562 275.477 73.9609 275.148 73.5703C274.82 73.1797 274.656 72.625 274.656 71.9062V66.6641H273.117V65.5469H274.656V63.5H276.102ZM278.836 69.6953C278.836 68.8672 278.997 68.1224 279.32 67.4609C279.648 66.7995 280.102 66.2891 280.68 65.9297C281.263 65.5703 281.927 65.3906 282.672 65.3906C283.823 65.3906 284.753 65.7891 285.461 66.5859C286.174 67.3828 286.531 68.4427 286.531 69.7656V69.8672C286.531 70.6901 286.372 71.4297 286.055 72.0859C285.742 72.737 285.292 73.2448 284.703 73.6094C284.12 73.974 283.448 74.1562 282.688 74.1562C281.542 74.1562 280.612 73.7578 279.898 72.9609C279.19 72.1641 278.836 71.1094 278.836 69.7969V69.6953ZM280.289 69.8672C280.289 70.8047 280.505 71.5573 280.938 72.125C281.375 72.6927 281.958 72.9766 282.688 72.9766C283.422 72.9766 284.005 72.6901 284.438 72.1172C284.87 71.5391 285.086 70.7318 285.086 69.6953C285.086 68.7682 284.865 68.0182 284.422 67.4453C283.984 66.8672 283.401 66.5781 282.672 66.5781C281.958 66.5781 281.383 66.862 280.945 67.4297C280.508 67.9974 280.289 68.8099 280.289 69.8672ZM289.711 65.5469L289.758 66.6094C290.404 65.7969 291.247 65.3906 292.289 65.3906C294.076 65.3906 294.977 66.3984 294.992 68.4141V74H293.547V68.4062C293.542 67.7969 293.401 67.3464 293.125 67.0547C292.854 66.763 292.43 66.6172 291.852 66.6172C291.383 66.6172 290.971 66.7422 290.617 66.9922C290.263 67.2422 289.987 67.5703 289.789 67.9766V74H288.344V65.5469H289.711ZM300.164 62.1875H298.672V75.25H300.164V76.4375H297.219V61H300.164V62.1875ZM302.781 65.5469L302.82 66.4844C303.44 65.7552 304.276 65.3906 305.328 65.3906C306.51 65.3906 307.315 65.8438 307.742 66.75C308.023 66.3438 308.388 66.0156 308.836 65.7656C309.289 65.5156 309.823 65.3906 310.438 65.3906C312.292 65.3906 313.234 66.3724 313.266 68.3359V74H311.82V68.4219C311.82 67.8177 311.682 67.3672 311.406 67.0703C311.13 66.7682 310.667 66.6172 310.016 66.6172C309.479 66.6172 309.034 66.7786 308.68 67.1016C308.326 67.4193 308.12 67.849 308.062 68.3906V74H306.609V68.4609C306.609 67.2318 306.008 66.6172 304.805 66.6172C303.857 66.6172 303.208 67.0208 302.859 67.8281V74H301.414V65.5469H302.781ZM318.219 71.8828L320.188 65.5469H321.734L318.336 75.3047C317.81 76.7109 316.974 77.4141 315.828 77.4141L315.555 77.3906L315.016 77.2891V76.1172L315.406 76.1484C315.896 76.1484 316.276 76.0495 316.547 75.8516C316.823 75.6536 317.049 75.2917 317.227 74.7656L317.547 73.9062L314.531 65.5469H316.109L318.219 71.8828ZM323.258 74V62.625H326.977C328.211 62.625 329.138 62.8802 329.758 63.3906C330.383 63.901 330.695 64.6562 330.695 65.6562C330.695 66.1875 330.544 66.6589 330.242 67.0703C329.94 67.4766 329.529 67.7917 329.008 68.0156C329.622 68.1875 330.107 68.5156 330.461 69C330.82 69.4792 331 70.0521 331 70.7188C331 71.7396 330.669 72.5417 330.008 73.125C329.346 73.7083 328.411 74 327.203 74H323.258ZM324.758 68.6797V72.7734H327.234C327.932 72.7734 328.482 72.5938 328.883 72.2344C329.289 71.8698 329.492 71.3698 329.492 70.7344C329.492 69.3646 328.747 68.6797 327.258 68.6797H324.758ZM324.758 67.4766H327.023C327.68 67.4766 328.203 67.3125 328.594 66.9844C328.99 66.6562 329.188 66.2109 329.188 65.6484C329.188 65.0234 329.005 64.5703 328.641 64.2891C328.276 64.0026 327.721 63.8594 326.977 63.8594H324.758V67.4766ZM334.961 63.5V65.5469H336.539V66.6641H334.961V71.9062C334.961 72.2448 335.031 72.5 335.172 72.6719C335.312 72.8385 335.552 72.9219 335.891 72.9219C336.057 72.9219 336.286 72.8906 336.578 72.8281V74C336.198 74.1042 335.828 74.1562 335.469 74.1562C334.823 74.1562 334.336 73.9609 334.008 73.5703C333.68 73.1797 333.516 72.625 333.516 71.9062V66.6641H331.977V65.5469H333.516V63.5H334.961ZM339.602 65.5469L339.648 66.6094C340.294 65.7969 341.138 65.3906 342.18 65.3906C343.966 65.3906 344.867 66.3984 344.883 68.4141V74H343.438V68.4062C343.432 67.7969 343.292 67.3464 343.016 67.0547C342.745 66.763 342.32 66.6172 341.742 66.6172C341.273 66.6172 340.862 66.7422 340.508 66.9922C340.154 67.2422 339.878 67.5703 339.68 67.9766V74H338.234V65.5469H339.602ZM346.039 61H348.992V76.4375H346.039V75.25H347.547V62.1875H346.039V61Z" fill="#F2F2F2"/>
<path d="M453.98 36V18.9375H458.797C460.281 18.9375 461.594 19.2656 462.734 19.9219C463.875 20.5781 464.754 21.5117 465.371 22.7227C465.996 23.9336 466.312 25.3242 466.32 26.8945V27.9844C466.32 29.5938 466.008 31.0039 465.383 32.2148C464.766 33.4258 463.879 34.3555 462.723 35.0039C461.574 35.6523 460.234 35.9844 458.703 36H453.98ZM456.23 20.7891V34.1602H458.598C460.332 34.1602 461.68 33.6211 462.641 32.543C463.609 31.4648 464.094 29.9297 464.094 27.9375V26.9414C464.094 25.0039 463.637 23.5 462.723 22.4297C461.816 21.3516 460.527 20.8047 458.855 20.7891H456.23ZM471.746 36H469.578V23.3203H471.746V36ZM469.402 19.957C469.402 19.6055 469.508 19.3086 469.719 19.0664C469.938 18.8242 470.258 18.7031 470.68 18.7031C471.102 18.7031 471.422 18.8242 471.641 19.0664C471.859 19.3086 471.969 19.6055 471.969 19.957C471.969 20.3086 471.859 20.6016 471.641 20.8359C471.422 21.0703 471.102 21.1875 470.68 21.1875C470.258 21.1875 469.938 21.0703 469.719 20.8359C469.508 20.6016 469.402 20.3086 469.402 19.957ZM481.355 25.2656C481.027 25.2109 480.672 25.1836 480.289 25.1836C478.867 25.1836 477.902 25.7891 477.395 27V36H475.227V23.3203H477.336L477.371 24.7852C478.082 23.6523 479.09 23.0859 480.395 23.0859C480.816 23.0859 481.137 23.1406 481.355 23.25V25.2656ZM488.387 36.2344C486.668 36.2344 485.27 35.6719 484.191 34.5469C483.113 33.4141 482.574 31.9023 482.574 30.0117V29.6133C482.574 28.3555 482.812 27.2344 483.289 26.25C483.773 25.2578 484.445 24.4844 485.305 23.9297C486.172 23.3672 487.109 23.0859 488.117 23.0859C489.766 23.0859 491.047 23.6289 491.961 24.7148C492.875 25.8008 493.332 27.3555 493.332 29.3789V30.2812H484.742C484.773 31.5312 485.137 32.543 485.832 33.3164C486.535 34.082 487.426 34.4648 488.504 34.4648C489.27 34.4648 489.918 34.3086 490.449 33.9961C490.98 33.6836 491.445 33.2695 491.844 32.7539L493.168 33.7852C492.105 35.418 490.512 36.2344 488.387 36.2344ZM488.117 24.8672C487.242 24.8672 486.508 25.1875 485.914 25.8281C485.32 26.4609 484.953 27.3516 484.812 28.5H491.164V28.3359C491.102 27.2344 490.805 26.3828 490.273 25.7812C489.742 25.1719 489.023 24.8672 488.117 24.8672ZM500.938 34.4648C501.711 34.4648 502.387 34.2305 502.965 33.7617C503.543 33.293 503.863 32.707 503.926 32.0039H505.977C505.938 32.7305 505.688 33.4219 505.227 34.0781C504.766 34.7344 504.148 35.2578 503.375 35.6484C502.609 36.0391 501.797 36.2344 500.938 36.2344C499.211 36.2344 497.836 35.6602 496.812 34.5117C495.797 33.3555 495.289 31.7773 495.289 29.7773V29.4141C495.289 28.1797 495.516 27.082 495.969 26.1211C496.422 25.1602 497.07 24.4141 497.914 23.8828C498.766 23.3516 499.77 23.0859 500.926 23.0859C502.348 23.0859 503.527 23.5117 504.465 24.3633C505.41 25.2148 505.914 26.3203 505.977 27.6797H503.926C503.863 26.8594 503.551 26.1875 502.988 25.6641C502.434 25.1328 501.746 24.8672 500.926 24.8672C499.824 24.8672 498.969 25.2656 498.359 26.0625C497.758 26.8516 497.457 27.9961 497.457 29.4961V29.9062C497.457 31.3672 497.758 32.4922 498.359 33.2812C498.961 34.0703 499.82 34.4648 500.938 34.4648ZM511.355 20.25V23.3203H513.723V24.9961H511.355V32.8594C511.355 33.3672 511.461 33.75 511.672 34.0078C511.883 34.2578 512.242 34.3828 512.75 34.3828C513 34.3828 513.344 34.3359 513.781 34.2422V36C513.211 36.1562 512.656 36.2344 512.117 36.2344C511.148 36.2344 510.418 35.9414 509.926 35.3555C509.434 34.7695 509.188 33.9375 509.188 32.8594V24.9961H506.879V23.3203H509.188V20.25H511.355ZM518.621 36H516.453V23.3203H518.621V36ZM516.277 19.957C516.277 19.6055 516.383 19.3086 516.594 19.0664C516.812 18.8242 517.133 18.7031 517.555 18.7031C517.977 18.7031 518.297 18.8242 518.516 19.0664C518.734 19.3086 518.844 19.6055 518.844 19.957C518.844 20.3086 518.734 20.6016 518.516 20.8359C518.297 21.0703 517.977 21.1875 517.555 21.1875C517.133 21.1875 516.812 21.0703 516.594 20.8359C516.383 20.6016 516.277 20.3086 516.277 19.957ZM526.285 33.0586L529.426 23.3203H531.641L527.094 36H525.441L520.848 23.3203H523.062L526.285 33.0586ZM538.824 36.2344C537.105 36.2344 535.707 35.6719 534.629 34.5469C533.551 33.4141 533.012 31.9023 533.012 30.0117V29.6133C533.012 28.3555 533.25 27.2344 533.727 26.25C534.211 25.2578 534.883 24.4844 535.742 23.9297C536.609 23.3672 537.547 23.0859 538.555 23.0859C540.203 23.0859 541.484 23.6289 542.398 24.7148C543.312 25.8008 543.77 27.3555 543.77 29.3789V30.2812H535.18C535.211 31.5312 535.574 32.543 536.27 33.3164C536.973 34.082 537.863 34.4648 538.941 34.4648C539.707 34.4648 540.355 34.3086 540.887 33.9961C541.418 33.6836 541.883 33.2695 542.281 32.7539L543.605 33.7852C542.543 35.418 540.949 36.2344 538.824 36.2344ZM538.555 24.8672C537.68 24.8672 536.945 25.1875 536.352 25.8281C535.758 26.4609 535.391 27.3516 535.25 28.5H541.602V28.3359C541.539 27.2344 541.242 26.3828 540.711 25.7812C540.18 25.1719 539.461 24.8672 538.555 24.8672Z" fill="#E0E0E0"/>
<path d="M390.354 55.3536C390.549 55.1583 390.549 54.8417 390.354 54.6464L387.172 51.4645C386.976 51.2692 386.66 51.2692 386.464 51.4645C386.269 51.6597 386.269 51.9763 386.464 52.1716L389.293 55L386.464 57.8284C386.269 58.0237 386.269 58.3403 386.464 58.5355C386.66 58.7308 386.976 58.7308 387.172 58.5355L390.354 55.3536ZM206 55.5H390V54.5H206V55.5Z" fill="white"/>
<path d="M263.023 45.6367C263.023 45.0508 262.801 44.5977 262.355 44.2773C261.918 43.9492 261.148 43.668 260.047 43.4336C258.953 43.1992 258.082 42.918 257.434 42.5898C256.793 42.2617 256.316 41.8711 256.004 41.418C255.699 40.9648 255.547 40.4258 255.547 39.8008C255.547 38.7617 255.984 37.8828 256.859 37.1641C257.742 36.4453 258.867 36.0859 260.234 36.0859C261.672 36.0859 262.836 36.457 263.727 37.1992C264.625 37.9414 265.074 38.8906 265.074 40.0469H262.895C262.895 39.4531 262.641 38.9414 262.133 38.5117C261.633 38.082 261 37.8672 260.234 37.8672C259.445 37.8672 258.828 38.0391 258.383 38.3828C257.938 38.7266 257.715 39.1758 257.715 39.7305C257.715 40.2539 257.922 40.6484 258.336 40.9141C258.75 41.1797 259.496 41.4336 260.574 41.6758C261.66 41.918 262.539 42.207 263.211 42.543C263.883 42.8789 264.379 43.2852 264.699 43.7617C265.027 44.2305 265.191 44.8047 265.191 45.4844C265.191 46.6172 264.738 47.5273 263.832 48.2148C262.926 48.8945 261.75 49.2344 260.305 49.2344C259.289 49.2344 258.391 49.0547 257.609 48.6953C256.828 48.3359 256.215 47.8359 255.77 47.1953C255.332 46.5469 255.113 45.8477 255.113 45.0977H257.281C257.32 45.8242 257.609 46.4023 258.148 46.832C258.695 47.2539 259.414 47.4648 260.305 47.4648C261.125 47.4648 261.781 47.3008 262.273 46.9727C262.773 46.6367 263.023 46.1914 263.023 45.6367ZM273.277 49.2344C271.559 49.2344 270.16 48.6719 269.082 47.5469C268.004 46.4141 267.465 44.9023 267.465 43.0117V42.6133C267.465 41.3555 267.703 40.2344 268.18 39.25C268.664 38.2578 269.336 37.4844 270.195 36.9297C271.062 36.3672 272 36.0859 273.008 36.0859C274.656 36.0859 275.938 36.6289 276.852 37.7148C277.766 38.8008 278.223 40.3555 278.223 42.3789V43.2812H269.633C269.664 44.5312 270.027 45.543 270.723 46.3164C271.426 47.082 272.316 47.4648 273.395 47.4648C274.16 47.4648 274.809 47.3086 275.34 46.9961C275.871 46.6836 276.336 46.2695 276.734 45.7539L278.059 46.7852C276.996 48.418 275.402 49.2344 273.277 49.2344ZM273.008 37.8672C272.133 37.8672 271.398 38.1875 270.805 38.8281C270.211 39.4609 269.844 40.3516 269.703 41.5H276.055V41.3359C275.992 40.2344 275.695 39.3828 275.164 38.7812C274.633 38.1719 273.914 37.8672 273.008 37.8672ZM283.098 49H280.93V31H283.098V49ZM291.84 49.2344C290.121 49.2344 288.723 48.6719 287.645 47.5469C286.566 46.4141 286.027 44.9023 286.027 43.0117V42.6133C286.027 41.3555 286.266 40.2344 286.742 39.25C287.227 38.2578 287.898 37.4844 288.758 36.9297C289.625 36.3672 290.562 36.0859 291.57 36.0859C293.219 36.0859 294.5 36.6289 295.414 37.7148C296.328 38.8008 296.785 40.3555 296.785 42.3789V43.2812H288.195C288.227 44.5312 288.59 45.543 289.285 46.3164C289.988 47.082 290.879 47.4648 291.957 47.4648C292.723 47.4648 293.371 47.3086 293.902 46.9961C294.434 46.6836 294.898 46.2695 295.297 45.7539L296.621 46.7852C295.559 48.418 293.965 49.2344 291.84 49.2344ZM291.57 37.8672C290.695 37.8672 289.961 38.1875 289.367 38.8281C288.773 39.4609 288.406 40.3516 288.266 41.5H294.617V41.3359C294.555 40.2344 294.258 39.3828 293.727 38.7812C293.195 38.1719 292.477 37.8672 291.57 37.8672ZM304.391 47.4648C305.164 47.4648 305.84 47.2305 306.418 46.7617C306.996 46.293 307.316 45.707 307.379 45.0039H309.43C309.391 45.7305 309.141 46.4219 308.68 47.0781C308.219 47.7344 307.602 48.2578 306.828 48.6484C306.062 49.0391 305.25 49.2344 304.391 49.2344C302.664 49.2344 301.289 48.6602 300.266 47.5117C299.25 46.3555 298.742 44.7773 298.742 42.7773V42.4141C298.742 41.1797 298.969 40.082 299.422 39.1211C299.875 38.1602 300.523 37.4141 301.367 36.8828C302.219 36.3516 303.223 36.0859 304.379 36.0859C305.801 36.0859 306.98 36.5117 307.918 37.3633C308.863 38.2148 309.367 39.3203 309.43 40.6797H307.379C307.316 39.8594 307.004 39.1875 306.441 38.6641C305.887 38.1328 305.199 37.8672 304.379 37.8672C303.277 37.8672 302.422 38.2656 301.812 39.0625C301.211 39.8516 300.91 40.9961 300.91 42.4961V42.9062C300.91 44.3672 301.211 45.4922 301.812 46.2812C302.414 47.0703 303.273 47.4648 304.391 47.4648ZM314.809 33.25V36.3203H317.176V37.9961H314.809V45.8594C314.809 46.3672 314.914 46.75 315.125 47.0078C315.336 47.2578 315.695 47.3828 316.203 47.3828C316.453 47.3828 316.797 47.3359 317.234 47.2422V49C316.664 49.1562 316.109 49.2344 315.57 49.2344C314.602 49.2344 313.871 48.9414 313.379 48.3555C312.887 47.7695 312.641 46.9375 312.641 45.8594V37.9961H310.332V36.3203H312.641V33.25H314.809ZM318.91 42.543C318.91 41.3008 319.152 40.1836 319.637 39.1914C320.129 38.1992 320.809 37.4336 321.676 36.8945C322.551 36.3555 323.547 36.0859 324.664 36.0859C326.391 36.0859 327.785 36.6836 328.848 37.8789C329.918 39.0742 330.453 40.6641 330.453 42.6484V42.8008C330.453 44.0352 330.215 45.1445 329.738 46.1289C329.27 47.1055 328.594 47.8672 327.711 48.4141C326.836 48.9609 325.828 49.2344 324.688 49.2344C322.969 49.2344 321.574 48.6367 320.504 47.4414C319.441 46.2461 318.91 44.6641 318.91 42.6953V42.543ZM321.09 42.8008C321.09 44.207 321.414 45.3359 322.062 46.1875C322.719 47.0391 323.594 47.4648 324.688 47.4648C325.789 47.4648 326.664 47.0352 327.312 46.1758C327.961 45.3086 328.285 44.0977 328.285 42.543C328.285 41.1523 327.953 40.0273 327.289 39.168C326.633 38.3008 325.758 37.8672 324.664 37.8672C323.594 37.8672 322.73 38.293 322.074 39.1445C321.418 39.9961 321.09 41.2148 321.09 42.8008ZM339.301 38.2656C338.973 38.2109 338.617 38.1836 338.234 38.1836C336.812 38.1836 335.848 38.7891 335.34 40V49H333.172V36.3203H335.281L335.316 37.7852C336.027 36.6523 337.035 36.0859 338.34 36.0859C338.762 36.0859 339.082 36.1406 339.301 36.25V38.2656Z" fill="#F2F2F2"/>
<path d="M462.75 52.7422H457.82V56.7734H463.547V58H456.32V46.625H463.469V47.8594H457.82V51.5156H462.75V52.7422ZM466.758 58H465.312V46H466.758V58ZM472.586 58.1562C471.44 58.1562 470.508 57.7812 469.789 57.0312C469.07 56.276 468.711 55.2682 468.711 54.0078V53.7422C468.711 52.9036 468.87 52.1562 469.188 51.5C469.51 50.8385 469.958 50.3229 470.531 49.9531C471.109 49.5781 471.734 49.3906 472.406 49.3906C473.505 49.3906 474.359 49.7526 474.969 50.4766C475.578 51.2005 475.883 52.237 475.883 53.5859V54.1875H470.156C470.177 55.0208 470.419 55.6953 470.883 56.2109C471.352 56.7214 471.945 56.9766 472.664 56.9766C473.174 56.9766 473.607 56.8724 473.961 56.6641C474.315 56.4557 474.625 56.1797 474.891 55.8359L475.773 56.5234C475.065 57.612 474.003 58.1562 472.586 58.1562ZM472.406 50.5781C471.823 50.5781 471.333 50.7917 470.938 51.2188C470.542 51.6406 470.297 52.2344 470.203 53H474.438V52.8906C474.396 52.1562 474.198 51.5885 473.844 51.1875C473.49 50.7812 473.01 50.5781 472.406 50.5781ZM478.922 49.5469L478.961 50.4844C479.581 49.7552 480.417 49.3906 481.469 49.3906C482.651 49.3906 483.456 49.8438 483.883 50.75C484.164 50.3438 484.529 50.0156 484.977 49.7656C485.43 49.5156 485.964 49.3906 486.578 49.3906C488.432 49.3906 489.375 50.3724 489.406 52.3359V58H487.961V52.4219C487.961 51.8177 487.823 51.3672 487.547 51.0703C487.271 50.7682 486.807 50.6172 486.156 50.6172C485.62 50.6172 485.174 50.7786 484.82 51.1016C484.466 51.4193 484.26 51.849 484.203 52.3906V58H482.75V52.4609C482.75 51.2318 482.148 50.6172 480.945 50.6172C479.997 50.6172 479.349 51.0208 479 51.8281V58H477.555V49.5469H478.922ZM495.102 58.1562C493.956 58.1562 493.023 57.7812 492.305 57.0312C491.586 56.276 491.227 55.2682 491.227 54.0078V53.7422C491.227 52.9036 491.385 52.1562 491.703 51.5C492.026 50.8385 492.474 50.3229 493.047 49.9531C493.625 49.5781 494.25 49.3906 494.922 49.3906C496.021 49.3906 496.875 49.7526 497.484 50.4766C498.094 51.2005 498.398 52.237 498.398 53.5859V54.1875H492.672C492.693 55.0208 492.935 55.6953 493.398 56.2109C493.867 56.7214 494.461 56.9766 495.18 56.9766C495.69 56.9766 496.122 56.8724 496.477 56.6641C496.831 56.4557 497.141 56.1797 497.406 55.8359L498.289 56.5234C497.581 57.612 496.518 58.1562 495.102 58.1562ZM494.922 50.5781C494.339 50.5781 493.849 50.7917 493.453 51.2188C493.057 51.6406 492.812 52.2344 492.719 53H496.953V52.8906C496.911 52.1562 496.714 51.5885 496.359 51.1875C496.005 50.7812 495.526 50.5781 494.922 50.5781ZM501.445 49.5469L501.492 50.6094C502.138 49.7969 502.982 49.3906 504.023 49.3906C505.81 49.3906 506.711 50.3984 506.727 52.4141V58H505.281V52.4062C505.276 51.7969 505.135 51.3464 504.859 51.0547C504.589 50.763 504.164 50.6172 503.586 50.6172C503.117 50.6172 502.706 50.7422 502.352 50.9922C501.997 51.2422 501.721 51.5703 501.523 51.9766V58H500.078V49.5469H501.445ZM510.867 47.5V49.5469H512.445V50.6641H510.867V55.9062C510.867 56.2448 510.938 56.5 511.078 56.6719C511.219 56.8385 511.458 56.9219 511.797 56.9219C511.964 56.9219 512.193 56.8906 512.484 56.8281V58C512.104 58.1042 511.734 58.1562 511.375 58.1562C510.729 58.1562 510.242 57.9609 509.914 57.5703C509.586 57.1797 509.422 56.625 509.422 55.9062V50.6641H507.883V49.5469H509.422V47.5H510.867ZM518.539 53.3984H515.867V58H514.359V46.625H518.125C519.406 46.625 520.391 46.9167 521.078 47.5C521.771 48.0833 522.117 48.9323 522.117 50.0469C522.117 50.7552 521.924 51.3724 521.539 51.8984C521.159 52.4245 520.628 52.8177 519.945 53.0781L522.617 57.9062V58H521.008L518.539 53.3984ZM515.867 52.1719H518.172C518.917 52.1719 519.508 51.9792 519.945 51.5938C520.388 51.2083 520.609 50.6927 520.609 50.0469C520.609 49.3438 520.398 48.8047 519.977 48.4297C519.56 48.0547 518.956 47.8646 518.164 47.8594H515.867V52.1719ZM527.508 58.1562C526.362 58.1562 525.43 57.7812 524.711 57.0312C523.992 56.276 523.633 55.2682 523.633 54.0078V53.7422C523.633 52.9036 523.792 52.1562 524.109 51.5C524.432 50.8385 524.88 50.3229 525.453 49.9531C526.031 49.5781 526.656 49.3906 527.328 49.3906C528.427 49.3906 529.281 49.7526 529.891 50.4766C530.5 51.2005 530.805 52.237 530.805 53.5859V54.1875H525.078C525.099 55.0208 525.341 55.6953 525.805 56.2109C526.273 56.7214 526.867 56.9766 527.586 56.9766C528.096 56.9766 528.529 56.8724 528.883 56.6641C529.237 56.4557 529.547 56.1797 529.812 55.8359L530.695 56.5234C529.987 57.612 528.924 58.1562 527.508 58.1562ZM527.328 50.5781C526.745 50.5781 526.255 50.7917 525.859 51.2188C525.464 51.6406 525.219 52.2344 525.125 53H529.359V52.8906C529.318 52.1562 529.12 51.5885 528.766 51.1875C528.411 50.7812 527.932 50.5781 527.328 50.5781ZM533.195 58V50.6641H531.859V49.5469H533.195V48.6797C533.195 47.7734 533.438 47.0729 533.922 46.5781C534.406 46.0833 535.091 45.8359 535.977 45.8359C536.31 45.8359 536.641 45.8802 536.969 45.9688L536.891 47.1406C536.646 47.0938 536.385 47.0703 536.109 47.0703C535.641 47.0703 535.279 47.2083 535.023 47.4844C534.768 47.7552 534.641 48.1458 534.641 48.6562V49.5469H536.445V50.6641H534.641V58H533.195Z" fill="#F2F2F2"/>
</svg>
