<svg width="18" height="22" viewBox="0 0 18 22" fill="none" xmlns="http://www.w3.org/2000/svg">
<path fill-rule="evenodd" clip-rule="evenodd" d="M18 1.83333V20.1667C18 21.175 17.1 22 16 22L2 21.9908C0.899999 21.9908 0 21.175 0 20.1667V1.83333C0 0.825 0.9 0 2 0H16C17.1 0 18 0.825001 18 1.83333ZM2 2L2 20L16 20L16 2L2 2ZM8.99989 11C10.6499 11 11.9999 9.65 11.9999 8C11.9999 6.35 10.6499 5 8.99989 5C7.34989 5 5.99989 6.35 5.99989 8C5.99989 9.65 7.34989 11 8.99989 11ZM9.99989 8.00001C9.99989 7.45001 9.54989 7.00001 8.99989 7.00001C8.44989 7.00001 7.99989 7.45001 7.99989 8.00001C7.99989 8.55001 8.44989 9.00001 8.99989 9.00001C9.54989 9.00001 9.99989 8.55001 9.99989 8.00001ZM14.9999 15.59C14.9999 13.09 11.0299 12.01 8.99989 12.01C6.96989 12.01 2.99989 13.09 2.99989 15.59V17H14.9999V15.59ZM8.99989 14C7.69989 14 6.21989 14.5 5.47989 15H12.5199C11.7699 14.49 10.2999 14 8.99989 14Z" fill="black" fill-opacity="0.54"/>
</svg>
