<svg width="464" height="677" viewBox="0 0 464 677" fill="none" xmlns="http://www.w3.org/2000/svg">
<path d="M440 321L434 326.5L430.5 339.5V353.5V367L434 394.5V405.5L421.5 467H426.5L437.5 464.5L445 459L451.5 444.5L456.5 432V420.5L461 411.5V396.5V384L464 374V362.5V346.5V334.5V321V316L458.5 312H451.5L445 316L440 321Z" fill="#BBB7B4"/>
<path d="M63 477.5L75 513.5L85 550.5L95 575L122.5 602L147.5 629.5L183.5 655L221.5 675H265.5L302.5 669.5L336 641L360 612.5L386 575L403.5 550.5L413 517.5L423 465" stroke="#524C46" stroke-width="3"/>
<path d="M193 561.5L179.5 563L185 555.5L197.5 552L209 548L219.5 545.5L233 543L239.5 541H247.5H256.5L265 542L274.5 543L288 545.5L301.5 548L312 550L314.5 555.5H301.5H286L274.5 558.5L261.5 561.5H247.5H237H223.5L212 559.5H201.5L193 561.5Z" fill="#4084EA"/>
<path d="M186.022 566.234L181.506 563.17L180 562.149L189.034 560.106L197.566 556.532L207.101 559.085H213.124L221.655 560.106H235.206H248.757L266.824 559.085L272.345 558.064L279.873 555H289.91H303.963H314L313.498 556.532L303.963 560.106L294.427 566.234L283.386 573.894L268.33 579H248.757H235.206H221.655L207.101 575.936L201.079 573.894L186.022 566.234Z" fill="#4084EA"/>
<path d="M330.5 313H339.5L354 315.5L361.5 319.5H373.5L383.5 328L390 344.5V352L383.5 363L361.5 378H339.5L310 373.5L290.5 369.5L280.5 363V355V344.5L290.5 333L301 323.5L310 319.5L319.5 315.5L330.5 313Z" fill="#BBB7B4"/>
<path d="M307 342L315 334L325.5 330.5H341.5L351 334L359 337L368 342V347L363.5 351.5L348.5 362H334L315 358.5L307 355.5L302.5 351.5V347L307 342Z" fill="#FAEFEF" stroke="black"/>
<path d="M303.5 336.5L314.5 330L327.5 327.5H337H344.5L349.5 330L360.5 333L367 336.5L376 341L380.5 348V352L370 361L354 369L337 366.5L317 364L300 361H292L289 359L292 352L296.5 344.5L303.5 336.5Z" fill="#F0E8E8"/>
<path d="M116.5 326L95.5 343.5H93L95.5 361.5L107 373L117.5 383.5L139.5 387H158.5L189 382L203.5 361.5L199 345.5L189 335L173 326L158.5 318.5H142L116.5 326Z" fill="#BBB7B4"/>
<path d="M123.812 364.953L107 350.859L121.493 335.484L129.609 331H139.464L157.435 333.562L167.87 337.406L181.203 346.375L187 361.109L181.203 364.953L159.754 372H138.884L123.812 364.953Z" fill="#F0E8E8"/>
<ellipse cx="147" cy="352" rx="24" ry="19" fill="#9B3C07"/>
<ellipse cx="147.5" cy="351" rx="12.5" ry="10" fill="#0E0E0E"/>
<ellipse cx="336" cy="347" rx="24" ry="19" fill="#9B3C07"/>
<path d="M271.5 311V294.5L285 285.5L301 283L314.5 280H337L360 278H382L394 280L410.5 285.5L416 298V314.5H410.5L383 311L350.5 305H329.5L304 314.5L281 324.5L275.5 321L271.5 311Z" fill="#524C46"/>
<path d="M45.5 351V367.5L50 360.5V323.5V289L55 236.5L65.5 193.5L71.5 174L80 163H89.8875L91.5 157.5L96 152L111.5 145L149 130L201.5 122.5H258L302.5 128L350.5 141L382 157.5L389.5 172.5L404.5 199L411.5 252.5L420.5 262V273L423.5 303.5L425.5 341L428.5 344L430.5 333.5L434 323.5L440 303.5L446 252.5V222.5L440 193.5L432.5 163L417 128L393 93L361 56.5L341 41L309 21.5L277 15L254.5 5.5H238L212 0.5H196H182.5L165.5 11.5L146.5 21.5L126.5 34.5L103 48L74 75.5L55 93L34.5 122.5L29 145L22 177.5V189V210V232.5L24.5 267.5L29 303.5L34.5 325.5L38.5 335L43 338.5L45.5 351Z" fill="#4084EA"/>
<path d="M198.5 318.5L175.5 312L158.5 308.5L136.5 306.5L113.5 308.5L88.5 318.5H68.5H56.5L59.5 303.5L68.5 288.5L80.5 280.5L100 278L127 275L175.5 278L205.5 280.5L211.5 288.5L216 312L211.5 323L198.5 318.5Z" fill="#524C46"/>
<path d="M181.5 467.5L185 458.5V451L191.5 443L203 425L209 393.5L211 358.5L214.5 344H224.5H246H263L268.5 346.5V362V382.25L273 402.5L281.5 417.5L289 431L291 436L295.5 443L301.5 453.5L304 467.5L301.5 480L291 488L281.5 491.5L273 493L266 495.5H260L252.5 497.5H238.5L231 495.5H226H223H218H209L200 491.5L187.5 485.5L181.5 476V467.5Z" fill="#BBB7B4"/>
<path d="M204.5 475V471.5L213 469.5L218.5 471.5L221.5 479L218.5 483H213H207.5L204.5 479V475Z" fill="#383333" stroke="black"/>
<path d="M264 477L268 472.5L273 468.5H282L285 472.5L282 477L273 480.5H268L264 477Z" fill="#413737" stroke="black"/>
<path d="M44.5 353V365.5L42 408L47 427.5L56 445L65 469V480.5L56 478.5L47 475L37.5 461L31.5 445L28 432.5L22 427.5L19.5 417L17.5 404V387.5L14.5 377V372L12 365.5V353L9 346L6 340L2.5 334.5L0 325.5L2.5 320.5H9H17.5L24.5 325.5L31.5 330L37.5 334.5L42 340L44.5 346V353Z" fill="#BBB7B4"/>
<rect x="271" y="287" width="134" height="134" rx="47" stroke="black" stroke-width="6"/>
<rect x="80" y="288" width="134" height="134" rx="47" stroke="black" stroke-width="6"/>
<line x1="80.1808" y1="350.825" x2="31.1808" y2="328.825" stroke="black" stroke-width="4"/>
<line x1="406.178" y1="351.288" x2="437.178" y2="318.288" stroke="black" stroke-width="5"/>
<g filter="url(#filter0_d)">
<line x1="213" y1="352.5" x2="271" y2="352.5" stroke="black" stroke-width="5"/>
</g>
<ellipse cx="336.5" cy="346" rx="12.5" ry="10" fill="#0E0E0E"/>
<line x1="185.972" y1="561.501" x2="311.972" y2="554.501" stroke="#737373"/>
<path d="M120.158 240.516V253.084C120.15 254.827 119.6 256.254 118.508 257.362C117.424 258.471 115.952 259.093 114.09 259.229L113.442 259.254C111.42 259.254 109.807 258.708 108.605 257.616C107.404 256.524 106.794 255.022 106.777 253.109V240.516H109.189V253.033C109.189 254.37 109.558 255.411 110.294 256.156C111.03 256.893 112.08 257.261 113.442 257.261C114.822 257.261 115.876 256.893 116.604 256.156C117.34 255.42 117.708 254.383 117.708 253.046V240.516H120.158ZM126.62 259H124.183V240.516H126.62V259Z" fill="black"/>
<path d="M158.158 240.516V253.084C158.15 254.827 157.6 256.254 156.508 257.362C155.424 258.471 153.952 259.093 152.09 259.229L151.442 259.254C149.42 259.254 147.807 258.708 146.605 257.616C145.404 256.524 144.794 255.022 144.777 253.109V240.516H147.189V253.033C147.189 254.37 147.558 255.411 148.294 256.156C149.03 256.893 150.08 257.261 151.442 257.261C152.822 257.261 153.876 256.893 154.604 256.156C155.34 255.42 155.708 254.383 155.708 253.046V240.516H158.158ZM168.035 247.6L172.466 240.516H175.335L169.495 249.682L175.475 259H172.58L168.035 251.789L163.465 259H160.583L166.575 249.682L160.723 240.516H163.579L168.035 247.6Z" fill="black"/>
<defs>
<filter id="filter0_d" x="209" y="350" width="66" height="13" filterUnits="userSpaceOnUse" color-interpolation-filters="sRGB">
<feFlood flood-opacity="0" result="BackgroundImageFix"/>
<feColorMatrix in="SourceAlpha" type="matrix" values="0 0 0 0 0 0 0 0 0 0 0 0 0 0 0 0 0 0 127 0"/>
<feOffset dy="4"/>
<feGaussianBlur stdDeviation="2"/>
<feColorMatrix type="matrix" values="0 0 0 0 0 0 0 0 0 0 0 0 0 0 0 0 0 0 0.25 0"/>
<feBlend mode="normal" in2="BackgroundImageFix" result="effect1_dropShadow"/>
<feBlend mode="normal" in="SourceGraphic" in2="effect1_dropShadow" result="shape"/>
</filter>
</defs>
</svg>
