<svg width="462" height="497" viewBox="0 0 462 497" fill="none" xmlns="http://www.w3.org/2000/svg">
<path d="M231 0.399994L0.112 82.736L35.328 388.024L231 496.4L426.672 388.024L461.888 82.736L231 0.399994Z" fill="#3C9FFC"/>
<path d="M231 0.399994V55.456V55.208V306.432V496.4L426.672 388.024L461.888 82.736L231 0.399994Z" fill="#3366FF"/>
<path d="M231 55.208L86.664 378.848H140.48L169.496 306.432H292.008L321.024 378.848H374.84L231 55.208ZM273.16 261.792H188.84L231 160.36L273.16 261.792Z" fill="white"/>
<line x1="34" y1="193.5" x2="164" y2="193.5" stroke="white" stroke-width="5"/>
<line x1="34" y1="169.5" x2="164" y2="169.5" stroke="white" stroke-width="5"/>
<line x1="34" y1="147.5" x2="164" y2="147.5" stroke="white" stroke-width="5"/>
<line x1="34" y1="123.5" x2="164" y2="123.5" stroke="white" stroke-width="5"/>
<rect x="297" y="132" width="134" height="54" rx="12" fill="white"/>
<path d="M347.158 149.516V162.084C347.15 163.827 346.6 165.254 345.508 166.362C344.424 167.471 342.952 168.093 341.09 168.229L340.442 168.254C338.42 168.254 336.807 167.708 335.605 166.616C334.404 165.524 333.794 164.022 333.777 162.109V149.516H336.189V162.033C336.189 163.37 336.558 164.411 337.294 165.156C338.03 165.893 339.08 166.261 340.442 166.261C341.822 166.261 342.876 165.893 343.604 165.156C344.34 164.42 344.708 163.383 344.708 162.046V149.516H347.158ZM353.62 168H351.183V149.516H353.62V168ZM362.786 159.405L360.526 161.754V168H358.089V149.516H360.526V158.656L368.74 149.516H371.686L364.411 157.679L372.257 168H369.337L362.786 159.405ZM377.005 168H374.567V149.516H377.005V168ZM393.864 151.521H387.923V168H385.498V151.521H379.569V149.516H393.864V151.521Z" fill="black"/>
</svg>
